<?xml version="1.0" encoding="UTF-8"?>
<!--Generator: Apple Native CoreSVG 149-->
<!DOCTYPE svg
PUBLIC "-//W3C//DTD SVG 1.1//EN"
       "http://www.w3.org/Graphics/SVG/1.1/DTD/svg11.dtd">
<svg version="1.1" xmlns="http://www.w3.org/2000/svg" xmlns:xlink="http://www.w3.org/1999/xlink" width="3300" height="2200">
 <!--glyph: "uni100928.medium", point size: 100.000000, font version: "Version 16.0d18e1", template writer version: "8"-->
 <g id="Notes">
  <rect height="2200" id="artboard" style="fill:white;opacity:1" width="3300" x="0" y="0"/>
  <line id="" style="fill:none;stroke:black;opacity:1;stroke-width:0.5;" x1="263" x2="3036" y1="292" y2="292"/>
  <text style="stroke:none;fill:black;font-family:-apple-system,&quot;SF Pro Display&quot;,&quot;SF Pro Text&quot;,Helvetica,sans-serif;font-weight:bold;" transform="matrix(1 0 0 1 263 322)">Weight/Scale Variations</text>
  <text style="stroke:none;fill:black;font-family:-apple-system,&quot;SF Pro Display&quot;,&quot;SF Pro Text&quot;,Helvetica,sans-serif;text-anchor:middle;" transform="matrix(1 0 0 1 559.711 322)">Ultralight</text>
  <text style="stroke:none;fill:black;font-family:-apple-system,&quot;SF Pro Display&quot;,&quot;SF Pro Text&quot;,Helvetica,sans-serif;text-anchor:middle;" transform="matrix(1 0 0 1 856.422 322)">Thin</text>
  <text style="stroke:none;fill:black;font-family:-apple-system,&quot;SF Pro Display&quot;,&quot;SF Pro Text&quot;,Helvetica,sans-serif;text-anchor:middle;" transform="matrix(1 0 0 1 1153.13 322)">Light</text>
  <text style="stroke:none;fill:black;font-family:-apple-system,&quot;SF Pro Display&quot;,&quot;SF Pro Text&quot;,Helvetica,sans-serif;text-anchor:middle;" transform="matrix(1 0 0 1 1449.84 322)">Regular</text>
  <text style="stroke:none;fill:black;font-family:-apple-system,&quot;SF Pro Display&quot;,&quot;SF Pro Text&quot;,Helvetica,sans-serif;text-anchor:middle;" transform="matrix(1 0 0 1 1746.56 322)">Medium</text>
  <text style="stroke:none;fill:black;font-family:-apple-system,&quot;SF Pro Display&quot;,&quot;SF Pro Text&quot;,Helvetica,sans-serif;text-anchor:middle;" transform="matrix(1 0 0 1 2043.27 322)">Semibold</text>
  <text style="stroke:none;fill:black;font-family:-apple-system,&quot;SF Pro Display&quot;,&quot;SF Pro Text&quot;,Helvetica,sans-serif;text-anchor:middle;" transform="matrix(1 0 0 1 2339.98 322)">Bold</text>
  <text style="stroke:none;fill:black;font-family:-apple-system,&quot;SF Pro Display&quot;,&quot;SF Pro Text&quot;,Helvetica,sans-serif;text-anchor:middle;" transform="matrix(1 0 0 1 2636.69 322)">Heavy</text>
  <text style="stroke:none;fill:black;font-family:-apple-system,&quot;SF Pro Display&quot;,&quot;SF Pro Text&quot;,Helvetica,sans-serif;text-anchor:middle;" transform="matrix(1 0 0 1 2933.4 322)">Black</text>
  <line id="" style="fill:none;stroke:black;opacity:1;stroke-width:0.5;" x1="263" x2="3036" y1="1903" y2="1903"/>
  <g id="" transform="matrix(1 0 0 1 263 1933)">
   <path d="M9.24805 0.830078C13.5547 0.830078 17.1387-2.74414 17.1387-7.05078C17.1387-11.3574 13.5449-14.9316 9.23828-14.9316C4.94141-14.9316 1.36719-11.3574 1.36719-7.05078C1.36719-2.74414 4.95117 0.830078 9.24805 0.830078ZM9.24805-0.654297C5.70312-0.654297 2.87109-3.49609 2.87109-7.05078C2.87109-10.6055 5.69336-13.4473 9.23828-13.4473C12.793-13.4473 15.6348-10.6055 15.6445-7.05078C15.6543-3.49609 12.8027-0.654297 9.24805-0.654297ZM6.39648-6.31836L8.50586-6.31836L8.50586-4.19922C8.50586-3.75977 8.79883-3.45703 9.22852-3.45703C9.67773-3.45703 9.9707-3.75977 9.9707-4.19922L9.9707-6.31836L12.0996-6.31836C12.5391-6.31836 12.8418-6.61133 12.8418-7.04102C12.8418-7.48047 12.5391-7.7832 12.0996-7.7832L9.9707-7.7832L9.9707-9.89258C9.9707-10.3418 9.67773-10.6445 9.22852-10.6445C8.79883-10.6445 8.50586-10.3418 8.50586-9.89258L8.50586-7.7832L6.39648-7.7832C5.94727-7.7832 5.64453-7.48047 5.64453-7.04102C5.64453-6.61133 5.94727-6.31836 6.39648-6.31836Z"/>
  </g>
  <g id="" transform="matrix(1 0 0 1 281.506 1933)">
   <path d="M11.709 2.91016C17.1582 2.91016 21.6699-1.61133 21.6699-7.05078C21.6699-12.5 17.1484-17.0117 11.6992-17.0117C6.25977-17.0117 1.74805-12.5 1.74805-7.05078C1.74805-1.61133 6.26953 2.91016 11.709 2.91016ZM11.709 1.25C7.09961 1.25 3.41797-2.44141 3.41797-7.05078C3.41797-11.6602 7.08984-15.3516 11.6992-15.3516C16.3086-15.3516 20-11.6602 20.0098-7.05078C20.0195-2.44141 16.3184 1.25 11.709 1.25ZM7.98828-6.23047L10.8789-6.23047L10.8789-3.32031C10.8789-2.83203 11.2109-2.5 11.6895-2.5C12.1777-2.5 12.5195-2.83203 12.5195-3.32031L12.5195-6.23047L15.4297-6.23047C15.918-6.23047 16.25-6.5625 16.25-7.04102C16.25-7.5293 15.918-7.87109 15.4297-7.87109L12.5195-7.87109L12.5195-10.7617C12.5195-11.2695 12.1777-11.6016 11.6895-11.6016C11.2109-11.6016 10.8789-11.2598 10.8789-10.7617L10.8789-7.87109L7.98828-7.87109C7.48047-7.87109 7.14844-7.5293 7.14844-7.04102C7.14844-6.5625 7.49023-6.23047 7.98828-6.23047Z"/>
  </g>
  <g id="" transform="matrix(1 0 0 1 304.924 1933)">
   <path d="M14.9707 5.66406C21.9336 5.66406 27.6953-0.0976562 27.6953-7.05078C27.6953-14.0137 21.9238-19.7754 14.9609-19.7754C8.00781-19.7754 2.25586-14.0137 2.25586-7.05078C2.25586-0.0976562 8.01758 5.66406 14.9707 5.66406ZM14.9707 3.84766C8.93555 3.84766 4.08203-1.01562 4.08203-7.05078C4.08203-13.0957 8.92578-17.9492 14.9609-17.9492C21.0059-17.9492 25.8594-13.0957 25.8691-7.05078C25.8789-1.01562 21.0156 3.84766 14.9707 3.84766ZM10.0586-6.14258L14.0625-6.14258L14.0625-2.12891C14.0625-1.5918 14.4336-1.2207 14.9512-1.2207C15.4883-1.2207 15.8594-1.5918 15.8594-2.12891L15.8594-6.14258L19.8828-6.14258C20.4102-6.14258 20.791-6.51367 20.791-7.03125C20.791-7.56836 20.4199-7.94922 19.8828-7.94922L15.8594-7.94922L15.8594-11.9531C15.8594-12.5098 15.4883-12.8809 14.9512-12.8809C14.4336-12.8809 14.0625-12.5 14.0625-11.9531L14.0625-7.94922L10.0586-7.94922C9.50195-7.94922 9.13086-7.56836 9.13086-7.03125C9.13086-6.51367 9.51172-6.14258 10.0586-6.14258Z"/>
  </g>
  <text style="stroke:none;fill:black;font-family:-apple-system,&quot;SF Pro Display&quot;,&quot;SF Pro Text&quot;,Helvetica,sans-serif;font-weight:bold;" transform="matrix(1 0 0 1 263 1953)">Design Variations</text>
  <text style="stroke:none;fill:black;font-family:-apple-system,&quot;SF Pro Display&quot;,&quot;SF Pro Text&quot;,Helvetica,sans-serif;" transform="matrix(1 0 0 1 263 1971)">Symbols are supported in up to nine weights and three scales.</text>
  <text style="stroke:none;fill:black;font-family:-apple-system,&quot;SF Pro Display&quot;,&quot;SF Pro Text&quot;,Helvetica,sans-serif;" transform="matrix(1 0 0 1 263 1989)">For optimal layout with text and other symbols, vertically align</text>
  <text style="stroke:none;fill:black;font-family:-apple-system,&quot;SF Pro Display&quot;,&quot;SF Pro Text&quot;,Helvetica,sans-serif;" transform="matrix(1 0 0 1 263 2007)">symbols with the adjacent text.</text>
  <line id="" style="fill:none;stroke:#00AEEF;stroke-width:0.5;opacity:1.0;" x1="776" x2="776" y1="1919" y2="1933"/>
  <g id="" transform="matrix(1 0 0 1 776 1933)">
   <path d="M3.31055 0.126953C3.82812 0.126953 4.08203-0.0683594 4.26758-0.605469L5.52734-4.0625L11.2891-4.0625L12.5488-0.605469C12.7344-0.0683594 12.9883 0.126953 13.4961 0.126953C14.0137 0.126953 14.3457-0.185547 14.3457-0.673828C14.3457-0.839844 14.3164-0.986328 14.2383-1.20117L9.6582-13.3887C9.43359-13.9941 9.0332-14.2871 8.4082-14.2871C7.80273-14.2871 7.39258-13.9941 7.17773-13.3984L2.59766-1.19141C2.51953-0.976562 2.49023-0.830078 2.49023-0.664062C2.49023-0.175781 2.80273 0.126953 3.31055 0.126953ZM6.00586-5.53711L8.37891-12.1094L8.42773-12.1094L10.8008-5.53711Z"/>
  </g>
  <line id="" style="fill:none;stroke:#00AEEF;stroke-width:0.5;opacity:1.0;" x1="792.836" x2="792.836" y1="1919" y2="1933"/>
  <text style="stroke:none;fill:black;font-family:-apple-system,&quot;SF Pro Display&quot;,&quot;SF Pro Text&quot;,Helvetica,sans-serif;font-weight:bold;" transform="matrix(1 0 0 1 776 1953)">Margins</text>
  <text style="stroke:none;fill:black;font-family:-apple-system,&quot;SF Pro Display&quot;,&quot;SF Pro Text&quot;,Helvetica,sans-serif;" transform="matrix(1 0 0 1 776 1971)">Leading and trailing margins on the left and right side of each symbol</text>
  <text style="stroke:none;fill:black;font-family:-apple-system,&quot;SF Pro Display&quot;,&quot;SF Pro Text&quot;,Helvetica,sans-serif;" transform="matrix(1 0 0 1 776 1989)">can be adjusted by modifying the x-location of the margin guidelines.</text>
  <text style="stroke:none;fill:black;font-family:-apple-system,&quot;SF Pro Display&quot;,&quot;SF Pro Text&quot;,Helvetica,sans-serif;" transform="matrix(1 0 0 1 776 2007)">Modifications are automatically applied proportionally to all</text>
  <text style="stroke:none;fill:black;font-family:-apple-system,&quot;SF Pro Display&quot;,&quot;SF Pro Text&quot;,Helvetica,sans-serif;" transform="matrix(1 0 0 1 776 2025)">scales and weights.</text>
  <g id="" transform="matrix(1 0 0 1 1289 1933)">
   <path d="M2.8418 1.86523L4.54102 3.57422C5.40039 4.44336 6.38672 4.38477 7.31445 3.35938L17.4902-7.85156C17.7539-7.76367 18.0273-7.7832 18.3398-7.8418L19.4043-8.03711L20.0684-7.36328L20.0293-6.80664C19.9902-6.30859 20.1172-5.92773 20.6055-5.44922L21.3672-4.70703C21.8457-4.22852 22.4609-4.19922 22.9297-4.66797L25.8398-7.58789C26.3086-8.05664 26.2891-8.65234 25.8105-9.13086L25.0391-9.89258C24.5605-10.3711 24.1895-10.5273 23.7109-10.4883L23.1348-10.4395L22.4902-11.0742L22.7344-12.1973C22.8613-12.7637 22.7051-13.2031 22.1191-13.7891L19.9219-15.9766C16.582-19.2969 12.1484-19.2188 9.25781-16.3281C8.83789-15.918 8.80859-15.3418 9.04297-14.9512C9.27734-14.5898 9.73633-14.3555 10.3809-14.5215C11.8457-14.8633 13.3691-14.9219 14.7949-13.9844L14.209-12.5293C14.0137-12.0508 13.9844-11.6504 14.1113-11.2891L3.04688-0.898438C2.06055 0.0195312 1.98242 0.996094 2.8418 1.86523ZM10.752-15.957C13.1836-17.7344 16.4746-17.4316 18.7012-15.2051L21.1328-12.793C21.3672-12.5586 21.4062-12.373 21.3379-12.0312L21.0156-10.5469L22.5195-9.0625L23.5059-9.12109C23.7598-9.13086 23.8379-9.11133 24.0332-8.91602L24.6094-8.33984L22.168-5.89844L21.5918-6.47461C21.3965-6.66992 21.3672-6.74805 21.377-7.01172L21.4453-7.98828L19.9512-9.47266L18.4277-9.21875C18.1055-9.15039 17.959-9.17969 17.7148-9.41406L15.7129-11.416C15.459-11.6504 15.4297-11.8164 15.5859-12.1875L16.4648-14.2773C14.9023-15.7324 12.8711-16.3574 10.8398-15.7617C10.6836-15.7227 10.625-15.8496 10.752-15.957ZM5.27344 2.30469L4.10156 1.14258C3.63281 0.683594 3.74023 0.341797 4.14062-0.0195312L14.9512-10.1953L16.416-8.71094L6.42578 2.27539C6.07422 2.67578 5.74219 2.77344 5.27344 2.30469Z"/>
  </g>
  <text style="stroke:none;fill:black;font-family:-apple-system,&quot;SF Pro Display&quot;,&quot;SF Pro Text&quot;,Helvetica,sans-serif;font-weight:bold;" transform="matrix(1 0 0 1 1289 1953)">Exporting</text>
  <text style="stroke:none;fill:black;font-family:-apple-system,&quot;SF Pro Display&quot;,&quot;SF Pro Text&quot;,Helvetica,sans-serif;" transform="matrix(1 0 0 1 1289 1971)">Symbols should be outlined when exporting to ensure the</text>
  <text style="stroke:none;fill:black;font-family:-apple-system,&quot;SF Pro Display&quot;,&quot;SF Pro Text&quot;,Helvetica,sans-serif;" transform="matrix(1 0 0 1 1289 1989)">design is preserved when submitting to Xcode.</text>
  <text id="template-version" style="stroke:none;fill:black;font-family:-apple-system,&quot;SF Pro Display&quot;,&quot;SF Pro Text&quot;,Helvetica,sans-serif;text-anchor:end;" transform="matrix(1 0 0 1 3036 1933)">Template v.2.0</text>
  <text style="stroke:none;fill:black;font-family:-apple-system,&quot;SF Pro Display&quot;,&quot;SF Pro Text&quot;,Helvetica,sans-serif;text-anchor:end;" transform="matrix(1 0 0 1 3036 1951)">Requires Xcode 12 or greater</text>
  <text style="stroke:none;fill:black;font-family:-apple-system,&quot;SF Pro Display&quot;,&quot;SF Pro Text&quot;,Helvetica,sans-serif;text-anchor:end;" transform="matrix(1 0 0 1 3036 1969)">Generated from building.columns</text>
  <text style="stroke:none;fill:black;font-family:-apple-system,&quot;SF Pro Display&quot;,&quot;SF Pro Text&quot;,Helvetica,sans-serif;text-anchor:end;" transform="matrix(1 0 0 1 3036 1987)">Typeset at 100 points</text>
  <text style="stroke:none;fill:black;font-family:-apple-system,&quot;SF Pro Display&quot;,&quot;SF Pro Text&quot;,Helvetica,sans-serif;" transform="matrix(1 0 0 1 263 726)">Small</text>
  <text style="stroke:none;fill:black;font-family:-apple-system,&quot;SF Pro Display&quot;,&quot;SF Pro Text&quot;,Helvetica,sans-serif;" transform="matrix(1 0 0 1 263 1156)">Medium</text>
  <text style="stroke:none;fill:black;font-family:-apple-system,&quot;SF Pro Display&quot;,&quot;SF Pro Text&quot;,Helvetica,sans-serif;" transform="matrix(1 0 0 1 263 1586)">Large</text>
 </g>
 <g id="Guides">
  <g id="H-reference" style="fill:#27AAE1;stroke:none;" transform="matrix(1 0 0 1 339 696)">
   <path d="M0.976562 0L3.66211 0L12.9883-24.4629L45.752-24.4629L55.127 0L57.7637 0L30.6152-70.459L28.125-70.459ZM29.3457-67.1387L29.4434-67.1387L44.873-26.709L13.8672-26.709Z"/>
  </g>
  <line id="Baseline-S" style="fill:none;stroke:#27AAE1;opacity:1;stroke-width:0.5;" x1="263" x2="3036" y1="696" y2="696"/>
  <line id="Capline-S" style="fill:none;stroke:#27AAE1;opacity:1;stroke-width:0.5;" x1="263" x2="3036" y1="625.541" y2="625.541"/>
  <g id="H-reference" style="fill:#27AAE1;stroke:none;" transform="matrix(1 0 0 1 339 1126)">
   <path d="M0.976562 0L3.66211 0L12.9883-24.4629L45.752-24.4629L55.127 0L57.7637 0L30.6152-70.459L28.125-70.459ZM29.3457-67.1387L29.4434-67.1387L44.873-26.709L13.8672-26.709Z"/>
  </g>
  <line id="Baseline-M" style="fill:none;stroke:#27AAE1;opacity:1;stroke-width:0.5;" x1="263" x2="3036" y1="1126" y2="1126"/>
  <line id="Capline-M" style="fill:none;stroke:#27AAE1;opacity:1;stroke-width:0.5;" x1="263" x2="3036" y1="1055.54" y2="1055.54"/>
  <g id="H-reference" style="fill:#27AAE1;stroke:none;" transform="matrix(1 0 0 1 339 1556)">
   <path d="M0.976562 0L3.66211 0L12.9883-24.4629L45.752-24.4629L55.127 0L57.7637 0L30.6152-70.459L28.125-70.459ZM29.3457-67.1387L29.4434-67.1387L44.873-26.709L13.8672-26.709Z"/>
  </g>
  <line id="Baseline-L" style="fill:none;stroke:#27AAE1;opacity:1;stroke-width:0.5;" x1="263" x2="3036" y1="1556" y2="1556"/>
  <line id="Capline-L" style="fill:none;stroke:#27AAE1;opacity:1;stroke-width:0.5;" x1="263" x2="3036" y1="1485.54" y2="1485.54"/>
  <line id="left-margin" style="fill:none;stroke:#00AEEF;stroke-width:0.5;opacity:1.0;" x1="1384.88" x2="1384.88" y1="1030.79" y2="1150.12"/>
  <line id="right-margin" style="fill:none;stroke:#00AEEF;stroke-width:0.5;opacity:1.0;" x1="1514.81" x2="1514.81" y1="1030.79" y2="1150.12"/>
 </g>
 <g id="Symbols">
  <g id="Black-L" transform="matrix(1 0 0 1 2845.14 1556)">
   <path d="M28.8574-55.957L147.656-55.957C152.881-55.957 156.299-59.3262 156.299-63.9648C156.299-67.9199 154.395-70.3613 151.318-72.1191L97.6074-103.125C94.6289-104.785 91.3086-105.713 88.2324-105.713C85.1562-105.713 81.7871-104.785 78.8574-103.125L25.1953-72.1191C22.1191-70.3613 20.2148-67.9199 20.2148-63.9648C20.2148-59.3262 23.584-55.957 28.8574-55.957ZM60.4492-72.6562L87.4023-87.7441C87.793-87.9395 88.0371-88.0371 88.2812-88.0371C88.5254-88.0371 88.7695-87.9395 89.209-87.7441L116.113-72.6562ZM26.5625 7.51953C26.5625 11.8164 29.3945 14.6484 33.7402 14.6484L47.5586 14.6484C51.9043 14.6484 54.7363 11.8164 54.7363 7.51953L54.7363 5.81055C54.7363 1.9043 52.3926-0.78125 48.6816-1.2207L48.6816-34.082C52.3926-34.5215 54.7363-37.207 54.7363-41.1621L54.7363-42.8711C54.7363-47.1191 51.9043-49.9512 47.5586-49.9512L33.7402-49.9512C29.3945-49.9512 26.5625-47.1191 26.5625-42.8711L26.5625-41.1621C26.5625-37.1582 28.9551-34.4727 32.7148-34.082L32.7148-1.2207C28.9551-0.830078 26.5625 1.9043 26.5625 5.81055ZM58.3496 7.51953C58.3496 11.8164 61.1328 14.6484 65.4785 14.6484L79.2969 14.6484C83.6426 14.6484 86.4746 11.8164 86.4746 7.51953L86.4746 5.81055C86.4746 1.9043 84.1309-0.78125 80.4199-1.2207L80.4199-34.082C84.1309-34.5215 86.4746-37.207 86.4746-41.1621L86.4746-42.8711C86.4746-47.1191 83.6426-49.9512 79.2969-49.9512L65.4785-49.9512C61.1328-49.9512 58.3496-47.1191 58.3496-42.8711L58.3496-41.1621C58.3496-37.1582 60.6934-34.4727 64.502-34.082L64.502-1.2207C60.6934-0.830078 58.3496 1.9043 58.3496 5.81055ZM90.1367 7.51953C90.1367 11.8164 92.9688 14.6484 97.3145 14.6484L111.133 14.6484C115.479 14.6484 118.311 11.8164 118.311 7.51953L118.311 5.81055C118.311 1.9043 115.967-0.78125 112.256-1.2207L112.256-34.082C115.967-34.5215 118.311-37.207 118.311-41.1621L118.311-42.8711C118.311-47.1191 115.479-49.9512 111.133-49.9512L97.3145-49.9512C92.9688-49.9512 90.1367-47.1191 90.1367-42.8711L90.1367-41.1621C90.1367-37.1582 92.5293-34.4727 96.2891-34.082L96.2891-1.2207C92.5293-0.830078 90.1367 1.9043 90.1367 5.81055ZM121.924 7.51953C121.924 11.8164 124.707 14.6484 129.053 14.6484L142.92 14.6484C147.217 14.6484 150.049 11.8164 150.049 7.51953L150.049 5.81055C150.049 1.9043 147.705-0.78125 143.994-1.2207L143.994-34.082C147.705-34.5215 150.049-37.207 150.049-41.1621L150.049-42.8711C150.049-47.1191 147.217-49.9512 142.92-49.9512L129.053-49.9512C124.707-49.9512 121.924-47.1191 121.924-42.8711L121.924-41.1621C121.924-37.1582 124.316-34.4727 128.076-34.082L128.076-1.2207C124.316-0.830078 121.924 1.9043 121.924 5.81055ZM16.0645 29.0039C16.0645 33.5938 19.873 37.4023 24.4141 37.4023L152.1 37.4023C156.689 37.4023 160.449 33.5938 160.449 29.0039C160.449 24.4141 156.689 20.6543 152.1 20.6543L24.4141 20.6543C19.873 20.6543 16.0645 24.4141 16.0645 29.0039Z"/>
  </g>
  <g id="Heavy-L" transform="matrix(1 0 0 1 2549.75 1556)">
   <path d="M27.4902-56.3477L146.338-56.3477C151.074-56.3477 154.053-59.4238 154.053-63.4766C154.053-66.8945 152.393-69.0918 149.561-70.7031L95.8008-101.709C92.9688-103.32 89.8438-104.199 86.9141-104.199C83.9355-104.199 80.8105-103.32 77.9785-101.709L24.2676-70.7031C21.4355-69.0918 19.7754-66.8945 19.7754-63.4766C19.7754-59.4238 22.8027-56.3477 27.4902-56.3477ZM55.4199-71.1914L85.5957-88.0859C86.1328-88.3301 86.5723-88.4766 86.9629-88.4766C87.3535-88.4766 87.793-88.3301 88.2812-88.0859L118.457-71.1914ZM26.5625 8.64258C26.5625 12.5 29.0039 14.9414 32.8613 14.9414L47.2168 14.9414C51.0254 14.9414 53.5156 12.5 53.5156 8.64258L53.5156 7.03125C53.5156 3.27148 51.0254 0.830078 47.2168 0.830078L47.1191 0.830078L47.1191-36.2305L47.2168-36.2305C51.0254-36.2305 53.5156-38.6719 53.5156-42.5293L53.5156-44.1406C53.5156-47.8516 51.0254-50.3418 47.2168-50.3418L32.8613-50.3418C29.0039-50.3418 26.5625-47.8516 26.5625-44.1406L26.5625-42.5293C26.5625-38.6719 29.0039-36.2305 32.8613-36.2305L33.0078-36.2305L33.0078 0.830078L32.8613 0.830078C29.0039 0.830078 26.5625 3.27148 26.5625 7.03125ZM57.8613 8.64258C57.8613 12.5 60.3516 14.9414 64.1602 14.9414L78.5156 14.9414C82.373 14.9414 84.8145 12.5 84.8145 8.64258L84.8145 7.03125C84.8145 3.27148 82.373 0.830078 78.5156 0.830078L78.418 0.830078L78.418-36.2305L78.5156-36.2305C82.373-36.2305 84.8145-38.6719 84.8145-42.5293L84.8145-44.1406C84.8145-47.8516 82.373-50.3418 78.5156-50.3418L64.1602-50.3418C60.3516-50.3418 57.8613-47.8516 57.8613-44.1406L57.8613-42.5293C57.8613-38.6719 60.3516-36.2305 64.1602-36.2305L64.3555-36.2305L64.3555 0.830078L64.1602 0.830078C60.3516 0.830078 57.8613 3.27148 57.8613 7.03125ZM89.2578 8.64258C89.2578 12.5 91.6992 14.9414 95.5566 14.9414L109.912 14.9414C113.77 14.9414 116.211 12.5 116.211 8.64258L116.211 7.03125C116.211 3.27148 113.77 0.830078 109.912 0.830078L109.814 0.830078L109.814-36.2305L109.912-36.2305C113.77-36.2305 116.211-38.6719 116.211-42.5293L116.211-44.1406C116.211-47.8516 113.77-50.3418 109.912-50.3418L95.5566-50.3418C91.6992-50.3418 89.2578-47.8516 89.2578-44.1406L89.2578-42.5293C89.2578-38.6719 91.6992-36.2305 95.5566-36.2305L95.7031-36.2305L95.7031 0.830078L95.5566 0.830078C91.6992 0.830078 89.2578 3.27148 89.2578 7.03125ZM120.557 8.64258C120.557 12.5 123.047 14.9414 126.855 14.9414L141.211 14.9414C145.068 14.9414 147.51 12.5 147.51 8.64258L147.51 7.03125C147.51 3.27148 145.068 0.830078 141.211 0.830078L141.113 0.830078L141.113-36.2305L141.211-36.2305C145.068-36.2305 147.51-38.6719 147.51-42.5293L147.51-44.1406C147.51-47.8516 145.068-50.3418 141.211-50.3418L126.855-50.3418C123.047-50.3418 120.557-47.8516 120.557-44.1406L120.557-42.5293C120.557-38.6719 123.047-36.2305 126.855-36.2305L127.051-36.2305L127.051 0.830078L126.855 0.830078C123.047 0.830078 120.557 3.27148 120.557 7.03125ZM16.0645 28.3691C16.0645 32.4219 19.4336 35.791 23.4863 35.791L150.391 35.791C154.443 35.791 157.812 32.4219 157.812 28.3691C157.812 24.3164 154.443 20.9473 150.391 20.9473L23.4863 20.9473C19.4336 20.9473 16.0645 24.3164 16.0645 28.3691Z"/>
  </g>
  <g id="Bold-L" transform="matrix(1 0 0 1 2254.53 1556)">
   <path d="M25.9766-56.7871L144.873-56.7871C149.023-56.7871 151.514-59.5215 151.514-62.9395C151.514-65.7227 150.146-67.6758 147.607-69.1406L93.7988-100.146C91.1133-101.66 88.1836-102.49 85.4004-102.49C82.6172-102.49 79.6875-101.66 77.0508-100.146L23.2422-69.1406C20.7031-67.6758 19.3359-65.7227 19.3359-62.9395C19.3359-59.5215 21.875-56.7871 25.9766-56.7871ZM49.8535-69.4824L83.5938-88.4277C84.2285-88.7695 84.8633-88.9648 85.4492-88.9648C86.0352-88.9648 86.6699-88.7695 87.3047-88.4277L121.045-69.4824ZM26.5625 9.96094C26.5625 13.1836 28.5645 15.2344 31.8359 15.2344L46.8262 15.2344C50.0977 15.2344 52.1484 13.1836 52.1484 9.96094L52.1484 8.39844C52.1484 5.22461 50.0977 3.17383 46.8262 3.17383L45.4102 3.17383L45.4102-38.7207L46.8262-38.7207C50.0977-38.7207 52.1484-40.7715 52.1484-43.9941L52.1484-45.5566C52.1484-48.7305 50.0977-50.7812 46.8262-50.7812L31.8359-50.7812C28.5645-50.7812 26.5625-48.7305 26.5625-45.5566L26.5625-43.9941C26.5625-40.7715 28.5645-38.7207 31.8359-38.7207L33.3496-38.7207L33.3496 3.17383L31.8359 3.17383C28.5645 3.17383 26.5625 5.22461 26.5625 8.39844ZM57.373 9.96094C57.373 13.1836 59.4238 15.2344 62.6465 15.2344L77.6367 15.2344C80.9082 15.2344 82.959 13.1836 82.959 9.96094L82.959 8.39844C82.959 5.22461 80.9082 3.17383 77.6367 3.17383L76.2207 3.17383L76.2207-38.7207L77.6367-38.7207C80.9082-38.7207 82.959-40.7715 82.959-43.9941L82.959-45.5566C82.959-48.7305 80.9082-50.7812 77.6367-50.7812L62.6465-50.7812C59.4238-50.7812 57.373-48.7305 57.373-45.5566L57.373-43.9941C57.373-40.7715 59.4238-38.7207 62.6465-38.7207L64.1602-38.7207L64.1602 3.17383L62.6465 3.17383C59.4238 3.17383 57.373 5.22461 57.373 8.39844ZM88.2812 9.96094C88.2812 13.1836 90.2832 15.2344 93.5547 15.2344L108.545 15.2344C111.816 15.2344 113.867 13.1836 113.867 9.96094L113.867 8.39844C113.867 5.22461 111.816 3.17383 108.545 3.17383L107.129 3.17383L107.129-38.7207L108.545-38.7207C111.816-38.7207 113.867-40.7715 113.867-43.9941L113.867-45.5566C113.867-48.7305 111.816-50.7812 108.545-50.7812L93.5547-50.7812C90.2832-50.7812 88.2812-48.7305 88.2812-45.5566L88.2812-43.9941C88.2812-40.7715 90.2832-38.7207 93.5547-38.7207L95.0684-38.7207L95.0684 3.17383L93.5547 3.17383C90.2832 3.17383 88.2812 5.22461 88.2812 8.39844ZM119.092 9.96094C119.092 13.1836 121.143 15.2344 124.365 15.2344L139.355 15.2344C142.627 15.2344 144.678 13.1836 144.678 9.96094L144.678 8.39844C144.678 5.22461 142.627 3.17383 139.355 3.17383L137.939 3.17383L137.939-38.7207L139.355-38.7207C142.627-38.7207 144.678-40.7715 144.678-43.9941L144.678-45.5566C144.678-48.7305 142.627-50.7812 139.355-50.7812L124.365-50.7812C121.143-50.7812 119.092-48.7305 119.092-45.5566L119.092-43.9941C119.092-40.7715 121.143-38.7207 124.365-38.7207L125.879-38.7207L125.879 3.17383L124.365 3.17383C121.143 3.17383 119.092 5.22461 119.092 8.39844ZM16.0645 27.6367C16.0645 31.1035 18.9453 33.9355 22.4121 33.9355L148.486 33.9355C151.953 33.9355 154.834 31.1035 154.834 27.6367C154.834 24.1211 151.953 21.2891 148.486 21.2891L22.4121 21.2891C18.9453 21.2891 16.0645 24.1211 16.0645 27.6367Z"/>
  </g>
  <g id="Semibold-L" transform="matrix(1 0 0 1 1958.84 1556)">
   <path d="M24.9512-57.0801L143.848-57.0801C147.559-57.0801 149.805-59.6191 149.805-62.5977C149.805-64.9414 148.633-66.6992 146.289-68.0176L92.3828-99.0723C89.8438-100.537 87.0605-101.318 84.375-101.318C81.7383-101.318 78.9062-100.537 76.3672-99.0723L22.5586-68.0176C20.166-66.6992 18.9941-64.9414 18.9941-62.5977C18.9941-59.6191 21.2402-57.0801 24.9512-57.0801ZM45.9961-68.3105L82.2266-88.6719C82.959-89.0625 83.6914-89.3066 84.4238-89.3066C85.1562-89.3066 85.8887-89.0625 86.6211-88.6719L122.852-68.3105ZM26.5137 10.8398C26.5137 13.6719 28.2715 15.4297 31.1523 15.4297L46.582 15.4297C49.4141 15.4297 51.1719 13.6719 51.1719 10.8398L51.1719 9.375C51.1719 6.5918 49.4141 4.83398 46.582 4.83398L44.1895 4.83398L44.1895-40.4297L46.582-40.4297C49.4141-40.4297 51.1719-42.1875 51.1719-45.0684L51.1719-46.5332C51.1719-49.3164 49.4141-51.0742 46.582-51.0742L31.1523-51.0742C28.2715-51.0742 26.5137-49.3164 26.5137-46.5332L26.5137-45.0684C26.5137-42.1875 28.2715-40.4297 31.1523-40.4297L33.5938-40.4297L33.5938 4.83398L31.1523 4.83398C28.2715 4.83398 26.5137 6.5918 26.5137 9.375ZM57.0312 10.8398C57.0312 13.6719 58.7891 15.4297 61.6211 15.4297L77.0508 15.4297C79.8828 15.4297 81.6895 13.6719 81.6895 10.8398L81.6895 9.375C81.6895 6.5918 79.8828 4.83398 77.0508 4.83398L74.707 4.83398L74.707-40.4297L77.0508-40.4297C79.8828-40.4297 81.6895-42.1875 81.6895-45.0684L81.6895-46.5332C81.6895-49.3164 79.8828-51.0742 77.0508-51.0742L61.6211-51.0742C58.7891-51.0742 57.0312-49.3164 57.0312-46.5332L57.0312-45.0684C57.0312-42.1875 58.7891-40.4297 61.6211-40.4297L64.0625-40.4297L64.0625 4.83398L61.6211 4.83398C58.7891 4.83398 57.0312 6.5918 57.0312 9.375ZM87.5488 10.8398C87.5488 13.6719 89.3555 15.4297 92.1875 15.4297L107.617 15.4297C110.449 15.4297 112.207 13.6719 112.207 10.8398L112.207 9.375C112.207 6.5918 110.449 4.83398 107.617 4.83398L105.273 4.83398L105.273-40.4297L107.617-40.4297C110.449-40.4297 112.207-42.1875 112.207-45.0684L112.207-46.5332C112.207-49.3164 110.449-51.0742 107.617-51.0742L92.1875-51.0742C89.3555-51.0742 87.5488-49.3164 87.5488-46.5332L87.5488-45.0684C87.5488-42.1875 89.3555-40.4297 92.1875-40.4297L94.6289-40.4297L94.6289 4.83398L92.1875 4.83398C89.3555 4.83398 87.5488 6.5918 87.5488 9.375ZM118.066 10.8398C118.066 13.6719 119.824 15.4297 122.656 15.4297L138.086 15.4297C140.967 15.4297 142.725 13.6719 142.725 10.8398L142.725 9.375C142.725 6.5918 140.967 4.83398 138.086 4.83398L135.742 4.83398L135.742-40.4297L138.086-40.4297C140.967-40.4297 142.725-42.1875 142.725-45.0684L142.725-46.5332C142.725-49.3164 140.967-51.0742 138.086-51.0742L122.656-51.0742C119.824-51.0742 118.066-49.3164 118.066-46.5332L118.066-45.0684C118.066-42.1875 119.824-40.4297 122.656-40.4297L125.098-40.4297L125.098 4.83398L122.656 4.83398C119.824 4.83398 118.066 6.5918 118.066 9.375ZM16.0645 27.0996C16.0645 30.1758 18.6035 32.7148 21.6797 32.7148L147.168 32.7148C150.244 32.7148 152.783 30.1758 152.783 27.0996C152.783 24.0234 150.244 21.4844 147.168 21.4844L21.6797 21.4844C18.6035 21.4844 16.0645 24.0234 16.0645 27.0996Z"/>
  </g>
  <g id="Medium-L" transform="matrix(1 0 0 1 1662.91 1556)">
   <path d="M24.1211-57.3242L143.115-57.3242C146.484-57.3242 148.486-59.668 148.486-62.3047C148.486-64.3066 147.461-65.918 145.264-67.1875L91.3574-98.2422C88.8672-99.6582 86.1816-100.439 83.6426-100.439C81.0059-100.439 78.3203-99.6582 75.8789-98.2422L22.0215-67.1875C19.7754-65.918 18.75-64.3066 18.75-62.3047C18.75-59.668 20.752-57.3242 24.1211-57.3242ZM43.0664-67.4316L81.1523-88.8672C81.9824-89.3066 82.8125-89.5508 83.6426-89.5508C84.4727-89.5508 85.3027-89.3066 86.084-88.8672L124.219-67.4316ZM26.5137 11.5234C26.5137 14.0625 28.0762 15.625 30.6152 15.625L46.3379 15.625C48.9258 15.625 50.4395 14.0625 50.4395 11.5234L50.4395 10.0586C50.4395 7.61719 48.9258 6.05469 46.3379 6.05469L43.3105 6.05469L43.3105-41.748L46.3379-41.748C48.9258-41.748 50.4395-43.2617 50.4395-45.8496L50.4395-47.2656C50.4395-49.7559 48.9258-51.2695 46.3379-51.2695L30.6152-51.2695C28.0762-51.2695 26.5137-49.7559 26.5137-47.2656L26.5137-45.8496C26.5137-43.2617 28.0762-41.748 30.6152-41.748L33.7402-41.748L33.7402 6.05469L30.6152 6.05469C28.0762 6.05469 26.5137 7.61719 26.5137 10.0586ZM56.7383 11.5234C56.7383 14.0625 58.3008 15.625 60.8398 15.625L76.6113 15.625C79.1504 15.625 80.7129 14.0625 80.7129 11.5234L80.7129 10.0586C80.7129 7.61719 79.1504 6.05469 76.6113 6.05469L73.5352 6.05469L73.5352-41.748L76.6113-41.748C79.1504-41.748 80.7129-43.2617 80.7129-45.8496L80.7129-47.2656C80.7129-49.7559 79.1504-51.2695 76.6113-51.2695L60.8398-51.2695C58.3008-51.2695 56.7383-49.7559 56.7383-47.2656L56.7383-45.8496C56.7383-43.2617 58.3008-41.748 60.8398-41.748L63.9648-41.748L63.9648 6.05469L60.8398 6.05469C58.3008 6.05469 56.7383 7.61719 56.7383 10.0586ZM87.0605 11.5234C87.0605 14.0625 88.5742 15.625 91.1621 15.625L106.885 15.625C109.424 15.625 110.986 14.0625 110.986 11.5234L110.986 10.0586C110.986 7.61719 109.424 6.05469 106.885 6.05469L103.857 6.05469L103.857-41.748L106.885-41.748C109.424-41.748 110.986-43.2617 110.986-45.8496L110.986-47.2656C110.986-49.7559 109.424-51.2695 106.885-51.2695L91.1621-51.2695C88.5742-51.2695 87.0605-49.7559 87.0605-47.2656L87.0605-45.8496C87.0605-43.2617 88.5742-41.748 91.1621-41.748L94.2871-41.748L94.2871 6.05469L91.1621 6.05469C88.5742 6.05469 87.0605 7.61719 87.0605 10.0586ZM117.285 11.5234C117.285 14.0625 118.848 15.625 121.387 15.625L137.109 15.625C139.697 15.625 141.211 14.0625 141.211 11.5234L141.211 10.0586C141.211 7.61719 139.697 6.05469 137.109 6.05469L134.082 6.05469L134.082-41.748L137.109-41.748C139.697-41.748 141.211-43.2617 141.211-45.8496L141.211-47.2656C141.211-49.7559 139.697-51.2695 137.109-51.2695L121.387-51.2695C118.848-51.2695 117.285-49.7559 117.285-47.2656L117.285-45.8496C117.285-43.2617 118.848-41.748 121.387-41.748L124.512-41.748L124.512 6.05469L121.387 6.05469C118.848 6.05469 117.285 7.61719 117.285 10.0586ZM16.0645 26.709C16.0645 29.4922 18.3594 31.7871 21.0938 31.7871L146.191 31.7871C148.926 31.7871 151.221 29.4922 151.221 26.709C151.221 23.9258 148.926 21.6797 146.191 21.6797L21.0938 21.6797C18.3594 21.6797 16.0645 23.9258 16.0645 26.709Z"/>
  </g>
  <g id="Regular-L" transform="matrix(1 0 0 1 1367.2 1556)">
   <path d="M23.0957-57.666L142.09-57.666C145.117-57.666 146.777-59.7656 146.777-61.9629C146.777-63.5254 145.947-64.9902 143.945-66.1133L89.9902-97.168C87.5977-98.5352 85.0586-99.2676 82.6172-99.2676C80.127-99.2676 77.5879-98.5352 75.2441-97.168L21.2891-66.1133C19.2871-64.9902 18.457-63.5254 18.457-61.9629C18.457-59.7656 20.1172-57.666 23.0957-57.666ZM39.209-66.3086L79.7852-89.1113C80.6641-89.5996 81.6895-89.8926 82.6172-89.8926C83.5449-89.8926 84.5215-89.5996 85.4004-89.1113L125.977-66.3086ZM26.5137 12.4023C26.5137 14.5508 27.7832 15.8203 29.9316 15.8203L46.0938 15.8203C48.2422 15.8203 49.5117 14.5508 49.5117 12.4023L49.5117 10.9863C49.5117 8.93555 48.2422 7.66602 46.0938 7.66602L42.1387 7.66602L42.1387-43.4082L46.0938-43.4082C48.2422-43.4082 49.5117-44.6777 49.5117-46.8262L49.5117-48.2422C49.5117-50.293 48.2422-51.5625 46.0938-51.5625L29.9316-51.5625C27.7832-51.5625 26.5137-50.293 26.5137-48.2422L26.5137-46.8262C26.5137-44.6777 27.7832-43.4082 29.9316-43.4082L33.9844-43.4082L33.9844 7.66602L29.9316 7.66602C27.7832 7.66602 26.5137 8.93555 26.5137 10.9863ZM56.3965 12.4023C56.3965 14.5508 57.666 15.8203 59.8145 15.8203L75.9766 15.8203C78.1738 15.8203 79.4434 14.5508 79.4434 12.4023L79.4434 10.9863C79.4434 8.93555 78.1738 7.66602 75.9766 7.66602L72.0215 7.66602L72.0215-43.4082L75.9766-43.4082C78.1738-43.4082 79.4434-44.6777 79.4434-46.8262L79.4434-48.2422C79.4434-50.293 78.1738-51.5625 75.9766-51.5625L59.8145-51.5625C57.666-51.5625 56.3965-50.293 56.3965-48.2422L56.3965-46.8262C56.3965-44.6777 57.666-43.4082 59.8145-43.4082L63.8672-43.4082L63.8672 7.66602L59.8145 7.66602C57.666 7.66602 56.3965 8.93555 56.3965 10.9863ZM86.377 12.4023C86.377 14.5508 87.6465 15.8203 89.7949 15.8203L105.957 15.8203C108.105 15.8203 109.375 14.5508 109.375 12.4023L109.375 10.9863C109.375 8.93555 108.105 7.66602 105.957 7.66602L102.002 7.66602L102.002-43.4082L105.957-43.4082C108.105-43.4082 109.375-44.6777 109.375-46.8262L109.375-48.2422C109.375-50.293 108.105-51.5625 105.957-51.5625L89.7949-51.5625C87.6465-51.5625 86.377-50.293 86.377-48.2422L86.377-46.8262C86.377-44.6777 87.6465-43.4082 89.7949-43.4082L93.8477-43.4082L93.8477 7.66602L89.7949 7.66602C87.6465 7.66602 86.377 8.93555 86.377 10.9863ZM116.26 12.4023C116.26 14.5508 117.529 15.8203 119.678 15.8203L135.84 15.8203C138.037 15.8203 139.307 14.5508 139.307 12.4023L139.307 10.9863C139.307 8.93555 138.037 7.66602 135.84 7.66602L131.885 7.66602L131.885-43.4082L135.84-43.4082C138.037-43.4082 139.307-44.6777 139.307-46.8262L139.307-48.2422C139.307-50.293 138.037-51.5625 135.84-51.5625L119.678-51.5625C117.529-51.5625 116.26-50.293 116.26-48.2422L116.26-46.8262C116.26-44.6777 117.529-43.4082 119.678-43.4082L123.73-43.4082L123.73 7.66602L119.678 7.66602C117.529 7.66602 116.26 8.93555 116.26 10.9863ZM16.0645 26.2207C16.0645 28.5645 18.0176 30.5176 20.4102 30.5176L144.873 30.5176C147.266 30.5176 149.219 28.5645 149.219 26.2207C149.219 23.8281 147.266 21.875 144.873 21.875L20.4102 21.875C18.0176 21.875 16.0645 23.8281 16.0645 26.2207Z"/>
  </g>
  <g id="Light-L" transform="matrix(1 0 0 1 1072.13 1556)">
   <path d="M21.3867-58.6426L140.576-58.6426C142.92-58.6426 144.141-60.2539 144.141-61.9629C144.141-63.1348 143.506-64.2578 141.992-65.1367L87.8418-96.2402C85.6445-97.5098 83.3008-98.1934 81.0059-98.1934C78.6621-98.1934 76.2695-97.4609 74.1211-96.2402L20.0195-65.1367C18.457-64.2578 17.8711-63.1348 17.8711-61.9629C17.8711-60.2539 19.0918-58.6426 21.3867-58.6426ZM33.7402-65.2832L77.6855-90.0879C78.7598-90.6738 79.9316-91.0156 81.0059-91.0156C82.1289-91.0156 83.252-90.6738 84.2773-90.0879L128.271-65.2832ZM25.7324 13.4277C25.7324 15.0391 26.709 16.0156 28.3203 16.0156L44.4824 16.0156C46.0938 16.0156 47.0703 15.0391 47.0703 13.4277L47.0703 12.207C47.0703 10.6934 46.0938 9.7168 44.4824 9.7168L39.5996 9.7168L39.5996-45.5566L44.4824-45.5566C46.0938-45.5566 47.0703-46.5332 47.0703-48.1445L47.0703-49.3164C47.0703-50.8789 46.0938-51.8555 44.4824-51.8555L28.3203-51.8555C26.709-51.8555 25.7324-50.8789 25.7324-49.3164L25.7324-48.1445C25.7324-46.5332 26.709-45.5566 28.3203-45.5566L33.3008-45.5566L33.3008 9.7168L28.3203 9.7168C26.709 9.7168 25.7324 10.6934 25.7324 12.207ZM55.5664 13.4277C55.5664 15.0391 56.543 16.0156 58.1543 16.0156L74.3164 16.0156C75.9766 16.0156 76.9531 15.0391 76.9531 13.4277L76.9531 12.207C76.9531 10.6934 75.9766 9.7168 74.3164 9.7168L69.4336 9.7168L69.4336-45.5566L74.3164-45.5566C75.9766-45.5566 76.9531-46.5332 76.9531-48.1445L76.9531-49.3164C76.9531-50.8789 75.9766-51.8555 74.3164-51.8555L58.1543-51.8555C56.543-51.8555 55.5664-50.8789 55.5664-49.3164L55.5664-48.1445C55.5664-46.5332 56.543-45.5566 58.1543-45.5566L63.1348-45.5566L63.1348 9.7168L58.1543 9.7168C56.543 9.7168 55.5664 10.6934 55.5664 12.207ZM85.4492 13.4277C85.4492 15.0391 86.4258 16.0156 88.0371 16.0156L104.199 16.0156C105.859 16.0156 106.836 15.0391 106.836 13.4277L106.836 12.207C106.836 10.6934 105.859 9.7168 104.199 9.7168L99.3164 9.7168L99.3164-45.5566L104.199-45.5566C105.859-45.5566 106.836-46.5332 106.836-48.1445L106.836-49.3164C106.836-50.8789 105.859-51.8555 104.199-51.8555L88.0371-51.8555C86.4258-51.8555 85.4492-50.8789 85.4492-49.3164L85.4492-48.1445C85.4492-46.5332 86.4258-45.5566 88.0371-45.5566L93.0176-45.5566L93.0176 9.7168L88.0371 9.7168C86.4258 9.7168 85.4492 10.6934 85.4492 12.207ZM115.283 13.4277C115.283 15.0391 116.26 16.0156 117.92 16.0156L134.082 16.0156C135.693 16.0156 136.67 15.0391 136.67 13.4277L136.67 12.207C136.67 10.6934 135.693 9.7168 134.082 9.7168L129.199 9.7168L129.199-45.5566L134.082-45.5566C135.693-45.5566 136.67-46.5332 136.67-48.1445L136.67-49.3164C136.67-50.8789 135.693-51.8555 134.082-51.8555L117.92-51.8555C116.26-51.8555 115.283-50.8789 115.283-49.3164L115.283-48.1445C115.283-46.5332 116.26-45.5566 117.92-45.5566L122.852-45.5566L122.852 9.7168L117.92 9.7168C116.26 9.7168 115.283 10.6934 115.283 12.207ZM16.0645 26.123C16.0645 27.9297 17.5781 29.4434 19.3848 29.4434L142.676 29.4434C144.482 29.4434 145.947 27.9297 145.947 26.123C145.947 24.3164 144.482 22.8027 142.676 22.8027L19.3848 22.8027C17.5781 22.8027 16.0645 24.3164 16.0645 26.123Z"/>
  </g>
  <g id="Thin-L" transform="matrix(1 0 0 1 777.54 1556)">
   <path d="M19.1406-60.0098L138.574-60.0098C140.039-60.0098 140.674-60.8887 140.674-61.9629C140.674-62.5977 140.332-63.3301 139.453-63.8184L85.0586-95.0195C83.1055-96.1914 80.957-96.7773 78.8574-96.7773C76.709-96.7773 74.5605-96.0938 72.6562-95.0195L18.3105-63.8184C17.3828-63.3301 17.0898-62.5977 17.0898-61.9629C17.0898-60.8887 17.7246-60.0098 19.1406-60.0098ZM26.416-63.916L74.9512-91.3574C76.1719-92.0898 77.5879-92.4805 78.8574-92.4805C80.2734-92.4805 81.5918-92.0898 82.8125-91.3574L131.299-63.916ZM24.707 14.7949C24.707 15.7227 25.293 16.3086 26.2207 16.3086L42.3828 16.3086C43.2617 16.3086 43.8477 15.7227 43.8477 14.7949L43.8477 13.8184C43.8477 12.9883 43.2617 12.4023 42.3828 12.4023L36.2305 12.4023L36.2305-48.3398L42.3828-48.3398C43.2617-48.3398 43.8477-48.9258 43.8477-49.8535L43.8477-50.7812C43.8477-51.6113 43.2617-52.1973 42.3828-52.1973L26.2207-52.1973C25.293-52.1973 24.707-51.6113 24.707-50.7812L24.707-49.8535C24.707-48.9258 25.293-48.3398 26.2207-48.3398L32.373-48.3398L32.373 12.4023L26.2207 12.4023C25.293 12.4023 24.707 12.9883 24.707 13.8184ZM54.4922 14.7949C54.4922 15.7227 55.0781 16.3086 55.957 16.3086L72.1191 16.3086C73.0469 16.3086 73.6328 15.7227 73.6328 14.7949L73.6328 13.8184C73.6328 12.9883 73.0469 12.4023 72.1191 12.4023L66.0156 12.4023L66.0156-48.3398L72.1191-48.3398C73.0469-48.3398 73.6328-48.9258 73.6328-49.8535L73.6328-50.7812C73.6328-51.6113 73.0469-52.1973 72.1191-52.1973L55.957-52.1973C55.0781-52.1973 54.4922-51.6113 54.4922-50.7812L54.4922-49.8535C54.4922-48.9258 55.0781-48.3398 55.957-48.3398L62.1582-48.3398L62.1582 12.4023L55.957 12.4023C55.0781 12.4023 54.4922 12.9883 54.4922 13.8184ZM84.2773 14.7949C84.2773 15.7227 84.8633 16.3086 85.7422 16.3086L101.904 16.3086C102.832 16.3086 103.418 15.7227 103.418 14.7949L103.418 13.8184C103.418 12.9883 102.832 12.4023 101.904 12.4023L95.8008 12.4023L95.8008-48.3398L101.904-48.3398C102.832-48.3398 103.418-48.9258 103.418-49.8535L103.418-50.7812C103.418-51.6113 102.832-52.1973 101.904-52.1973L85.7422-52.1973C84.8633-52.1973 84.2773-51.6113 84.2773-50.7812L84.2773-49.8535C84.2773-48.9258 84.8633-48.3398 85.7422-48.3398L91.9434-48.3398L91.9434 12.4023L85.7422 12.4023C84.8633 12.4023 84.2773 12.9883 84.2773 13.8184ZM114.014 14.7949C114.014 15.7227 114.6 16.3086 115.527 16.3086L131.689 16.3086C132.617 16.3086 133.203 15.7227 133.203 14.7949L133.203 13.8184C133.203 12.9883 132.617 12.4023 131.689 12.4023L125.586 12.4023L125.586-48.3398L131.689-48.3398C132.617-48.3398 133.203-48.9258 133.203-49.8535L133.203-50.7812C133.203-51.6113 132.617-52.1973 131.689-52.1973L115.527-52.1973C114.6-52.1973 114.014-51.6113 114.014-50.7812L114.014-49.8535C114.014-48.9258 114.6-48.3398 115.527-48.3398L121.729-48.3398L121.729 12.4023L115.527 12.4023C114.6 12.4023 114.014 12.9883 114.014 13.8184ZM16.0645 26.0254C16.0645 27.0996 16.9434 27.9785 18.0176 27.9785L139.746 27.9785C140.82 27.9785 141.699 27.0996 141.699 26.0254C141.699 24.9512 140.82 24.0723 139.746 24.0723L18.0176 24.0723C16.9434 24.0723 16.0645 24.9512 16.0645 26.0254Z"/>
  </g>
  <g id="Ultralight-L" transform="matrix(1 0 0 1 481.928 1556)">
   <path d="M18.0176-60.6934L137.549-60.6934C138.574-60.6934 138.916-61.2305 138.916-61.9629C138.916-62.3047 138.721-62.8418 138.135-63.1836L83.6426-94.3848C81.7871-95.5078 79.7363-96.0449 77.7832-96.0449C75.7324-96.0449 73.6816-95.4102 71.9238-94.3848L17.4316-63.1836C16.8457-62.8418 16.6992-62.3047 16.6992-61.9629C16.6992-61.2305 16.9922-60.6934 18.0176-60.6934ZM22.7051-63.2324L73.5352-92.041C74.8535-92.8223 76.3672-93.2129 77.7832-93.2129C79.2969-93.2129 80.7129-92.8223 82.0312-92.041L132.861-63.2324ZM24.1699 15.4785C24.1699 16.0645 24.5605 16.4062 25.0977 16.4062L41.2598 16.4062C41.8457 16.4062 42.1875 16.0645 42.1875 15.4785L42.1875 14.6484C42.1875 14.209 41.8457 13.8184 41.2598 13.8184L34.5215 13.8184L34.5215-49.8047L41.2598-49.8047C41.8457-49.8047 42.1875-50.1953 42.1875-50.7324L42.1875-51.5625C42.1875-52.002 41.8457-52.3926 41.2598-52.3926L25.0977-52.3926C24.5605-52.3926 24.1699-52.002 24.1699-51.5625L24.1699-50.7324C24.1699-50.1953 24.5605-49.8047 25.0977-49.8047L31.9336-49.8047L31.9336 13.8184L25.0977 13.8184C24.5605 13.8184 24.1699 14.209 24.1699 14.6484ZM53.9062 15.4785C53.9062 16.0645 54.2969 16.4062 54.834 16.4062L70.9961 16.4062C71.582 16.4062 71.9238 16.0645 71.9238 15.4785L71.9238 14.6484C71.9238 14.209 71.582 13.8184 70.9961 13.8184L64.2578 13.8184L64.2578-49.8047L70.9961-49.8047C71.582-49.8047 71.9238-50.1953 71.9238-50.7324L71.9238-51.5625C71.9238-52.002 71.582-52.3926 70.9961-52.3926L54.834-52.3926C54.2969-52.3926 53.9062-52.002 53.9062-51.5625L53.9062-50.7324C53.9062-50.1953 54.2969-49.8047 54.834-49.8047L61.6699-49.8047L61.6699 13.8184L54.834 13.8184C54.2969 13.8184 53.9062 14.209 53.9062 14.6484ZM83.6426 15.4785C83.6426 16.0645 84.0332 16.4062 84.5703 16.4062L100.732 16.4062C101.27 16.4062 101.66 16.0645 101.66 15.4785L101.66 14.6484C101.66 14.209 101.27 13.8184 100.732 13.8184L93.9941 13.8184L93.9941-49.8047L100.732-49.8047C101.27-49.8047 101.66-50.1953 101.66-50.7324L101.66-51.5625C101.66-52.002 101.27-52.3926 100.732-52.3926L84.5703-52.3926C84.0332-52.3926 83.6426-52.002 83.6426-51.5625L83.6426-50.7324C83.6426-50.1953 84.0332-49.8047 84.5703-49.8047L91.4062-49.8047L91.4062 13.8184L84.5703 13.8184C84.0332 13.8184 83.6426 14.209 83.6426 14.6484ZM113.379 15.4785C113.379 16.0645 113.77 16.4062 114.307 16.4062L130.469 16.4062C131.006 16.4062 131.396 16.0645 131.396 15.4785L131.396 14.6484C131.396 14.209 131.006 13.8184 130.469 13.8184L123.73 13.8184L123.73-49.8047L130.469-49.8047C131.006-49.8047 131.396-50.1953 131.396-50.7324L131.396-51.5625C131.396-52.002 131.006-52.3926 130.469-52.3926L114.307-52.3926C113.77-52.3926 113.379-52.002 113.379-51.5625L113.379-50.7324C113.379-50.1953 113.77-49.8047 114.307-49.8047L121.143-49.8047L121.143 13.8184L114.307 13.8184C113.77 13.8184 113.379 14.209 113.379 14.6484ZM16.0645 25.9766C16.0645 26.709 16.6504 27.2461 17.334 27.2461L138.232 27.2461C138.916 27.2461 139.502 26.709 139.502 25.9766C139.502 25.293 138.916 24.707 138.232 24.707L17.334 24.707C16.6504 24.707 16.0645 25.293 16.0645 25.9766Z"/>
  </g>
  <g id="Black-M" transform="matrix(1 0 0 1 2864.06 1126)">
   <path d="M23.291-51.2695L115.381-51.2695C119.824-51.2695 122.754-54.0527 122.754-58.1055C122.754-61.7188 121.094-63.7695 118.555-65.2344L76.9531-89.209C74.5605-90.5762 71.8262-91.3574 69.2871-91.3574C66.7969-91.3574 64.0625-90.5762 61.6699-89.209L20.1172-65.2344C17.5781-63.7695 15.918-61.7188 15.918-58.1055C15.918-54.0527 18.8477-51.2695 23.291-51.2695ZM50.6348-65.7227L69.043-76.0254C69.2871-76.1719 69.3359-76.123 69.3848-76.123C69.4336-76.123 69.4824-76.1719 69.7266-76.0254L88.0859-65.7227ZM20.2148-3.125C20.2148 0.634766 22.7539 3.17383 26.5137 3.17383L36.4746 3.17383C40.2344 3.17383 42.7734 0.634766 42.7734-3.125L42.7734-4.44336C42.7734-7.4707 41.1133-9.66797 38.4277-10.4004L38.4277-32.666C41.1133-33.3984 42.7734-35.6445 42.7734-38.7207L42.7734-40.0391C42.7734-43.75 40.2344-46.2402 36.4746-46.2402L26.5137-46.2402C22.7539-46.2402 20.2148-43.75 20.2148-40.0391L20.2148-38.7207C20.2148-35.6445 21.9238-33.3496 24.6094-32.666L24.6094-10.4492C21.9238-9.7168 20.2148-7.4707 20.2148-4.44336ZM45.3613-3.125C45.3613 0.634766 47.9004 3.17383 51.6602 3.17383L61.6211 3.17383C65.4297 3.17383 67.9199 0.634766 67.9199-3.125L67.9199-4.44336C67.9199-7.4707 66.2598-9.66797 63.623-10.4004L63.623-32.666C66.2598-33.3984 67.9199-35.6445 67.9199-38.7207L67.9199-40.0391C67.9199-43.75 65.4297-46.2402 61.6211-46.2402L51.6602-46.2402C47.9004-46.2402 45.3613-43.75 45.3613-40.0391L45.3613-38.7207C45.3613-35.6445 47.0703-33.3496 49.7559-32.666L49.7559-10.4492C47.0703-9.7168 45.3613-7.4707 45.3613-4.44336ZM70.6055-3.125C70.6055 0.634766 73.0957 3.17383 76.9043 3.17383L86.8652 3.17383C90.625 3.17383 93.1641 0.634766 93.1641-3.125L93.1641-4.44336C93.1641-7.4707 91.5039-9.66797 88.8184-10.4004L88.8184-32.666C91.5039-33.3984 93.1641-35.6445 93.1641-38.7207L93.1641-40.0391C93.1641-43.75 90.625-46.2402 86.8652-46.2402L76.9043-46.2402C73.0957-46.2402 70.6055-43.75 70.6055-40.0391L70.6055-38.7207C70.6055-35.6445 72.3145-33.3496 75-32.666L75-10.4492C72.3145-9.7168 70.6055-7.4707 70.6055-4.44336ZM95.752-3.125C95.752 0.634766 98.291 3.17383 102.051 3.17383L112.012 3.17383C115.82 3.17383 118.311 0.634766 118.311-3.125L118.311-4.44336C118.311-7.4707 116.65-9.66797 113.965-10.4004L113.965-32.666C116.65-33.3984 118.311-35.6445 118.311-38.7207L118.311-40.0391C118.311-43.75 115.82-46.2402 112.012-46.2402L102.051-46.2402C98.291-46.2402 95.752-43.75 95.752-40.0391L95.752-38.7207C95.752-35.6445 97.4609-33.3496 100.146-32.666L100.146-10.4492C97.4609-9.7168 95.752-7.4707 95.752-4.44336ZM12.4512 15.4297C12.4512 19.3848 15.7227 22.6562 19.6777 22.6562L118.994 22.6562C122.949 22.6562 126.221 19.3848 126.221 15.4297C126.221 11.4746 122.949 8.20312 118.994 8.20312L19.6777 8.20312C15.7227 8.20312 12.4512 11.4746 12.4512 15.4297Z"/>
  </g>
  <g id="Heavy-M" transform="matrix(1 0 0 1 2568.38 1126)">
   <path d="M22.2656-51.4648L114.355-51.4648C118.359-51.4648 120.996-54.0039 120.996-57.6172C120.996-60.6934 119.531-62.5977 117.188-63.916L75.5371-87.9395C73.2422-89.2578 70.6543-89.9414 68.2617-89.9414C65.8691-89.9414 63.2812-89.2578 61.0352-87.9395L19.4336-63.916C17.0898-62.5977 15.625-60.6934 15.625-57.6172C15.625-54.0039 18.2129-51.4648 22.2656-51.4648ZM46.6309-64.3555L67.627-76.123C67.9199-76.2695 68.1152-76.3184 68.3105-76.3184C68.5059-76.3184 68.7012-76.2695 69.043-76.123L90.0391-64.3555ZM20.4102-2.14844C20.4102 1.2207 22.6074 3.41797 25.9277 3.41797L36.5234 3.41797C39.8438 3.41797 42.041 1.2207 42.041-2.14844L42.041-3.41797C42.041-6.39648 40.2344-8.49609 37.4023-8.83789L37.4023-34.375C40.2344-34.7168 42.041-36.8164 42.041-39.8438L42.041-41.1133C42.041-44.4336 39.8438-46.6309 36.5234-46.6309L25.9277-46.6309C22.6074-46.6309 20.4102-44.4336 20.4102-41.1133L20.4102-39.8438C20.4102-36.7676 22.2168-34.668 25.0977-34.375L25.0977-8.83789C22.2168-8.49609 20.4102-6.39648 20.4102-3.41797ZM45.1172-2.14844C45.1172 1.2207 47.3145 3.41797 50.6348 3.41797L61.2305 3.41797C64.5508 3.41797 66.748 1.2207 66.748-2.14844L66.748-3.41797C66.748-6.39648 64.9414-8.49609 62.1094-8.83789L62.1094-34.375C64.9414-34.7168 66.748-36.8164 66.748-39.8438L66.748-41.1133C66.748-44.4336 64.5508-46.6309 61.2305-46.6309L50.6348-46.6309C47.3145-46.6309 45.1172-44.4336 45.1172-41.1133L45.1172-39.8438C45.1172-36.7676 46.9238-34.668 49.8047-34.375L49.8047-8.83789C46.9238-8.49609 45.1172-6.39648 45.1172-3.41797ZM69.873-2.14844C69.873 1.2207 72.0703 3.41797 75.3906 3.41797L85.9863 3.41797C89.3066 3.41797 91.5039 1.2207 91.5039-2.14844L91.5039-3.41797C91.5039-6.39648 89.6973-8.49609 86.8652-8.83789L86.8652-34.375C89.6973-34.7168 91.5039-36.8164 91.5039-39.8438L91.5039-41.1133C91.5039-44.4336 89.3066-46.6309 85.9863-46.6309L75.3906-46.6309C72.0703-46.6309 69.873-44.4336 69.873-41.1133L69.873-39.8438C69.873-36.7676 71.6797-34.668 74.5605-34.375L74.5605-8.83789C71.6797-8.49609 69.873-6.39648 69.873-3.41797ZM94.5312-2.14844C94.5312 1.2207 96.7285 3.41797 100.098 3.41797L110.693 3.41797C114.014 3.41797 116.211 1.2207 116.211-2.14844L116.211-3.41797C116.211-6.39648 114.404-8.49609 111.572-8.83789L111.572-34.375C114.404-34.7168 116.211-36.8164 116.211-39.8438L116.211-41.1133C116.211-44.4336 114.014-46.6309 110.693-46.6309L100.098-46.6309C96.7285-46.6309 94.5312-44.4336 94.5312-41.1133L94.5312-39.8438C94.5312-36.7676 96.3867-34.668 99.2676-34.375L99.2676-8.83789C96.3867-8.49609 94.5312-6.39648 94.5312-3.41797ZM12.4512 14.6973C12.4512 18.2617 15.3809 21.1426 18.8965 21.1426L117.725 21.1426C121.24 21.1426 124.17 18.2617 124.17 14.6973C124.17 11.1816 121.24 8.25195 117.725 8.25195L18.8965 8.25195C15.3809 8.25195 12.4512 11.1816 12.4512 14.6973Z"/>
  </g>
  <g id="Bold-M" transform="matrix(1 0 0 1 2272.84 1126)">
   <path d="M21.0938-51.6602L113.184-51.6602C116.748-51.6602 118.994-54.0039 118.994-57.0312C118.994-59.5703 117.773-61.2305 115.625-62.4512L73.9258-86.4746C71.7773-87.7441 69.3848-88.4277 67.1387-88.4277C64.8438-88.4277 62.4512-87.7441 60.3027-86.4746L18.6523-62.4512C16.5039-61.2305 15.2832-59.5703 15.2832-57.0312C15.2832-54.0039 17.5293-51.6602 21.0938-51.6602ZM42.0898-62.793L66.0156-76.2207C66.4551-76.4648 66.7969-76.5625 67.1387-76.5625C67.4805-76.5625 67.8711-76.4648 68.2617-76.2207L92.1875-62.793ZM20.6055-1.02539C20.6055 1.85547 22.4121 3.71094 25.293 3.71094L36.5723 3.71094C39.4531 3.71094 41.2598 1.85547 41.2598-1.02539L41.2598-2.24609C41.2598-5.07812 39.4531-6.93359 36.5723-6.93359L36.2793-6.93359L36.2793-36.377L36.5723-36.377C39.4531-36.377 41.2598-38.2324 41.2598-41.1133L41.2598-42.334C41.2598-45.166 39.4531-47.0215 36.5723-47.0215L25.293-47.0215C22.4121-47.0215 20.6055-45.166 20.6055-42.334L20.6055-41.1133C20.6055-38.2324 22.4121-36.377 25.293-36.377L25.6836-36.377L25.6836-6.93359L25.293-6.93359C22.4121-6.93359 20.6055-5.07812 20.6055-2.24609ZM44.7754-1.02539C44.7754 1.85547 46.6309 3.71094 49.5117 3.71094L60.7422 3.71094C63.623 3.71094 65.4785 1.85547 65.4785-1.02539L65.4785-2.24609C65.4785-5.07812 63.623-6.93359 60.7422-6.93359L60.4492-6.93359L60.4492-36.377L60.7422-36.377C63.623-36.377 65.4785-38.2324 65.4785-41.1133L65.4785-42.334C65.4785-45.166 63.623-47.0215 60.7422-47.0215L49.5117-47.0215C46.6309-47.0215 44.7754-45.166 44.7754-42.334L44.7754-41.1133C44.7754-38.2324 46.6309-36.377 49.5117-36.377L49.8535-36.377L49.8535-6.93359L49.5117-6.93359C46.6309-6.93359 44.7754-5.07812 44.7754-2.24609ZM69.043-1.02539C69.043 1.85547 70.8496 3.71094 73.7305 3.71094L84.9609 3.71094C87.8418 3.71094 89.6973 1.85547 89.6973-1.02539L89.6973-2.24609C89.6973-5.07812 87.8418-6.93359 84.9609-6.93359L84.668-6.93359L84.668-36.377L84.9609-36.377C87.8418-36.377 89.6973-38.2324 89.6973-41.1133L89.6973-42.334C89.6973-45.166 87.8418-47.0215 84.9609-47.0215L73.7305-47.0215C70.8496-47.0215 69.043-45.166 69.043-42.334L69.043-41.1133C69.043-38.2324 70.8496-36.377 73.7305-36.377L74.0723-36.377L74.0723-6.93359L73.7305-6.93359C70.8496-6.93359 69.043-5.07812 69.043-2.24609ZM93.2129-1.02539C93.2129 1.85547 95.0195 3.71094 97.9004 3.71094L109.18 3.71094C112.061 3.71094 113.867 1.85547 113.867-1.02539L113.867-2.24609C113.867-5.07812 112.061-6.93359 109.18-6.93359L108.887-6.93359L108.887-36.377L109.18-36.377C112.061-36.377 113.867-38.2324 113.867-41.1133L113.867-42.334C113.867-45.166 112.061-47.0215 109.18-47.0215L97.9004-47.0215C95.0195-47.0215 93.2129-45.166 93.2129-42.334L93.2129-41.1133C93.2129-38.2324 95.0195-36.377 97.9004-36.377L98.291-36.377L98.291-6.93359L97.9004-6.93359C95.0195-6.93359 93.2129-5.07812 93.2129-2.24609ZM12.4512 13.916C12.4512 16.9922 14.9902 19.4824 18.0176 19.4824L116.26 19.4824C119.336 19.4824 121.826 16.9922 121.826 13.916C121.826 10.8887 119.336 8.34961 116.26 8.34961L18.0176 8.34961C14.9902 8.34961 12.4512 10.8887 12.4512 13.916Z"/>
  </g>
  <g id="Semibold-M" transform="matrix(1 0 0 1 1976.91 1126)">
   <path d="M20.2637-51.8066L112.402-51.8066C115.625-51.8066 117.627-53.9551 117.627-56.6406C117.627-58.7891 116.553-60.3027 114.502-61.4746L72.8516-85.498C70.752-86.7188 68.5059-87.3535 66.3086-87.3535C64.1602-87.3535 61.8652-86.6699 59.8145-85.498L18.1641-61.4746C16.1133-60.3027 15.0391-58.7891 15.0391-56.6406C15.0391-53.9551 17.041-51.8066 20.2637-51.8066ZM38.9648-61.7676L64.9414-76.3184C65.4297-76.5625 65.918-76.709 66.3574-76.709C66.7969-76.709 67.2852-76.5625 67.7734-76.3184L93.7012-61.7676ZM20.752-0.244141C20.752 2.29492 22.3145 3.90625 24.8535 3.90625L36.5723 3.90625C39.1602 3.90625 40.7227 2.29492 40.7227-0.244141L40.7227-1.46484C40.7227-3.95508 39.1602-5.56641 36.5723-5.56641L35.498-5.56641L35.498-37.8418L36.5723-37.8418C39.1602-37.8418 40.7227-39.4531 40.7227-41.9922L40.7227-43.2129C40.7227-45.7031 39.1602-47.2656 36.5723-47.2656L24.8535-47.2656C22.3145-47.2656 20.752-45.7031 20.752-43.2129L20.752-41.9922C20.752-39.4531 22.3145-37.8418 24.8535-37.8418L26.0254-37.8418L26.0254-5.56641L24.8535-5.56641C22.3145-5.56641 20.752-3.95508 20.752-1.46484ZM44.5801-0.244141C44.5801 2.29492 46.1426 3.90625 48.6816 3.90625L60.4004 3.90625C62.9883 3.90625 64.5508 2.29492 64.5508-0.244141L64.5508-1.46484C64.5508-3.95508 62.9883-5.56641 60.4004-5.56641L59.3262-5.56641L59.3262-37.8418L60.4004-37.8418C62.9883-37.8418 64.5508-39.4531 64.5508-41.9922L64.5508-43.2129C64.5508-45.7031 62.9883-47.2656 60.4004-47.2656L48.6816-47.2656C46.1426-47.2656 44.5801-45.7031 44.5801-43.2129L44.5801-41.9922C44.5801-39.4531 46.1426-37.8418 48.6816-37.8418L49.8535-37.8418L49.8535-5.56641L48.6816-5.56641C46.1426-5.56641 44.5801-3.95508 44.5801-1.46484ZM68.457-0.244141C68.457 2.29492 70.0195 3.90625 72.6074 3.90625L84.2773 3.90625C86.8652 3.90625 88.4277 2.29492 88.4277-0.244141L88.4277-1.46484C88.4277-3.95508 86.8652-5.56641 84.2773-5.56641L83.2031-5.56641L83.2031-37.8418L84.2773-37.8418C86.8652-37.8418 88.4277-39.4531 88.4277-41.9922L88.4277-43.2129C88.4277-45.7031 86.8652-47.2656 84.2773-47.2656L72.6074-47.2656C70.0195-47.2656 68.457-45.7031 68.457-43.2129L68.457-41.9922C68.457-39.4531 70.0195-37.8418 72.6074-37.8418L73.7793-37.8418L73.7793-5.56641L72.6074-5.56641C70.0195-5.56641 68.457-3.95508 68.457-1.46484ZM92.2852-0.244141C92.2852 2.29492 93.8477 3.90625 96.4355 3.90625L108.105 3.90625C110.693 3.90625 112.256 2.29492 112.256-0.244141L112.256-1.46484C112.256-3.95508 110.693-5.56641 108.105-5.56641L107.031-5.56641L107.031-37.8418L108.105-37.8418C110.693-37.8418 112.256-39.4531 112.256-41.9922L112.256-43.2129C112.256-45.7031 110.693-47.2656 108.105-47.2656L96.4355-47.2656C93.8477-47.2656 92.2852-45.7031 92.2852-43.2129L92.2852-41.9922C92.2852-39.4531 93.8477-37.8418 96.4355-37.8418L97.6074-37.8418L97.6074-5.56641L96.4355-5.56641C93.8477-5.56641 92.2852-3.95508 92.2852-1.46484ZM12.4512 13.3789C12.4512 16.1133 14.6973 18.3594 17.4316 18.3594L115.283 18.3594C118.018 18.3594 120.264 16.1133 120.264 13.3789C120.264 10.6445 118.018 8.39844 115.283 8.39844L17.4316 8.39844C14.6973 8.39844 12.4512 10.6445 12.4512 13.3789Z"/>
  </g>
  <g id="Medium-M" transform="matrix(1 0 0 1 1680.81 1126)">
   <path d="M19.6777-51.9043L111.768-51.9043C114.795-51.9043 116.602-53.9551 116.602-56.3477C116.602-58.1543 115.674-59.6191 113.721-60.6934L72.0215-84.7656C70.0195-85.8887 67.8223-86.5234 65.7227-86.5234C63.623-86.5234 61.4258-85.8887 59.4238-84.7656L17.7734-60.6934C15.8203-59.6191 14.8438-58.1543 14.8438-56.3477C14.8438-53.9551 16.6504-51.9043 19.6777-51.9043ZM36.6211-60.9375L64.1113-76.3672C64.6484-76.6602 65.2344-76.8066 65.7227-76.8066C66.2598-76.8066 66.7969-76.6602 67.3828-76.3672L94.8242-60.9375ZM20.8496 0.341797C20.8496 2.63672 22.2656 4.00391 24.5605 4.00391L36.6211 4.00391C38.916 4.00391 40.332 2.63672 40.332 0.341797L40.332-0.878906C40.332-3.125 38.916-4.49219 36.6211-4.49219L34.8633-4.49219L34.8633-38.916L36.6211-38.916C38.916-38.916 40.332-40.332 40.332-42.627L40.332-43.8477C40.332-46.0938 38.916-47.4609 36.6211-47.4609L24.5605-47.4609C22.2656-47.4609 20.8496-46.0938 20.8496-43.8477L20.8496-42.627C20.8496-40.332 22.2656-38.916 24.5605-38.916L26.3184-38.916L26.3184-4.49219L24.5605-4.49219C22.2656-4.49219 20.8496-3.125 20.8496-0.878906ZM44.3848 0.341797C44.3848 2.63672 45.8008 4.00391 48.0957 4.00391L60.1562 4.00391C62.4512 4.00391 63.8672 2.63672 63.8672 0.341797L63.8672-0.878906C63.8672-3.125 62.4512-4.49219 60.1562-4.49219L58.4473-4.49219L58.4473-38.916L60.1562-38.916C62.4512-38.916 63.8672-40.332 63.8672-42.627L63.8672-43.8477C63.8672-46.0938 62.4512-47.4609 60.1562-47.4609L48.0957-47.4609C45.8008-47.4609 44.3848-46.0938 44.3848-43.8477L44.3848-42.627C44.3848-40.332 45.8008-38.916 48.0957-38.916L49.9023-38.916L49.9023-4.49219L48.0957-4.49219C45.8008-4.49219 44.3848-3.125 44.3848-0.878906ZM68.0176 0.341797C68.0176 2.63672 69.4336 4.00391 71.7285 4.00391L83.7891 4.00391C86.084 4.00391 87.5 2.63672 87.5 0.341797L87.5-0.878906C87.5-3.125 86.084-4.49219 83.7891-4.49219L82.0312-4.49219L82.0312-38.916L83.7891-38.916C86.084-38.916 87.5-40.332 87.5-42.627L87.5-43.8477C87.5-46.0938 86.084-47.4609 83.7891-47.4609L71.7285-47.4609C69.4336-47.4609 68.0176-46.0938 68.0176-43.8477L68.0176-42.627C68.0176-40.332 69.4336-38.916 71.7285-38.916L73.4863-38.916L73.4863-4.49219L71.7285-4.49219C69.4336-4.49219 68.0176-3.125 68.0176-0.878906ZM91.5527 0.341797C91.5527 2.63672 92.9688 4.00391 95.2637 4.00391L107.324 4.00391C109.619 4.00391 111.035 2.63672 111.035 0.341797L111.035-0.878906C111.035-3.125 109.619-4.49219 107.324-4.49219L105.615-4.49219L105.615-38.916L107.324-38.916C109.619-38.916 111.035-40.332 111.035-42.627L111.035-43.8477C111.035-46.0938 109.619-47.4609 107.324-47.4609L95.2637-47.4609C92.9688-47.4609 91.5527-46.0938 91.5527-43.8477L91.5527-42.627C91.5527-40.332 92.9688-38.916 95.2637-38.916L97.0703-38.916L97.0703-4.49219L95.2637-4.49219C92.9688-4.49219 91.5527-3.125 91.5527-0.878906ZM12.4512 12.9883C12.4512 15.4297 14.502 17.4805 16.9922 17.4805L114.502 17.4805C116.992 17.4805 119.043 15.4297 119.043 12.9883C119.043 10.498 116.992 8.44727 114.502 8.44727L16.9922 8.44727C14.502 8.44727 12.4512 10.498 12.4512 12.9883Z"/>
  </g>
  <g id="Regular-M" transform="matrix(1 0 0 1 1384.88 1126)">
   <path d="M18.8965-52.002L110.986-52.002C113.672-52.002 115.234-53.9551 115.234-55.957C115.234-57.4219 114.453-58.6914 112.646-59.7168L70.9473-83.7402C68.9941-84.8633 66.9434-85.4492 64.9414-85.4492C62.9395-85.4492 60.8887-84.8633 58.9355-83.7402L17.2363-59.7168C15.4297-58.6914 14.6484-57.4219 14.6484-55.957C14.6484-53.9551 16.1621-52.002 18.8965-52.002ZM33.5449-59.8633L63.0371-76.416C63.623-76.7578 64.3066-76.9531 64.9414-76.9531C65.5762-76.9531 66.2598-76.7578 66.8457-76.416L96.3379-59.8633ZM20.9961 1.07422C20.9961 3.07617 22.1191 4.19922 24.1211 4.19922L36.6211 4.19922C38.623 4.19922 39.7949 3.07617 39.7949 1.07422L39.7949-0.0976562C39.7949-2.00195 38.623-3.17383 36.6211-3.17383L34.082-3.17383L34.082-40.3809L36.6211-40.3809C38.623-40.3809 39.7949-41.5039 39.7949-43.5059L39.7949-44.6777C39.7949-46.582 38.623-47.7539 36.6211-47.7539L24.1211-47.7539C22.1191-47.7539 20.9961-46.582 20.9961-44.6777L20.9961-43.5059C20.9961-41.5039 22.1191-40.3809 24.1211-40.3809L26.709-40.3809L26.709-3.17383L24.1211-3.17383C22.1191-3.17383 20.9961-2.00195 20.9961-0.0976562ZM44.1895 1.07422C44.1895 3.07617 45.3613 4.19922 47.3145 4.19922L59.8633 4.19922C61.8164 4.19922 62.9883 3.07617 62.9883 1.07422L62.9883-0.0976562C62.9883-2.00195 61.8164-3.17383 59.8633-3.17383L57.3242-3.17383L57.3242-40.3809L59.8633-40.3809C61.8164-40.3809 62.9883-41.5039 62.9883-43.5059L62.9883-44.6777C62.9883-46.582 61.8164-47.7539 59.8633-47.7539L47.3145-47.7539C45.3613-47.7539 44.1895-46.582 44.1895-44.6777L44.1895-43.5059C44.1895-41.5039 45.3613-40.3809 47.3145-40.3809L49.9512-40.3809L49.9512-3.17383L47.3145-3.17383C45.3613-3.17383 44.1895-2.00195 44.1895-0.0976562ZM67.4316 1.07422C67.4316 3.07617 68.6035 4.19922 70.5566 4.19922L83.1055 4.19922C85.0586 4.19922 86.2305 3.07617 86.2305 1.07422L86.2305-0.0976562C86.2305-2.00195 85.0586-3.17383 83.1055-3.17383L80.5664-3.17383L80.5664-40.3809L83.1055-40.3809C85.0586-40.3809 86.2305-41.5039 86.2305-43.5059L86.2305-44.6777C86.2305-46.582 85.0586-47.7539 83.1055-47.7539L70.5566-47.7539C68.6035-47.7539 67.4316-46.582 67.4316-44.6777L67.4316-43.5059C67.4316-41.5039 68.6035-40.3809 70.5566-40.3809L73.1934-40.3809L73.1934-3.17383L70.5566-3.17383C68.6035-3.17383 67.4316-2.00195 67.4316-0.0976562ZM90.6738 1.07422C90.6738 3.07617 91.7969 4.19922 93.7988 4.19922L106.299 4.19922C108.301 4.19922 109.424 3.07617 109.424 1.07422L109.424-0.0976562C109.424-2.00195 108.301-3.17383 106.299-3.17383L103.76-3.17383L103.76-40.3809L106.299-40.3809C108.301-40.3809 109.424-41.5039 109.424-43.5059L109.424-44.6777C109.424-46.582 108.301-47.7539 106.299-47.7539L93.7988-47.7539C91.7969-47.7539 90.6738-46.582 90.6738-44.6777L90.6738-43.5059C90.6738-41.5039 91.7969-40.3809 93.7988-40.3809L96.3867-40.3809L96.3867-3.17383L93.7988-3.17383C91.7969-3.17383 90.6738-2.00195 90.6738-0.0976562ZM12.4512 12.4023C12.4512 14.5508 14.209 16.3574 16.3574 16.3574L113.525 16.3574C115.674 16.3574 117.48 14.5508 117.48 12.4023C117.48 10.2539 115.674 8.49609 113.525 8.49609L16.3574 8.49609C14.209 8.49609 12.4512 10.2539 12.4512 12.4023Z"/>
  </g>
  <g id="Light-M" transform="matrix(1 0 0 1 1089.63 1126)">
   <path d="M17.334-52.9297L109.619-52.9297C111.719-52.9297 112.891-54.3945 112.891-55.957C112.891-57.0312 112.305-58.0566 110.889-58.8379L69.043-82.9102C67.2363-83.9844 65.332-84.4727 63.4766-84.4727C61.6211-84.4727 59.7168-83.9355 57.959-82.9102L16.0645-58.8379C14.6973-58.0566 14.1113-57.0312 14.1113-55.957C14.1113-54.3945 15.2344-52.9297 17.334-52.9297ZM28.6133-58.9844L61.1328-77.2949C61.9141-77.6855 62.7441-77.9297 63.4766-77.9297C64.3066-77.9297 65.0879-77.6855 65.8203-77.2949L98.3887-58.9844ZM20.2637 2.00195C20.2637 3.51562 21.1914 4.39453 22.6562 4.39453L35.2051 4.39453C36.7188 4.39453 37.5977 3.51562 37.5977 2.00195L37.5977 1.02539C37.5977-0.439453 36.7188-1.31836 35.2051-1.31836L31.8359-1.31836L31.8359-42.2852L35.2051-42.2852C36.7188-42.2852 37.5977-43.1641 37.5977-44.6777L37.5977-45.6543C37.5977-47.1191 36.7188-47.998 35.2051-47.998L22.6562-47.998C21.1914-47.998 20.2637-47.1191 20.2637-45.6543L20.2637-44.6777C20.2637-43.1641 21.1914-42.2852 22.6562-42.2852L26.123-42.2852L26.123-1.31836L22.6562-1.31836C21.1914-1.31836 20.2637-0.439453 20.2637 1.02539ZM43.457 2.00195C43.457 3.51562 44.3359 4.39453 45.8496 4.39453L58.3496 4.39453C59.8633 4.39453 60.7422 3.51562 60.7422 2.00195L60.7422 1.02539C60.7422-0.439453 59.8633-1.31836 58.3496-1.31836L54.9805-1.31836L54.9805-42.2852L58.3496-42.2852C59.8633-42.2852 60.7422-43.1641 60.7422-44.6777L60.7422-45.6543C60.7422-47.1191 59.8633-47.998 58.3496-47.998L45.8496-47.998C44.3359-47.998 43.457-47.1191 43.457-45.6543L43.457-44.6777C43.457-43.1641 44.3359-42.2852 45.8496-42.2852L49.2676-42.2852L49.2676-1.31836L45.8496-1.31836C44.3359-1.31836 43.457-0.439453 43.457 1.02539ZM66.6504 2.00195C66.6504 3.51562 67.5293 4.39453 68.9941 4.39453L81.543 4.39453C83.0566 4.39453 83.9355 3.51562 83.9355 2.00195L83.9355 1.02539C83.9355-0.439453 83.0566-1.31836 81.543-1.31836L78.1738-1.31836L78.1738-42.2852L81.543-42.2852C83.0566-42.2852 83.9355-43.1641 83.9355-44.6777L83.9355-45.6543C83.9355-47.1191 83.0566-47.998 81.543-47.998L68.9941-47.998C67.5293-47.998 66.6504-47.1191 66.6504-45.6543L66.6504-44.6777C66.6504-43.1641 67.5293-42.2852 68.9941-42.2852L72.4609-42.2852L72.4609-1.31836L68.9941-1.31836C67.5293-1.31836 66.6504-0.439453 66.6504 1.02539ZM89.7949 2.00195C89.7949 3.51562 90.6738 4.39453 92.1875 4.39453L104.688 4.39453C106.201 4.39453 107.08 3.51562 107.08 2.00195L107.08 1.02539C107.08-0.439453 106.201-1.31836 104.688-1.31836L101.318-1.31836L101.318-42.2852L104.688-42.2852C106.201-42.2852 107.08-43.1641 107.08-44.6777L107.08-45.6543C107.08-47.1191 106.201-47.998 104.688-47.998L92.1875-47.998C90.6738-47.998 89.7949-47.1191 89.7949-45.6543L89.7949-44.6777C89.7949-43.1641 90.6738-42.2852 92.1875-42.2852L95.6055-42.2852L95.6055-1.31836L92.1875-1.31836C90.6738-1.31836 89.7949-0.439453 89.7949 1.02539ZM12.4512 12.3535C12.4512 14.0137 13.8184 15.3809 15.4785 15.3809L111.572 15.3809C113.184 15.3809 114.551 14.0137 114.551 12.3535C114.551 10.6934 113.184 9.32617 111.572 9.32617L15.4785 9.32617C13.8184 9.32617 12.4512 10.6934 12.4512 12.3535Z"/>
  </g>
  <g id="Thin-M" transform="matrix(1 0 0 1 794.826 1126)">
   <path d="M15.332-54.1504L107.861-54.1504C109.131-54.1504 109.766-54.9805 109.766-55.957C109.766-56.543 109.473-57.2266 108.643-57.666L66.5527-81.8359C64.9414-82.7637 63.2324-83.2031 61.5723-83.2031C59.8633-83.2031 58.1543-82.7148 56.6406-81.8359L14.5508-57.666C13.7207-57.2266 13.4277-56.543 13.4277-55.957C13.4277-54.9805 14.0137-54.1504 15.332-54.1504ZM22.0703-57.7637L58.6914-78.4668C59.5703-78.9551 60.6445-79.248 61.5723-79.248C62.5977-79.248 63.5742-78.9551 64.502-78.4668L101.123-57.7637ZM19.3848 3.22266C19.3848 4.10156 19.9219 4.63867 20.752 4.63867L33.3008 4.63867C34.1309 4.63867 34.668 4.10156 34.668 3.22266L34.668 2.44141C34.668 1.66016 34.1309 1.12305 33.3008 1.12305L28.8086 1.12305L28.8086-44.7754L33.3008-44.7754C34.1309-44.7754 34.668-45.3125 34.668-46.1914L34.668-46.9727C34.668-47.8027 34.1309-48.3398 33.3008-48.3398L20.752-48.3398C19.9219-48.3398 19.3848-47.8027 19.3848-46.9727L19.3848-46.1914C19.3848-45.3125 19.9219-44.7754 20.752-44.7754L25.293-44.7754L25.293 1.12305L20.752 1.12305C19.9219 1.12305 19.3848 1.66016 19.3848 2.44141ZM42.4805 3.22266C42.4805 4.10156 43.0176 4.63867 43.8477 4.63867L56.3965 4.63867C57.2266 4.63867 57.7637 4.10156 57.7637 3.22266L57.7637 2.44141C57.7637 1.66016 57.2266 1.12305 56.3965 1.12305L51.9043 1.12305L51.9043-44.7754L56.3965-44.7754C57.2266-44.7754 57.7637-45.3125 57.7637-46.1914L57.7637-46.9727C57.7637-47.8027 57.2266-48.3398 56.3965-48.3398L43.8477-48.3398C43.0176-48.3398 42.4805-47.8027 42.4805-46.9727L42.4805-46.1914C42.4805-45.3125 43.0176-44.7754 43.8477-44.7754L48.3887-44.7754L48.3887 1.12305L43.8477 1.12305C43.0176 1.12305 42.4805 1.66016 42.4805 2.44141ZM65.5762 3.22266C65.5762 4.10156 66.1133 4.63867 66.9434 4.63867L79.4922 4.63867C80.3223 4.63867 80.8594 4.10156 80.8594 3.22266L80.8594 2.44141C80.8594 1.66016 80.3223 1.12305 79.4922 1.12305L75 1.12305L75-44.7754L79.4922-44.7754C80.3223-44.7754 80.8594-45.3125 80.8594-46.1914L80.8594-46.9727C80.8594-47.8027 80.3223-48.3398 79.4922-48.3398L66.9434-48.3398C66.1133-48.3398 65.5762-47.8027 65.5762-46.9727L65.5762-46.1914C65.5762-45.3125 66.1133-44.7754 66.9434-44.7754L71.4844-44.7754L71.4844 1.12305L66.9434 1.12305C66.1133 1.12305 65.5762 1.66016 65.5762 2.44141ZM88.6719 3.22266C88.6719 4.10156 89.209 4.63867 90.0391 4.63867L102.588 4.63867C103.418 4.63867 103.955 4.10156 103.955 3.22266L103.955 2.44141C103.955 1.66016 103.418 1.12305 102.588 1.12305L98.0957 1.12305L98.0957-44.7754L102.588-44.7754C103.418-44.7754 103.955-45.3125 103.955-46.1914L103.955-46.9727C103.955-47.8027 103.418-48.3398 102.588-48.3398L90.0391-48.3398C89.209-48.3398 88.6719-47.8027 88.6719-46.9727L88.6719-46.1914C88.6719-45.3125 89.209-44.7754 90.0391-44.7754L94.5801-44.7754L94.5801 1.12305L90.0391 1.12305C89.209 1.12305 88.6719 1.66016 88.6719 2.44141ZM12.4512 12.2559C12.4512 13.2812 13.2812 14.0625 14.2578 14.0625L108.936 14.0625C109.912 14.0625 110.742 13.2812 110.742 12.2559C110.742 11.2793 109.912 10.4492 108.936 10.4492L14.2578 10.4492C13.2812 10.4492 12.4512 11.2793 12.4512 12.2559Z"/>
  </g>
  <g id="Ultralight-M" transform="matrix(1 0 0 1 499.091 1126)">
   <path d="M14.3066-54.7363L106.934-54.7363C107.812-54.7363 108.154-55.2734 108.154-55.957C108.154-56.2988 108.008-56.7871 107.471-57.0801L65.2832-81.25C63.7695-82.1289 62.1582-82.5684 60.5957-82.5684C58.9844-82.5684 57.373-82.0801 55.957-81.25L13.7695-57.0801C13.2324-56.7871 13.0371-56.2988 13.0371-55.957C13.0371-55.2734 13.3789-54.7363 14.3066-54.7363ZM18.7012-57.1289L57.4219-79.0527C58.3984-79.6387 59.5215-79.9316 60.5957-79.9316C61.7188-79.9316 62.793-79.6387 63.8184-79.0527L102.49-57.1289ZM18.8965 3.85742C18.8965 4.39453 19.2383 4.78516 19.7754 4.78516L32.3242 4.78516C32.8613 4.78516 33.2031 4.39453 33.2031 3.85742L33.2031 3.17383C33.2031 2.73438 32.8613 2.34375 32.3242 2.34375L27.2949 2.34375L27.2949-46.0938L32.3242-46.0938C32.8613-46.0938 33.2031-46.4355 33.2031-46.9727L33.2031-47.6562C33.2031-48.1445 32.8613-48.4863 32.3242-48.4863L19.7754-48.4863C19.2383-48.4863 18.8965-48.1445 18.8965-47.6562L18.8965-46.9727C18.8965-46.4355 19.2383-46.0938 19.7754-46.0938L24.9023-46.0938L24.9023 2.34375L19.7754 2.34375C19.2383 2.34375 18.8965 2.73438 18.8965 3.17383ZM41.9434 3.85742C41.9434 4.39453 42.334 4.78516 42.8223 4.78516L55.3711 4.78516C55.9082 4.78516 56.25 4.39453 56.25 3.85742L56.25 3.17383C56.25 2.73438 55.9082 2.34375 55.3711 2.34375L50.3418 2.34375L50.3418-46.0938L55.3711-46.0938C55.9082-46.0938 56.25-46.4355 56.25-46.9727L56.25-47.6562C56.25-48.1445 55.9082-48.4863 55.3711-48.4863L42.8223-48.4863C42.334-48.4863 41.9434-48.1445 41.9434-47.6562L41.9434-46.9727C41.9434-46.4355 42.334-46.0938 42.8223-46.0938L47.9492-46.0938L47.9492 2.34375L42.8223 2.34375C42.334 2.34375 41.9434 2.73438 41.9434 3.17383ZM64.9902 3.85742C64.9902 4.39453 65.3809 4.78516 65.918 4.78516L78.418 4.78516C78.9551 4.78516 79.3457 4.39453 79.3457 3.85742L79.3457 3.17383C79.3457 2.73438 78.9551 2.34375 78.418 2.34375L73.3887 2.34375L73.3887-46.0938L78.418-46.0938C78.9551-46.0938 79.3457-46.4355 79.3457-46.9727L79.3457-47.6562C79.3457-48.1445 78.9551-48.4863 78.418-48.4863L65.918-48.4863C65.3809-48.4863 64.9902-48.1445 64.9902-47.6562L64.9902-46.9727C64.9902-46.4355 65.3809-46.0938 65.918-46.0938L70.9961-46.0938L70.9961 2.34375L65.918 2.34375C65.3809 2.34375 64.9902 2.73438 64.9902 3.17383ZM88.0859 3.85742C88.0859 4.39453 88.4277 4.78516 88.9648 4.78516L101.465 4.78516C102.002 4.78516 102.393 4.39453 102.393 3.85742L102.393 3.17383C102.393 2.73438 102.002 2.34375 101.465 2.34375L96.4355 2.34375L96.4355-46.0938L101.465-46.0938C102.002-46.0938 102.393-46.4355 102.393-46.9727L102.393-47.6562C102.393-48.1445 102.002-48.4863 101.465-48.4863L88.9648-48.4863C88.4277-48.4863 88.0859-48.1445 88.0859-47.6562L88.0859-46.9727C88.0859-46.4355 88.4277-46.0938 88.9648-46.0938L94.043-46.0938L94.043 2.34375L88.9648 2.34375C88.4277 2.34375 88.0859 2.73438 88.0859 3.17383ZM12.4512 12.207C12.4512 12.8906 12.9883 13.4277 13.623 13.4277L107.568 13.4277C108.252 13.4277 108.789 12.8906 108.789 12.207C108.789 11.5723 108.252 11.0352 107.568 11.0352L13.623 11.0352C12.9883 11.0352 12.4512 11.5723 12.4512 12.207Z"/>
  </g>
  <g id="Black-S" transform="matrix(1 0 0 1 2879.13 696)">
   <path d="M18.2129-47.8027L90.332-47.8027C93.7988-47.8027 96.0938-49.9512 96.0938-53.125C96.0938-55.9082 94.7754-57.5195 92.8223-58.6426L60.2051-77.4414C58.3496-78.5156 56.2012-79.1016 54.248-79.1016C52.2949-79.1016 50.1465-78.5156 48.291-77.4414L15.7227-58.6426C13.7695-57.5195 12.4512-55.9082 12.4512-53.125C12.4512-49.9512 14.7461-47.8027 18.2129-47.8027ZM39.4531-59.0332L54.0039-67.1875C54.1992-67.2852 54.248-67.2852 54.2969-67.2852C54.3457-67.2852 54.3945-67.2852 54.5898-67.1875L69.1406-59.0332ZM15.8691-10.0098C15.8691-7.08008 17.8223-5.12695 20.752-5.12695L28.6133-5.12695C31.543-5.12695 33.4961-7.08008 33.4961-10.0098L33.4961-11.0352C33.4961-13.4277 32.1777-15.1367 30.0781-15.6738L30.0781-33.3496C32.1777-33.8867 33.4961-35.6445 33.4961-38.0371L33.4961-39.0625C33.4961-41.9434 31.543-43.8965 28.6133-43.8965L20.752-43.8965C17.8223-43.8965 15.8691-41.9434 15.8691-39.0625L15.8691-38.0371C15.8691-35.5957 17.1875-33.8379 19.3359-33.3008L19.3359-15.7227C17.1875-15.1855 15.8691-13.4277 15.8691-11.0352ZM35.5469-10.0098C35.5469-7.08008 37.5-5.12695 40.4297-5.12695L48.291-5.12695C51.2207-5.12695 53.1738-7.08008 53.1738-10.0098L53.1738-11.0352C53.1738-13.4277 51.8555-15.1367 49.7559-15.6738L49.7559-33.3496C51.8555-33.8867 53.1738-35.6445 53.1738-38.0371L53.1738-39.0625C53.1738-41.9434 51.2207-43.8965 48.291-43.8965L40.4297-43.8965C37.5-43.8965 35.5469-41.9434 35.5469-39.0625L35.5469-38.0371C35.5469-35.5957 36.8652-33.8379 39.0137-33.3008L39.0137-15.7227C36.8652-15.1855 35.5469-13.4277 35.5469-11.0352ZM55.2734-10.0098C55.2734-7.08008 57.2266-5.12695 60.1562-5.12695L68.0176-5.12695C70.9473-5.12695 72.9004-7.08008 72.9004-10.0098L72.9004-11.0352C72.9004-13.4277 71.582-15.1367 69.4824-15.6738L69.4824-33.3496C71.582-33.8867 72.9004-35.6445 72.9004-38.0371L72.9004-39.0625C72.9004-41.9434 70.9473-43.8965 68.0176-43.8965L60.1562-43.8965C57.2266-43.8965 55.2734-41.9434 55.2734-39.0625L55.2734-38.0371C55.2734-35.5957 56.5918-33.8379 58.7402-33.3008L58.7402-15.7227C56.5918-15.1855 55.2734-13.4277 55.2734-11.0352ZM74.9512-10.0098C74.9512-7.08008 76.9043-5.12695 79.834-5.12695L87.6953-5.12695C90.625-5.12695 92.5781-7.08008 92.5781-10.0098L92.5781-11.0352C92.5781-13.4277 91.2598-15.1367 89.1602-15.6738L89.1602-33.3496C91.2598-33.8867 92.5781-35.6445 92.5781-38.0371L92.5781-39.0625C92.5781-41.9434 90.625-43.8965 87.6953-43.8965L79.834-43.8965C76.9043-43.8965 74.9512-41.9434 74.9512-39.0625L74.9512-38.0371C74.9512-35.5957 76.2695-33.8379 78.418-33.3008L78.418-15.7227C76.2695-15.1855 74.9512-13.4277 74.9512-11.0352ZM9.76562 4.39453C9.76562 7.4707 12.3047 10.0098 15.3809 10.0098L93.1641 10.0098C96.2402 10.0098 98.7793 7.4707 98.7793 4.39453C98.7793 1.31836 96.2402-1.2207 93.1641-1.2207L15.3809-1.2207C12.3047-1.2207 9.76562 1.31836 9.76562 4.39453Z"/>
  </g>
  <g id="Heavy-S" transform="matrix(1 0 0 1 2583.05 696)">
   <path d="M17.5781-47.8516L89.6973-47.8516C92.9199-47.8516 94.9707-49.9023 94.9707-52.7344C94.9707-55.1758 93.7988-56.6895 91.9434-57.7637L59.3262-76.5625C57.5195-77.5879 55.5176-78.125 53.6133-78.125C51.7578-78.125 49.707-77.5879 47.9004-76.5625L15.332-57.7637C13.4766-56.6895 12.3047-55.1758 12.3047-52.7344C12.3047-49.9023 14.3555-47.8516 17.5781-47.8516ZM36.9141-58.0566L53.125-67.1387C53.3691-67.2852 53.5156-67.334 53.6621-67.334C53.8086-67.334 53.9551-67.2852 54.1992-67.1387L70.4102-58.0566ZM16.0645-9.375C16.0645-6.68945 17.8223-4.98047 20.459-4.98047L28.8086-4.98047C31.4453-4.98047 33.2031-6.68945 33.2031-9.375L33.2031-10.3516C33.2031-12.7441 31.7871-14.3555 29.541-14.6484L29.541-34.4238C31.7871-34.7168 33.2031-36.377 33.2031-38.7695L33.2031-39.7949C33.2031-42.3828 31.4453-44.1406 28.8086-44.1406L20.459-44.1406C17.8223-44.1406 16.0645-42.3828 16.0645-39.7949L16.0645-38.7695C16.0645-36.3281 17.5293-34.7168 19.7754-34.4238L19.7754-14.6973C17.5293-14.4043 16.0645-12.7441 16.0645-10.3516ZM35.4004-9.375C35.4004-6.68945 37.1582-4.98047 39.7949-4.98047L48.1445-4.98047C50.7812-4.98047 52.5391-6.68945 52.5391-9.375L52.5391-10.3516C52.5391-12.7441 51.123-14.3555 48.877-14.6484L48.877-34.4238C51.123-34.7168 52.5391-36.377 52.5391-38.7695L52.5391-39.7949C52.5391-42.3828 50.7812-44.1406 48.1445-44.1406L39.7949-44.1406C37.1582-44.1406 35.4004-42.3828 35.4004-39.7949L35.4004-38.7695C35.4004-36.3281 36.8652-34.7168 39.1113-34.4238L39.1113-14.6973C36.8652-14.4043 35.4004-12.7441 35.4004-10.3516ZM54.7852-9.375C54.7852-6.68945 56.543-4.98047 59.1797-4.98047L67.5293-4.98047C70.166-4.98047 71.9238-6.68945 71.9238-9.375L71.9238-10.3516C71.9238-12.7441 70.5078-14.3555 68.2617-14.6484L68.2617-34.4238C70.5078-34.7168 71.9238-36.377 71.9238-38.7695L71.9238-39.7949C71.9238-42.3828 70.166-44.1406 67.5293-44.1406L59.1797-44.1406C56.543-44.1406 54.7852-42.3828 54.7852-39.7949L54.7852-38.7695C54.7852-36.3281 56.25-34.7168 58.4961-34.4238L58.4961-14.6973C56.25-14.4043 54.7852-12.7441 54.7852-10.3516ZM74.1211-9.375C74.1211-6.68945 75.8789-4.98047 78.5156-4.98047L86.8652-4.98047C89.502-4.98047 91.2598-6.68945 91.2598-9.375L91.2598-10.3516C91.2598-12.7441 89.7949-14.3555 87.5977-14.6484L87.5977-34.4238C89.7949-34.7168 91.2598-36.377 91.2598-38.7695L91.2598-39.7949C91.2598-42.3828 89.502-44.1406 86.8652-44.1406L78.5156-44.1406C75.8789-44.1406 74.1211-42.3828 74.1211-39.7949L74.1211-38.7695C74.1211-36.3281 75.5859-34.7168 77.832-34.4238L77.832-14.6973C75.5859-14.4043 74.1211-12.7441 74.1211-10.3516ZM9.76562 3.85742C9.76562 6.68945 12.0605 8.98438 14.8926 8.98438L92.3828 8.98438C95.2148 8.98438 97.5098 6.68945 97.5098 3.85742C97.5098 1.07422 95.2148-1.26953 92.3828-1.26953L14.8926-1.26953C12.0605-1.26953 9.76562 1.07422 9.76562 3.85742Z"/>
  </g>
  <g id="Bold-S" transform="matrix(1 0 0 1 2287.05 696)">
   <path d="M16.8945-47.8516L88.9648-47.8516C91.8945-47.8516 93.75-49.8047 93.75-52.2949C93.75-54.3457 92.7734-55.7129 90.9668-56.7383L58.3496-75.5371C56.6406-76.5625 54.6875-77.0508 52.9297-77.0508C51.123-77.0508 49.2188-76.5625 47.4609-75.5371L14.8926-56.7383C13.0859-55.7129 12.1094-54.3457 12.1094-52.2949C12.1094-49.8047 13.9648-47.8516 16.8945-47.8516ZM34.082-57.0312L52.1484-67.1387C52.4414-67.2852 52.6855-67.3828 52.9297-67.3828C53.1738-67.3828 53.418-67.2852 53.7109-67.1387L71.8262-57.0312ZM16.3086-8.64258C16.3086-6.25 17.8223-4.78516 20.166-4.78516L29.0039-4.78516C31.3477-4.78516 32.8613-6.25 32.8613-8.64258L32.8613-9.61914C32.8613-11.9629 31.3477-13.4277 29.0039-13.4277L28.9551-13.4277L28.9551-35.7422L29.0039-35.7422C31.3477-35.7422 32.8613-37.2559 32.8613-39.5996L32.8613-40.625C32.8613-42.9199 31.3477-44.3848 29.0039-44.3848L20.166-44.3848C17.8223-44.3848 16.3086-42.9199 16.3086-40.625L16.3086-39.5996C16.3086-37.2559 17.8223-35.7422 20.166-35.7422L20.3125-35.7422L20.3125-13.4277L20.166-13.4277C17.8223-13.4277 16.3086-11.9629 16.3086-9.61914ZM35.2539-8.64258C35.2539-6.25 36.7676-4.78516 39.1113-4.78516L47.9492-4.78516C50.293-4.78516 51.8066-6.25 51.8066-8.64258L51.8066-9.61914C51.8066-11.9629 50.293-13.4277 47.9492-13.4277L47.9004-13.4277L47.9004-35.7422L47.9492-35.7422C50.293-35.7422 51.8066-37.2559 51.8066-39.5996L51.8066-40.625C51.8066-42.9199 50.293-44.3848 47.9492-44.3848L39.1113-44.3848C36.7676-44.3848 35.2539-42.9199 35.2539-40.625L35.2539-39.5996C35.2539-37.2559 36.7676-35.7422 39.1113-35.7422L39.209-35.7422L39.209-13.4277L39.1113-13.4277C36.7676-13.4277 35.2539-11.9629 35.2539-9.61914ZM54.248-8.64258C54.248-6.25 55.7617-4.78516 58.1055-4.78516L66.9434-4.78516C69.2871-4.78516 70.8008-6.25 70.8008-8.64258L70.8008-9.61914C70.8008-11.9629 69.2871-13.4277 66.9434-13.4277L66.8945-13.4277L66.8945-35.7422L66.9434-35.7422C69.2871-35.7422 70.8008-37.2559 70.8008-39.5996L70.8008-40.625C70.8008-42.9199 69.2871-44.3848 66.9434-44.3848L58.1055-44.3848C55.7617-44.3848 54.248-42.9199 54.248-40.625L54.248-39.5996C54.248-37.2559 55.7617-35.7422 58.1055-35.7422L58.2031-35.7422L58.2031-13.4277L58.1055-13.4277C55.7617-13.4277 54.248-11.9629 54.248-9.61914ZM73.1934-8.64258C73.1934-6.25 74.707-4.78516 77.0508-4.78516L85.8887-4.78516C88.2324-4.78516 89.7461-6.25 89.7461-8.64258L89.7461-9.61914C89.7461-11.9629 88.2324-13.4277 85.8887-13.4277L85.8398-13.4277L85.8398-35.7422L85.8887-35.7422C88.2324-35.7422 89.7461-37.2559 89.7461-39.5996L89.7461-40.625C89.7461-42.9199 88.2324-44.3848 85.8887-44.3848L77.0508-44.3848C74.707-44.3848 73.1934-42.9199 73.1934-40.625L73.1934-39.5996C73.1934-37.2559 74.707-35.7422 77.0508-35.7422L77.1484-35.7422L77.1484-13.4277L77.0508-13.4277C74.707-13.4277 73.1934-11.9629 73.1934-9.61914ZM9.76562 3.27148C9.76562 5.76172 11.8164 7.8125 14.3555 7.8125L91.5527 7.8125C94.043 7.8125 96.0938 5.76172 96.0938 3.27148C96.0938 0.78125 94.043-1.31836 91.5527-1.31836L14.3555-1.31836C11.8164-1.31836 9.76562 0.78125 9.76562 3.27148Z"/>
  </g>
  <g id="Semibold-S" transform="matrix(1 0 0 1 1990.8 696)">
   <path d="M16.4062-47.9004L88.4766-47.9004C91.2109-47.9004 92.9199-49.7559 92.9199-52.002C92.9199-53.7598 92.041-55.0781 90.2832-56.0547L57.666-74.8535C56.0059-75.8301 54.1504-76.3184 52.4414-76.3184C50.6836-76.3184 48.877-75.8301 47.168-74.8535L14.5996-56.0547C12.8418-55.0781 11.9629-53.7598 11.9629-52.002C11.9629-49.7559 13.6719-47.9004 16.4062-47.9004ZM32.0801-56.25L51.4648-67.0898C51.8066-67.2852 52.1484-67.3828 52.4414-67.3828C52.7344-67.3828 53.0762-67.2852 53.418-67.0898L72.8027-56.25ZM16.5039-8.10547C16.5039-5.95703 17.8223-4.63867 19.9707-4.63867L29.1504-4.63867C31.2988-4.63867 32.6172-5.95703 32.6172-8.10547L32.6172-9.13086C32.6172-11.2305 31.2988-12.5488 29.1504-12.5488L28.5156-12.5488L28.5156-36.6699L29.1504-36.6699C31.2988-36.6699 32.6172-37.9883 32.6172-40.1367L32.6172-41.1621C32.6172-43.2617 31.2988-44.5801 29.1504-44.5801L19.9707-44.5801C17.8223-44.5801 16.5039-43.2617 16.5039-41.1621L16.5039-40.1367C16.5039-37.9883 17.8223-36.6699 19.9707-36.6699L20.6543-36.6699L20.6543-12.5488L19.9707-12.5488C17.8223-12.5488 16.5039-11.2305 16.5039-9.13086ZM35.1562-8.10547C35.1562-5.95703 36.4746-4.63867 38.623-4.63867L47.8516-4.63867C50-4.63867 51.3184-5.95703 51.3184-8.10547L51.3184-9.13086C51.3184-11.2305 50-12.5488 47.8516-12.5488L47.2168-12.5488L47.2168-36.6699L47.8516-36.6699C50-36.6699 51.3184-37.9883 51.3184-40.1367L51.3184-41.1621C51.3184-43.2617 50-44.5801 47.8516-44.5801L38.623-44.5801C36.4746-44.5801 35.1562-43.2617 35.1562-41.1621L35.1562-40.1367C35.1562-37.9883 36.4746-36.6699 38.623-36.6699L39.3066-36.6699L39.3066-12.5488L38.623-12.5488C36.4746-12.5488 35.1562-11.2305 35.1562-9.13086ZM53.9062-8.10547C53.9062-5.95703 55.2246-4.63867 57.373-4.63867L66.5527-4.63867C68.7012-4.63867 70.0195-5.95703 70.0195-8.10547L70.0195-9.13086C70.0195-11.2305 68.7012-12.5488 66.5527-12.5488L65.918-12.5488L65.918-36.6699L66.5527-36.6699C68.7012-36.6699 70.0195-37.9883 70.0195-40.1367L70.0195-41.1621C70.0195-43.2617 68.7012-44.5801 66.5527-44.5801L57.373-44.5801C55.2246-44.5801 53.9062-43.2617 53.9062-41.1621L53.9062-40.1367C53.9062-37.9883 55.2246-36.6699 57.373-36.6699L58.0078-36.6699L58.0078-12.5488L57.373-12.5488C55.2246-12.5488 53.9062-11.2305 53.9062-9.13086ZM72.5586-8.10547C72.5586-5.95703 73.877-4.63867 76.0254-4.63867L85.2051-4.63867C87.3535-4.63867 88.7207-5.95703 88.7207-8.10547L88.7207-9.13086C88.7207-11.2305 87.3535-12.5488 85.2051-12.5488L84.6191-12.5488L84.6191-36.6699L85.2051-36.6699C87.3535-36.6699 88.7207-37.9883 88.7207-40.1367L88.7207-41.1621C88.7207-43.2617 87.3535-44.5801 85.2051-44.5801L76.0254-44.5801C73.877-44.5801 72.5586-43.2617 72.5586-41.1621L72.5586-40.1367C72.5586-37.9883 73.877-36.6699 76.0254-36.6699L76.709-36.6699L76.709-12.5488L76.0254-12.5488C73.877-12.5488 72.5586-11.2305 72.5586-9.13086ZM9.76562 2.83203C9.76562 5.12695 11.6699 7.03125 13.9648 7.03125L90.9668 7.03125C93.2617 7.03125 95.166 5.12695 95.166 2.83203C95.166 0.585938 93.2617-1.31836 90.9668-1.31836L13.9648-1.31836C11.6699-1.31836 9.76562 0.585938 9.76562 2.83203Z"/>
  </g>
  <g id="Medium-S" transform="matrix(1 0 0 1 1694.48 696)">
   <path d="M16.0156-47.9004L88.1348-47.9004C90.7227-47.9004 92.2852-49.707 92.2852-51.7578C92.2852-53.3203 91.4551-54.541 89.7461-55.5176L57.1777-74.3164C55.5176-75.293 53.7598-75.7812 52.0508-75.7812C50.3906-75.7812 48.584-75.293 46.9727-74.3164L14.3555-55.5176C12.6953-54.541 11.8652-53.3203 11.8652-51.7578C11.8652-49.707 13.4277-47.9004 16.0156-47.9004ZM30.6152-55.7129L50.9766-67.0898C51.3184-67.2852 51.709-67.4316 52.0508-67.4316C52.4414-67.4316 52.832-67.2852 53.1738-67.0898L73.5352-55.7129ZM16.6016-7.71484C16.6016-5.76172 17.8223-4.54102 19.8242-4.54102L29.248-4.54102C31.25-4.54102 32.4707-5.76172 32.4707-7.71484L32.4707-8.74023C32.4707-10.6934 31.25-11.8652 29.248-11.8652L28.2227-11.8652L28.2227-37.4023L29.248-37.4023C31.25-37.4023 32.4707-38.623 32.4707-40.5762L32.4707-41.6016C32.4707-43.5059 31.25-44.7266 29.248-44.7266L19.8242-44.7266C17.8223-44.7266 16.6016-43.5059 16.6016-41.6016L16.6016-40.5762C16.6016-38.623 17.8223-37.4023 19.8242-37.4023L20.8984-37.4023L20.8984-11.8652L19.8242-11.8652C17.8223-11.8652 16.6016-10.6934 16.6016-8.74023ZM35.1074-7.71484C35.1074-5.76172 36.2793-4.54102 38.2812-4.54102L47.7539-4.54102C49.707-4.54102 50.9277-5.76172 50.9277-7.71484L50.9277-8.74023C50.9277-10.6934 49.707-11.8652 47.7539-11.8652L46.6797-11.8652L46.6797-37.4023L47.7539-37.4023C49.707-37.4023 50.9277-38.623 50.9277-40.5762L50.9277-41.6016C50.9277-43.5059 49.707-44.7266 47.7539-44.7266L38.2812-44.7266C36.2793-44.7266 35.1074-43.5059 35.1074-41.6016L35.1074-40.5762C35.1074-38.623 36.2793-37.4023 38.2812-37.4023L39.3555-37.4023L39.3555-11.8652L38.2812-11.8652C36.2793-11.8652 35.1074-10.6934 35.1074-8.74023ZM53.6133-7.71484C53.6133-5.76172 54.7852-4.54102 56.7871-4.54102L66.2598-4.54102C68.2617-4.54102 69.4336-5.76172 69.4336-7.71484L69.4336-8.74023C69.4336-10.6934 68.2617-11.8652 66.2598-11.8652L65.2344-11.8652L65.2344-37.4023L66.2598-37.4023C68.2617-37.4023 69.4336-38.623 69.4336-40.5762L69.4336-41.6016C69.4336-43.5059 68.2617-44.7266 66.2598-44.7266L56.7871-44.7266C54.7852-44.7266 53.6133-43.5059 53.6133-41.6016L53.6133-40.5762C53.6133-38.623 54.7852-37.4023 56.7871-37.4023L57.9102-37.4023L57.9102-11.8652L56.7871-11.8652C54.7852-11.8652 53.6133-10.6934 53.6133-8.74023ZM72.0703-7.71484C72.0703-5.76172 73.291-4.54102 75.2441-4.54102L84.7168-4.54102C86.7188-4.54102 87.8906-5.76172 87.8906-7.71484L87.8906-8.74023C87.8906-10.6934 86.7188-11.8652 84.7168-11.8652L83.6914-11.8652L83.6914-37.4023L84.7168-37.4023C86.7188-37.4023 87.8906-38.623 87.8906-40.5762L87.8906-41.6016C87.8906-43.5059 86.7188-44.7266 84.7168-44.7266L75.2441-44.7266C73.291-44.7266 72.0703-43.5059 72.0703-41.6016L72.0703-40.5762C72.0703-38.623 73.291-37.4023 75.2441-37.4023L76.3672-37.4023L76.3672-11.8652L75.2441-11.8652C73.291-11.8652 72.0703-10.6934 72.0703-8.74023ZM9.76562 2.53906C9.76562 4.6875 11.5234 6.44531 13.6719 6.44531L90.5273 6.44531C92.627 6.44531 94.3848 4.6875 94.3848 2.53906C94.3848 0.390625 92.627-1.36719 90.5273-1.36719L13.6719-1.36719C11.5234-1.36719 9.76562 0.390625 9.76562 2.53906Z"/>
  </g>
  <g id="Regular-S" transform="matrix(1 0 0 1 1398.23 696)">
   <path d="M15.5273-47.9492L87.6465-47.9492C90.0391-47.9492 91.4551-49.6582 91.4551-51.4648C91.4551-52.7832 90.7227-53.9062 89.1113-54.834L56.4941-73.6328C54.8828-74.5605 53.2227-75.0488 51.5625-75.0488C49.9512-75.0488 48.2422-74.5605 46.6797-73.6328L14.0625-54.834C12.4512-53.9062 11.7188-52.7832 11.7188-51.4648C11.7188-49.6582 13.1348-47.9492 15.5273-47.9492ZM28.6621-54.9805L50.293-67.0898C50.6836-67.2852 51.1719-67.4316 51.5625-67.4316C52.002-67.4316 52.4414-67.2852 52.8809-67.0898L74.5117-54.9805ZM16.7969-7.22656C16.7969-5.46875 17.8223-4.39453 19.5801-4.39453L29.3945-4.39453C31.2012-4.39453 32.2266-5.46875 32.2266-7.22656L32.2266-8.25195C32.2266-9.96094 31.2012-10.9863 29.3945-10.9863L27.832-10.9863L27.832-38.3301L29.3945-38.3301C31.2012-38.3301 32.2266-39.3555 32.2266-41.1621L32.2266-42.1387C32.2266-43.8965 31.2012-44.9219 29.3945-44.9219L19.5801-44.9219C17.8223-44.9219 16.7969-43.8965 16.7969-42.1387L16.7969-41.1621C16.7969-39.3555 17.8223-38.3301 19.5801-38.3301L21.2402-38.3301L21.2402-10.9863L19.5801-10.9863C17.8223-10.9863 16.7969-9.96094 16.7969-8.25195ZM35.0098-7.22656C35.0098-5.46875 36.0352-4.39453 37.793-4.39453L47.6074-4.39453C49.4141-4.39453 50.4395-5.46875 50.4395-7.22656L50.4395-8.25195C50.4395-9.96094 49.4141-10.9863 47.6074-10.9863L46.0449-10.9863L46.0449-38.3301L47.6074-38.3301C49.4141-38.3301 50.4395-39.3555 50.4395-41.1621L50.4395-42.1387C50.4395-43.8965 49.4141-44.9219 47.6074-44.9219L37.793-44.9219C36.0352-44.9219 35.0098-43.8965 35.0098-42.1387L35.0098-41.1621C35.0098-39.3555 36.0352-38.3301 37.793-38.3301L39.4531-38.3301L39.4531-10.9863L37.793-10.9863C36.0352-10.9863 35.0098-9.96094 35.0098-8.25195ZM53.2227-7.22656C53.2227-5.46875 54.2969-4.39453 56.0547-4.39453L65.8691-4.39453C67.6758-4.39453 68.7012-5.46875 68.7012-7.22656L68.7012-8.25195C68.7012-9.96094 67.6758-10.9863 65.8691-10.9863L64.2578-10.9863L64.2578-38.3301L65.8691-38.3301C67.6758-38.3301 68.7012-39.3555 68.7012-41.1621L68.7012-42.1387C68.7012-43.8965 67.6758-44.9219 65.8691-44.9219L56.0547-44.9219C54.2969-44.9219 53.2227-43.8965 53.2227-42.1387L53.2227-41.1621C53.2227-39.3555 54.2969-38.3301 56.0547-38.3301L57.7148-38.3301L57.7148-10.9863L56.0547-10.9863C54.2969-10.9863 53.2227-9.96094 53.2227-8.25195ZM71.4355-7.22656C71.4355-5.46875 72.4609-4.39453 74.2676-4.39453L84.082-4.39453C85.8398-4.39453 86.9141-5.46875 86.9141-7.22656L86.9141-8.25195C86.9141-9.96094 85.8398-10.9863 84.082-10.9863L82.4707-10.9863L82.4707-38.3301L84.082-38.3301C85.8398-38.3301 86.9141-39.3555 86.9141-41.1621L86.9141-42.1387C86.9141-43.8965 85.8398-44.9219 84.082-44.9219L74.2676-44.9219C72.4609-44.9219 71.4355-43.8965 71.4355-42.1387L71.4355-41.1621C71.4355-39.3555 72.4609-38.3301 74.2676-38.3301L75.9277-38.3301L75.9277-10.9863L74.2676-10.9863C72.4609-10.9863 71.4355-9.96094 71.4355-8.25195ZM9.76562 2.14844C9.76562 4.05273 11.377 5.66406 13.2812 5.66406L89.9414 5.66406C91.8457 5.66406 93.457 4.05273 93.457 2.14844C93.457 0.195312 91.8457-1.36719 89.9414-1.36719L13.2812-1.36719C11.377-1.36719 9.76562 0.195312 9.76562 2.14844Z"/>
  </g>
  <g id="Light-S" transform="matrix(1 0 0 1 1102.82 696)">
   <path d="M14.209-48.7305L86.4258-48.7305C88.2812-48.7305 89.3555-50.0977 89.3555-51.4648C89.3555-52.4414 88.8184-53.3691 87.5488-54.0527L54.834-72.9004C53.3691-73.7793 51.8066-74.2188 50.293-74.2188C48.7793-74.2188 47.2168-73.7305 45.8008-72.9004L13.0371-54.0527C11.7676-53.3691 11.2793-52.4414 11.2793-51.4648C11.2793-50.0977 12.3047-48.7305 14.209-48.7305ZM24.3164-54.1992L48.6328-67.8711C49.1699-68.1152 49.7559-68.3105 50.293-68.3105C50.8789-68.3105 51.4648-68.1152 51.9531-67.8711L76.3184-54.1992ZM16.1621-6.39648C16.1621-5.0293 16.9922-4.24805 18.3105-4.24805L28.125-4.24805C29.4922-4.24805 30.2734-5.0293 30.2734-6.39648L30.2734-7.27539C30.2734-8.54492 29.4922-9.375 28.125-9.375L25.8301-9.375L25.8301-40.0391L28.125-40.0391C29.4922-40.0391 30.2734-40.8203 30.2734-42.1875L30.2734-43.0176C30.2734-44.3359 29.4922-45.1172 28.125-45.1172L18.3105-45.1172C16.9922-45.1172 16.1621-44.3359 16.1621-43.0176L16.1621-42.1875C16.1621-40.8203 16.9922-40.0391 18.3105-40.0391L20.7031-40.0391L20.7031-9.375L18.3105-9.375C16.9922-9.375 16.1621-8.54492 16.1621-7.27539ZM34.3262-6.39648C34.3262-5.0293 35.1074-4.24805 36.4746-4.24805L46.2891-4.24805C47.6562-4.24805 48.4375-5.0293 48.4375-6.39648L48.4375-7.27539C48.4375-8.54492 47.6562-9.375 46.2891-9.375L43.9941-9.375L43.9941-40.0391L46.2891-40.0391C47.6562-40.0391 48.4375-40.8203 48.4375-42.1875L48.4375-43.0176C48.4375-44.3359 47.6562-45.1172 46.2891-45.1172L36.4746-45.1172C35.1074-45.1172 34.3262-44.3359 34.3262-43.0176L34.3262-42.1875C34.3262-40.8203 35.1074-40.0391 36.4746-40.0391L38.8672-40.0391L38.8672-9.375L36.4746-9.375C35.1074-9.375 34.3262-8.54492 34.3262-7.27539ZM52.5391-6.39648C52.5391-5.0293 53.3203-4.24805 54.6875-4.24805L64.502-4.24805C65.8691-4.24805 66.6504-5.0293 66.6504-6.39648L66.6504-7.27539C66.6504-8.54492 65.8691-9.375 64.502-9.375L62.1582-9.375L62.1582-40.0391L64.502-40.0391C65.8691-40.0391 66.6504-40.8203 66.6504-42.1875L66.6504-43.0176C66.6504-44.3359 65.8691-45.1172 64.502-45.1172L54.6875-45.1172C53.3203-45.1172 52.5391-44.3359 52.5391-43.0176L52.5391-42.1875C52.5391-40.8203 53.3203-40.0391 54.6875-40.0391L57.0312-40.0391L57.0312-9.375L54.6875-9.375C53.3203-9.375 52.5391-8.54492 52.5391-7.27539ZM70.7031-6.39648C70.7031-5.0293 71.4844-4.24805 72.8516-4.24805L82.666-4.24805C84.0332-4.24805 84.8145-5.0293 84.8145-6.39648L84.8145-7.27539C84.8145-8.54492 84.0332-9.375 82.666-9.375L80.3223-9.375L80.3223-40.0391L82.666-40.0391C84.0332-40.0391 84.8145-40.8203 84.8145-42.1875L84.8145-43.0176C84.8145-44.3359 84.0332-45.1172 82.666-45.1172L72.8516-45.1172C71.4844-45.1172 70.7031-44.3359 70.7031-43.0176L70.7031-42.1875C70.7031-40.8203 71.4844-40.0391 72.8516-40.0391L75.1953-40.0391L75.1953-9.375L72.8516-9.375C71.4844-9.375 70.7031-8.54492 70.7031-7.27539ZM9.76562 2.09961C9.76562 3.56445 10.9863 4.78516 12.5 4.78516L88.1836 4.78516C89.6484 4.78516 90.8691 3.56445 90.8691 2.09961C90.8691 0.585938 89.6484-0.634766 88.1836-0.634766L12.5-0.634766C10.9863-0.634766 9.76562 0.585938 9.76562 2.09961Z"/>
  </g>
  <g id="Thin-S" transform="matrix(1 0 0 1 807.789 696)">
   <path d="M12.4023-49.8047L84.8633-49.8047C86.0352-49.8047 86.6211-50.5859 86.6211-51.4648C86.6211-52.0508 86.3281-52.6367 85.5469-53.0273L52.6367-71.9727C51.3184-72.7051 49.9512-73.0957 48.6328-73.0957C47.2656-73.0957 45.8984-72.6562 44.6289-71.9727L11.7188-53.0273C10.9375-52.6367 10.6445-52.0508 10.6445-51.4648C10.6445-50.5859 11.2305-49.8047 12.4023-49.8047ZM18.5547-53.125L46.4355-68.8965C47.1191-69.2383 47.9004-69.4824 48.6328-69.4824C49.3652-69.4824 50.0977-69.2383 50.7812-68.8965L78.7109-53.125ZM15.3809-5.32227C15.3809-4.54102 15.8691-4.05273 16.6504-4.05273L26.4648-4.05273C27.2461-4.05273 27.7344-4.54102 27.7344-5.32227L27.7344-6.00586C27.7344-6.73828 27.2461-7.22656 26.4648-7.22656L23.1445-7.22656L23.1445-42.2363L26.4648-42.2363C27.2461-42.2363 27.7344-42.7246 27.7344-43.5059L27.7344-44.1895C27.7344-44.9219 27.2461-45.4102 26.4648-45.4102L16.6504-45.4102C15.8691-45.4102 15.3809-44.9219 15.3809-44.1895L15.3809-43.5059C15.3809-42.7246 15.8691-42.2363 16.6504-42.2363L19.9707-42.2363L19.9707-7.22656L16.6504-7.22656C15.8691-7.22656 15.3809-6.73828 15.3809-6.00586ZM33.4473-5.32227C33.4473-4.54102 33.9355-4.05273 34.7656-4.05273L44.5801-4.05273C45.3613-4.05273 45.8496-4.54102 45.8496-5.32227L45.8496-6.00586C45.8496-6.73828 45.3613-7.22656 44.5801-7.22656L41.2598-7.22656L41.2598-42.2363L44.5801-42.2363C45.3613-42.2363 45.8496-42.7246 45.8496-43.5059L45.8496-44.1895C45.8496-44.9219 45.3613-45.4102 44.5801-45.4102L34.7656-45.4102C33.9355-45.4102 33.4473-44.9219 33.4473-44.1895L33.4473-43.5059C33.4473-42.7246 33.9355-42.2363 34.7656-42.2363L38.0859-42.2363L38.0859-7.22656L34.7656-7.22656C33.9355-7.22656 33.4473-6.73828 33.4473-6.00586ZM51.5625-5.32227C51.5625-4.54102 52.0508-4.05273 52.8809-4.05273L62.6953-4.05273C63.4766-4.05273 63.9648-4.54102 63.9648-5.32227L63.9648-6.00586C63.9648-6.73828 63.4766-7.22656 62.6953-7.22656L59.375-7.22656L59.375-42.2363L62.6953-42.2363C63.4766-42.2363 63.9648-42.7246 63.9648-43.5059L63.9648-44.1895C63.9648-44.9219 63.4766-45.4102 62.6953-45.4102L52.8809-45.4102C52.0508-45.4102 51.5625-44.9219 51.5625-44.1895L51.5625-43.5059C51.5625-42.7246 52.0508-42.2363 52.8809-42.2363L56.2012-42.2363L56.2012-7.22656L52.8809-7.22656C52.0508-7.22656 51.5625-6.73828 51.5625-6.00586ZM69.6777-5.32227C69.6777-4.54102 70.166-4.05273 70.9473-4.05273L80.7617-4.05273C81.5918-4.05273 82.0801-4.54102 82.0801-5.32227L82.0801-6.00586C82.0801-6.73828 81.5918-7.22656 80.7617-7.22656L77.4902-7.22656L77.4902-42.2363L80.7617-42.2363C81.5918-42.2363 82.0801-42.7246 82.0801-43.5059L82.0801-44.1895C82.0801-44.9219 81.5918-45.4102 80.7617-45.4102L70.9473-45.4102C70.166-45.4102 69.6777-44.9219 69.6777-44.1895L69.6777-43.5059C69.6777-42.7246 70.166-42.2363 70.9473-42.2363L74.3164-42.2363L74.3164-7.22656L70.9473-7.22656C70.166-7.22656 69.6777-6.73828 69.6777-6.00586ZM9.76562 2.00195C9.76562 2.92969 10.498 3.66211 11.4258 3.66211L85.8398 3.66211C86.7676 3.66211 87.5 2.92969 87.5 2.00195C87.5 1.07422 86.7676 0.341797 85.8398 0.341797L11.4258 0.341797C10.498 0.341797 9.76562 1.07422 9.76562 2.00195Z"/>
  </g>
  <g id="Ultralight-S" transform="matrix(1 0 0 1 511.957 696)">
   <path d="M11.4746-50.3418L84.0332-50.3418C84.8633-50.3418 85.2051-50.8789 85.2051-51.4648C85.2051-51.8066 85.0098-52.2461 84.5215-52.4902L51.4648-71.4355C50.293-72.168 48.9746-72.5098 47.7539-72.5098C46.4844-72.5098 45.166-72.1191 44.043-71.4355L10.9863-52.4902C10.498-52.2461 10.3027-51.8066 10.3027-51.4648C10.3027-50.8789 10.6934-50.3418 11.4746-50.3418ZM15.5762-52.5879L45.3125-69.4336C46.0938-69.8242 46.9238-70.0684 47.7539-70.0684C48.6328-70.0684 49.4141-69.8242 50.1953-69.4336L79.9316-52.5879ZM14.9414-4.78516C14.9414-4.24805 15.2832-3.95508 15.7715-3.95508L25.5859-3.95508C26.0742-3.95508 26.416-4.24805 26.416-4.78516L26.416-5.32227C26.416-5.76172 26.0742-6.10352 25.5859-6.10352L21.7773-6.10352L21.7773-43.4082L25.5859-43.4082C26.0742-43.4082 26.416-43.7012 26.416-44.2383L26.416-44.7754C26.416-45.2637 26.0742-45.5566 25.5859-45.5566L15.7715-45.5566C15.2832-45.5566 14.9414-45.2637 14.9414-44.7754L14.9414-44.2383C14.9414-43.7012 15.2832-43.4082 15.7715-43.4082L19.6289-43.4082L19.6289-6.10352L15.7715-6.10352C15.2832-6.10352 14.9414-5.76172 14.9414-5.32227ZM33.0078-4.78516C33.0078-4.24805 33.3496-3.95508 33.8379-3.95508L43.6523-3.95508C44.1895-3.95508 44.4824-4.24805 44.4824-4.78516L44.4824-5.32227C44.4824-5.76172 44.1895-6.10352 43.6523-6.10352L39.8926-6.10352L39.8926-43.4082L43.6523-43.4082C44.1895-43.4082 44.4824-43.7012 44.4824-44.2383L44.4824-44.7754C44.4824-45.2637 44.1895-45.5566 43.6523-45.5566L33.8379-45.5566C33.3496-45.5566 33.0078-45.2637 33.0078-44.7754L33.0078-44.2383C33.0078-43.7012 33.3496-43.4082 33.8379-43.4082L37.6953-43.4082L37.6953-6.10352L33.8379-6.10352C33.3496-6.10352 33.0078-5.76172 33.0078-5.32227ZM51.0742-4.78516C51.0742-4.24805 51.416-3.95508 51.9043-3.95508L61.7188-3.95508C62.2559-3.95508 62.5488-4.24805 62.5488-4.78516L62.5488-5.32227C62.5488-5.76172 62.2559-6.10352 61.7188-6.10352L57.959-6.10352L57.959-43.4082L61.7188-43.4082C62.2559-43.4082 62.5488-43.7012 62.5488-44.2383L62.5488-44.7754C62.5488-45.2637 62.2559-45.5566 61.7188-45.5566L51.9043-45.5566C51.416-45.5566 51.0742-45.2637 51.0742-44.7754L51.0742-44.2383C51.0742-43.7012 51.416-43.4082 51.9043-43.4082L55.7617-43.4082L55.7617-6.10352L51.9043-6.10352C51.416-6.10352 51.0742-5.76172 51.0742-5.32227ZM69.1406-4.78516C69.1406-4.24805 69.4824-3.95508 70.0195-3.95508L79.834-3.95508C80.3223-3.95508 80.6641-4.24805 80.6641-4.78516L80.6641-5.32227C80.6641-5.76172 80.3223-6.10352 79.834-6.10352L76.0254-6.10352L76.0254-43.4082L79.834-43.4082C80.3223-43.4082 80.6641-43.7012 80.6641-44.2383L80.6641-44.7754C80.6641-45.2637 80.3223-45.5566 79.834-45.5566L70.0195-45.5566C69.4824-45.5566 69.1406-45.2637 69.1406-44.7754L69.1406-44.2383C69.1406-43.7012 69.4824-43.4082 70.0195-43.4082L73.8281-43.4082L73.8281-6.10352L70.0195-6.10352C69.4824-6.10352 69.1406-5.76172 69.1406-5.32227ZM9.76562 1.95312C9.76562 2.58789 10.2539 3.07617 10.8887 3.07617L84.668 3.07617C85.2539 3.07617 85.7422 2.58789 85.7422 1.95312C85.7422 1.36719 85.2539 0.878906 84.668 0.878906L10.8887 0.878906C10.2539 0.878906 9.76562 1.36719 9.76562 1.95312Z"/>
  </g>
 </g>
</svg>
