<?xml version="1.0" encoding="UTF-8"?>
<!--Generator: Apple Native CoreSVG 149-->
<!DOCTYPE svg
PUBLIC "-//W3C//DTD SVG 1.1//EN"
       "http://www.w3.org/Graphics/SVG/1.1/DTD/svg11.dtd">
<svg version="1.1" xmlns="http://www.w3.org/2000/svg" xmlns:xlink="http://www.w3.org/1999/xlink" width="3300" height="2200">
 <!--glyph: "uni1007EF.medium", point size: 100.000000, font version: "Version 16.0d18e1", template writer version: "8"-->
 <g id="Notes">
  <rect height="2200" id="artboard" style="fill:white;opacity:1" width="3300" x="0" y="0"/>
  <line id="" style="fill:none;stroke:black;opacity:1;stroke-width:0.5;" x1="263" x2="3036" y1="292" y2="292"/>
  <text style="stroke:none;fill:black;font-family:-apple-system,&quot;SF Pro Display&quot;,&quot;SF Pro Text&quot;,Helvetica,sans-serif;font-weight:bold;" transform="matrix(1 0 0 1 263 322)">Weight/Scale Variations</text>
  <text style="stroke:none;fill:black;font-family:-apple-system,&quot;SF Pro Display&quot;,&quot;SF Pro Text&quot;,Helvetica,sans-serif;text-anchor:middle;" transform="matrix(1 0 0 1 559.711 322)">Ultralight</text>
  <text style="stroke:none;fill:black;font-family:-apple-system,&quot;SF Pro Display&quot;,&quot;SF Pro Text&quot;,Helvetica,sans-serif;text-anchor:middle;" transform="matrix(1 0 0 1 856.422 322)">Thin</text>
  <text style="stroke:none;fill:black;font-family:-apple-system,&quot;SF Pro Display&quot;,&quot;SF Pro Text&quot;,Helvetica,sans-serif;text-anchor:middle;" transform="matrix(1 0 0 1 1153.13 322)">Light</text>
  <text style="stroke:none;fill:black;font-family:-apple-system,&quot;SF Pro Display&quot;,&quot;SF Pro Text&quot;,Helvetica,sans-serif;text-anchor:middle;" transform="matrix(1 0 0 1 1449.84 322)">Regular</text>
  <text style="stroke:none;fill:black;font-family:-apple-system,&quot;SF Pro Display&quot;,&quot;SF Pro Text&quot;,Helvetica,sans-serif;text-anchor:middle;" transform="matrix(1 0 0 1 1746.56 322)">Medium</text>
  <text style="stroke:none;fill:black;font-family:-apple-system,&quot;SF Pro Display&quot;,&quot;SF Pro Text&quot;,Helvetica,sans-serif;text-anchor:middle;" transform="matrix(1 0 0 1 2043.27 322)">Semibold</text>
  <text style="stroke:none;fill:black;font-family:-apple-system,&quot;SF Pro Display&quot;,&quot;SF Pro Text&quot;,Helvetica,sans-serif;text-anchor:middle;" transform="matrix(1 0 0 1 2339.98 322)">Bold</text>
  <text style="stroke:none;fill:black;font-family:-apple-system,&quot;SF Pro Display&quot;,&quot;SF Pro Text&quot;,Helvetica,sans-serif;text-anchor:middle;" transform="matrix(1 0 0 1 2636.69 322)">Heavy</text>
  <text style="stroke:none;fill:black;font-family:-apple-system,&quot;SF Pro Display&quot;,&quot;SF Pro Text&quot;,Helvetica,sans-serif;text-anchor:middle;" transform="matrix(1 0 0 1 2933.4 322)">Black</text>
  <line id="" style="fill:none;stroke:black;opacity:1;stroke-width:0.5;" x1="263" x2="3036" y1="1903" y2="1903"/>
  <g id="" transform="matrix(1 0 0 1 263 1933)">
   <path d="M9.24805 0.830078C13.5547 0.830078 17.1387-2.74414 17.1387-7.05078C17.1387-11.3574 13.5449-14.9316 9.23828-14.9316C4.94141-14.9316 1.36719-11.3574 1.36719-7.05078C1.36719-2.74414 4.95117 0.830078 9.24805 0.830078ZM9.24805-0.654297C5.70312-0.654297 2.87109-3.49609 2.87109-7.05078C2.87109-10.6055 5.69336-13.4473 9.23828-13.4473C12.793-13.4473 15.6348-10.6055 15.6445-7.05078C15.6543-3.49609 12.8027-0.654297 9.24805-0.654297ZM6.39648-6.31836L8.50586-6.31836L8.50586-4.19922C8.50586-3.75977 8.79883-3.45703 9.22852-3.45703C9.67773-3.45703 9.9707-3.75977 9.9707-4.19922L9.9707-6.31836L12.0996-6.31836C12.5391-6.31836 12.8418-6.61133 12.8418-7.04102C12.8418-7.48047 12.5391-7.7832 12.0996-7.7832L9.9707-7.7832L9.9707-9.89258C9.9707-10.3418 9.67773-10.6445 9.22852-10.6445C8.79883-10.6445 8.50586-10.3418 8.50586-9.89258L8.50586-7.7832L6.39648-7.7832C5.94727-7.7832 5.64453-7.48047 5.64453-7.04102C5.64453-6.61133 5.94727-6.31836 6.39648-6.31836Z"/>
  </g>
  <g id="" transform="matrix(1 0 0 1 281.506 1933)">
   <path d="M11.709 2.91016C17.1582 2.91016 21.6699-1.61133 21.6699-7.05078C21.6699-12.5 17.1484-17.0117 11.6992-17.0117C6.25977-17.0117 1.74805-12.5 1.74805-7.05078C1.74805-1.61133 6.26953 2.91016 11.709 2.91016ZM11.709 1.25C7.09961 1.25 3.41797-2.44141 3.41797-7.05078C3.41797-11.6602 7.08984-15.3516 11.6992-15.3516C16.3086-15.3516 20-11.6602 20.0098-7.05078C20.0195-2.44141 16.3184 1.25 11.709 1.25ZM7.98828-6.23047L10.8789-6.23047L10.8789-3.32031C10.8789-2.83203 11.2109-2.5 11.6895-2.5C12.1777-2.5 12.5195-2.83203 12.5195-3.32031L12.5195-6.23047L15.4297-6.23047C15.918-6.23047 16.25-6.5625 16.25-7.04102C16.25-7.5293 15.918-7.87109 15.4297-7.87109L12.5195-7.87109L12.5195-10.7617C12.5195-11.2695 12.1777-11.6016 11.6895-11.6016C11.2109-11.6016 10.8789-11.2598 10.8789-10.7617L10.8789-7.87109L7.98828-7.87109C7.48047-7.87109 7.14844-7.5293 7.14844-7.04102C7.14844-6.5625 7.49023-6.23047 7.98828-6.23047Z"/>
  </g>
  <g id="" transform="matrix(1 0 0 1 304.924 1933)">
   <path d="M14.9707 5.66406C21.9336 5.66406 27.6953-0.0976562 27.6953-7.05078C27.6953-14.0137 21.9238-19.7754 14.9609-19.7754C8.00781-19.7754 2.25586-14.0137 2.25586-7.05078C2.25586-0.0976562 8.01758 5.66406 14.9707 5.66406ZM14.9707 3.84766C8.93555 3.84766 4.08203-1.01562 4.08203-7.05078C4.08203-13.0957 8.92578-17.9492 14.9609-17.9492C21.0059-17.9492 25.8594-13.0957 25.8691-7.05078C25.8789-1.01562 21.0156 3.84766 14.9707 3.84766ZM10.0586-6.14258L14.0625-6.14258L14.0625-2.12891C14.0625-1.5918 14.4336-1.2207 14.9512-1.2207C15.4883-1.2207 15.8594-1.5918 15.8594-2.12891L15.8594-6.14258L19.8828-6.14258C20.4102-6.14258 20.791-6.51367 20.791-7.03125C20.791-7.56836 20.4199-7.94922 19.8828-7.94922L15.8594-7.94922L15.8594-11.9531C15.8594-12.5098 15.4883-12.8809 14.9512-12.8809C14.4336-12.8809 14.0625-12.5 14.0625-11.9531L14.0625-7.94922L10.0586-7.94922C9.50195-7.94922 9.13086-7.56836 9.13086-7.03125C9.13086-6.51367 9.51172-6.14258 10.0586-6.14258Z"/>
  </g>
  <text style="stroke:none;fill:black;font-family:-apple-system,&quot;SF Pro Display&quot;,&quot;SF Pro Text&quot;,Helvetica,sans-serif;font-weight:bold;" transform="matrix(1 0 0 1 263 1953)">Design Variations</text>
  <text style="stroke:none;fill:black;font-family:-apple-system,&quot;SF Pro Display&quot;,&quot;SF Pro Text&quot;,Helvetica,sans-serif;" transform="matrix(1 0 0 1 263 1971)">Symbols are supported in up to nine weights and three scales.</text>
  <text style="stroke:none;fill:black;font-family:-apple-system,&quot;SF Pro Display&quot;,&quot;SF Pro Text&quot;,Helvetica,sans-serif;" transform="matrix(1 0 0 1 263 1989)">For optimal layout with text and other symbols, vertically align</text>
  <text style="stroke:none;fill:black;font-family:-apple-system,&quot;SF Pro Display&quot;,&quot;SF Pro Text&quot;,Helvetica,sans-serif;" transform="matrix(1 0 0 1 263 2007)">symbols with the adjacent text.</text>
  <line id="" style="fill:none;stroke:#00AEEF;stroke-width:0.5;opacity:1.0;" x1="776" x2="776" y1="1919" y2="1933"/>
  <g id="" transform="matrix(1 0 0 1 776 1933)">
   <path d="M3.31055 0.126953C3.82812 0.126953 4.08203-0.0683594 4.26758-0.605469L5.52734-4.0625L11.2891-4.0625L12.5488-0.605469C12.7344-0.0683594 12.9883 0.126953 13.4961 0.126953C14.0137 0.126953 14.3457-0.185547 14.3457-0.673828C14.3457-0.839844 14.3164-0.986328 14.2383-1.20117L9.6582-13.3887C9.43359-13.9941 9.0332-14.2871 8.4082-14.2871C7.80273-14.2871 7.39258-13.9941 7.17773-13.3984L2.59766-1.19141C2.51953-0.976562 2.49023-0.830078 2.49023-0.664062C2.49023-0.175781 2.80273 0.126953 3.31055 0.126953ZM6.00586-5.53711L8.37891-12.1094L8.42773-12.1094L10.8008-5.53711Z"/>
  </g>
  <line id="" style="fill:none;stroke:#00AEEF;stroke-width:0.5;opacity:1.0;" x1="792.836" x2="792.836" y1="1919" y2="1933"/>
  <text style="stroke:none;fill:black;font-family:-apple-system,&quot;SF Pro Display&quot;,&quot;SF Pro Text&quot;,Helvetica,sans-serif;font-weight:bold;" transform="matrix(1 0 0 1 776 1953)">Margins</text>
  <text style="stroke:none;fill:black;font-family:-apple-system,&quot;SF Pro Display&quot;,&quot;SF Pro Text&quot;,Helvetica,sans-serif;" transform="matrix(1 0 0 1 776 1971)">Leading and trailing margins on the left and right side of each symbol</text>
  <text style="stroke:none;fill:black;font-family:-apple-system,&quot;SF Pro Display&quot;,&quot;SF Pro Text&quot;,Helvetica,sans-serif;" transform="matrix(1 0 0 1 776 1989)">can be adjusted by modifying the x-location of the margin guidelines.</text>
  <text style="stroke:none;fill:black;font-family:-apple-system,&quot;SF Pro Display&quot;,&quot;SF Pro Text&quot;,Helvetica,sans-serif;" transform="matrix(1 0 0 1 776 2007)">Modifications are automatically applied proportionally to all</text>
  <text style="stroke:none;fill:black;font-family:-apple-system,&quot;SF Pro Display&quot;,&quot;SF Pro Text&quot;,Helvetica,sans-serif;" transform="matrix(1 0 0 1 776 2025)">scales and weights.</text>
  <g id="" transform="matrix(1 0 0 1 1289 1933)">
   <path d="M2.8418 1.86523L4.54102 3.57422C5.40039 4.44336 6.38672 4.38477 7.31445 3.35938L17.4902-7.85156C17.7539-7.76367 18.0273-7.7832 18.3398-7.8418L19.4043-8.03711L20.0684-7.36328L20.0293-6.80664C19.9902-6.30859 20.1172-5.92773 20.6055-5.44922L21.3672-4.70703C21.8457-4.22852 22.4609-4.19922 22.9297-4.66797L25.8398-7.58789C26.3086-8.05664 26.2891-8.65234 25.8105-9.13086L25.0391-9.89258C24.5605-10.3711 24.1895-10.5273 23.7109-10.4883L23.1348-10.4395L22.4902-11.0742L22.7344-12.1973C22.8613-12.7637 22.7051-13.2031 22.1191-13.7891L19.9219-15.9766C16.582-19.2969 12.1484-19.2188 9.25781-16.3281C8.83789-15.918 8.80859-15.3418 9.04297-14.9512C9.27734-14.5898 9.73633-14.3555 10.3809-14.5215C11.8457-14.8633 13.3691-14.9219 14.7949-13.9844L14.209-12.5293C14.0137-12.0508 13.9844-11.6504 14.1113-11.2891L3.04688-0.898438C2.06055 0.0195312 1.98242 0.996094 2.8418 1.86523ZM10.752-15.957C13.1836-17.7344 16.4746-17.4316 18.7012-15.2051L21.1328-12.793C21.3672-12.5586 21.4062-12.373 21.3379-12.0312L21.0156-10.5469L22.5195-9.0625L23.5059-9.12109C23.7598-9.13086 23.8379-9.11133 24.0332-8.91602L24.6094-8.33984L22.168-5.89844L21.5918-6.47461C21.3965-6.66992 21.3672-6.74805 21.377-7.01172L21.4453-7.98828L19.9512-9.47266L18.4277-9.21875C18.1055-9.15039 17.959-9.17969 17.7148-9.41406L15.7129-11.416C15.459-11.6504 15.4297-11.8164 15.5859-12.1875L16.4648-14.2773C14.9023-15.7324 12.8711-16.3574 10.8398-15.7617C10.6836-15.7227 10.625-15.8496 10.752-15.957ZM5.27344 2.30469L4.10156 1.14258C3.63281 0.683594 3.74023 0.341797 4.14062-0.0195312L14.9512-10.1953L16.416-8.71094L6.42578 2.27539C6.07422 2.67578 5.74219 2.77344 5.27344 2.30469Z"/>
  </g>
  <text style="stroke:none;fill:black;font-family:-apple-system,&quot;SF Pro Display&quot;,&quot;SF Pro Text&quot;,Helvetica,sans-serif;font-weight:bold;" transform="matrix(1 0 0 1 1289 1953)">Exporting</text>
  <text style="stroke:none;fill:black;font-family:-apple-system,&quot;SF Pro Display&quot;,&quot;SF Pro Text&quot;,Helvetica,sans-serif;" transform="matrix(1 0 0 1 1289 1971)">Symbols should be outlined when exporting to ensure the</text>
  <text style="stroke:none;fill:black;font-family:-apple-system,&quot;SF Pro Display&quot;,&quot;SF Pro Text&quot;,Helvetica,sans-serif;" transform="matrix(1 0 0 1 1289 1989)">design is preserved when submitting to Xcode.</text>
  <text id="template-version" style="stroke:none;fill:black;font-family:-apple-system,&quot;SF Pro Display&quot;,&quot;SF Pro Text&quot;,Helvetica,sans-serif;text-anchor:end;" transform="matrix(1 0 0 1 3036 1933)">Template v.2.0</text>
  <text style="stroke:none;fill:black;font-family:-apple-system,&quot;SF Pro Display&quot;,&quot;SF Pro Text&quot;,Helvetica,sans-serif;text-anchor:end;" transform="matrix(1 0 0 1 3036 1951)">Requires Xcode 12 or greater</text>
  <text style="stroke:none;fill:black;font-family:-apple-system,&quot;SF Pro Display&quot;,&quot;SF Pro Text&quot;,Helvetica,sans-serif;text-anchor:end;" transform="matrix(1 0 0 1 3036 1969)">Generated from hands.clap.fill</text>
  <text style="stroke:none;fill:black;font-family:-apple-system,&quot;SF Pro Display&quot;,&quot;SF Pro Text&quot;,Helvetica,sans-serif;text-anchor:end;" transform="matrix(1 0 0 1 3036 1987)">Typeset at 100 points</text>
  <text style="stroke:none;fill:black;font-family:-apple-system,&quot;SF Pro Display&quot;,&quot;SF Pro Text&quot;,Helvetica,sans-serif;" transform="matrix(1 0 0 1 263 726)">Small</text>
  <text style="stroke:none;fill:black;font-family:-apple-system,&quot;SF Pro Display&quot;,&quot;SF Pro Text&quot;,Helvetica,sans-serif;" transform="matrix(1 0 0 1 263 1156)">Medium</text>
  <text style="stroke:none;fill:black;font-family:-apple-system,&quot;SF Pro Display&quot;,&quot;SF Pro Text&quot;,Helvetica,sans-serif;" transform="matrix(1 0 0 1 263 1586)">Large</text>
 </g>
 <g id="Guides">
  <g id="H-reference" style="fill:#27AAE1;stroke:none;" transform="matrix(1 0 0 1 339 696)">
   <path d="M0.976562 0L3.66211 0L12.9883-24.4629L45.752-24.4629L55.127 0L57.7637 0L30.6152-70.459L28.125-70.459ZM29.3457-67.1387L29.4434-67.1387L44.873-26.709L13.8672-26.709Z"/>
  </g>
  <line id="Baseline-S" style="fill:none;stroke:#27AAE1;opacity:1;stroke-width:0.5;" x1="263" x2="3036" y1="696" y2="696"/>
  <line id="Capline-S" style="fill:none;stroke:#27AAE1;opacity:1;stroke-width:0.5;" x1="263" x2="3036" y1="625.541" y2="625.541"/>
  <g id="H-reference" style="fill:#27AAE1;stroke:none;" transform="matrix(1 0 0 1 339 1126)">
   <path d="M0.976562 0L3.66211 0L12.9883-24.4629L45.752-24.4629L55.127 0L57.7637 0L30.6152-70.459L28.125-70.459ZM29.3457-67.1387L29.4434-67.1387L44.873-26.709L13.8672-26.709Z"/>
  </g>
  <line id="Baseline-M" style="fill:none;stroke:#27AAE1;opacity:1;stroke-width:0.5;" x1="263" x2="3036" y1="1126" y2="1126"/>
  <line id="Capline-M" style="fill:none;stroke:#27AAE1;opacity:1;stroke-width:0.5;" x1="263" x2="3036" y1="1055.54" y2="1055.54"/>
  <g id="H-reference" style="fill:#27AAE1;stroke:none;" transform="matrix(1 0 0 1 339 1556)">
   <path d="M0.976562 0L3.66211 0L12.9883-24.4629L45.752-24.4629L55.127 0L57.7637 0L30.6152-70.459L28.125-70.459ZM29.3457-67.1387L29.4434-67.1387L44.873-26.709L13.8672-26.709Z"/>
  </g>
  <line id="Baseline-L" style="fill:none;stroke:#27AAE1;opacity:1;stroke-width:0.5;" x1="263" x2="3036" y1="1556" y2="1556"/>
  <line id="Capline-L" style="fill:none;stroke:#27AAE1;opacity:1;stroke-width:0.5;" x1="263" x2="3036" y1="1485.54" y2="1485.54"/>
  <line id="left-margin" style="fill:none;stroke:#00AEEF;stroke-width:0.5;opacity:1.0;" x1="1373.72" x2="1373.72" y1="1030.79" y2="1150.12"/>
  <line id="right-margin" style="fill:none;stroke:#00AEEF;stroke-width:0.5;opacity:1.0;" x1="1525.97" x2="1525.97" y1="1030.79" y2="1150.12"/>
 </g>
 <g id="Symbols">
  <g id="Black-L" transform="matrix(1 0 0 1 2824.37 1556)">
   <path d="M65.8203-96.0938C69.2871-96.9238 71.4844-100.391 70.752-103.76L67.5781-118.555C66.8457-121.973 63.4766-124.219 60.0098-123.486C56.4941-122.803 54.1992-119.287 54.9316-115.869L58.1055-101.123C58.8867-97.6562 62.2559-95.3125 65.8203-96.0938ZM38.1836-88.0859C40.7227-85.498 44.8242-85.498 47.2168-88.0859C49.6094-90.625 49.7559-94.5801 47.2168-97.1191L36.4746-107.861C33.8867-110.449 29.9805-110.4 27.4414-107.861C24.9023-105.322 24.8535-101.367 27.4414-98.8281ZM92.3828 28.0273C113.477 49.1211 141.699 46.7773 161.279 27.2461C173.193 15.2832 177.734 2.44141 176.367-12.6465C175.342-27.5391 165.527-45.8496 161.816-53.0762C157.861-60.7422 152.881-70.6055 150.391-74.3652C147.559-78.5645 142.871-79.7852 138.965-77.2461C134.424-74.3652 133.594-69.6289 135.498-64.502L143.506-43.6523C144.043-42.1875 143.994-41.5527 143.457-41.0645C142.969-40.5762 142.285-40.4297 141.211-41.5039L92.6758-90.0391C89.0137-93.75 83.6914-93.75 80.0293-90.0879C76.416-86.4746 76.416-81.1035 80.0781-77.4414L117.236-40.2832C116.016-39.6484 114.746-38.9648 113.477-38.1836L71.2891-80.4199C67.627-84.082 62.3047-84.082 58.6426-80.4199C55.0293-76.7578 55.0293-71.4844 58.6426-67.8223L100.439-26.0254C99.6094-24.9512 98.6816-23.877 97.8516-22.7539L59.1797-61.4258C55.5664-65.0391 50.1465-65.0879 46.5332-61.4746C42.9199-57.8613 42.9688-52.4414 46.582-48.8281L88.4277-7.03125C87.793-5.56641 87.3535-4.10156 86.8652-2.68555L57.666-31.8848C54.0039-35.5469 48.6816-35.5957 45.0684-31.9824C41.4062-28.3203 41.4062-22.9492 45.0684-19.2871ZM129.199-83.5449L122.705-90.0391C118.945-93.75 113.672-93.7012 110.059-90.0879C109.863-89.8926 109.619-89.6484 109.473-89.4043L124.17-74.6582C125.098-78.0273 126.758-81.0059 129.199-83.5449ZM31.3965-64.5996C34.8145-63.8672 38.2812-66.1133 38.916-69.5801C39.502-73.0469 37.4512-76.3184 33.9355-77.0508L19.0918-80.2734C15.332-81.0547 11.9141-78.6621 11.3281-74.9023C10.8398-71.4844 13.0859-68.3594 16.4551-67.6758ZM191.211 27.2461C203.174 15.2344 207.715 2.39258 206.299-12.6465C205.225-27.4902 195.508-45.8984 191.797-53.0762C187.891-60.7422 182.861-70.6055 180.322-74.3652C177.539-78.5156 172.852-79.7363 168.945-77.2461C166.699-75.8789 165.381-74.1211 164.795-72.0703C167.188-67.4805 169.58-62.793 171.973-58.2031C175.732-51.123 186.475-30.7617 187.646-13.4766C189.453 5.22461 183.35 21.2891 169.336 35.2539C166.553 38.0371 163.77 40.4297 160.791 42.627C171.729 41.4062 182.422 36.084 191.211 27.2461Z"/>
  </g>
  <g id="Heavy-L" transform="matrix(1 0 0 1 2530.61 1556)">
   <path d="M64.8438-94.3848C67.9199-95.1172 69.9219-98.2422 69.2871-101.221L65.918-116.797C65.2344-119.873 62.2559-121.826 59.1309-121.191C56.0547-120.557 54.0039-117.48 54.6387-114.404L58.0078-98.877C58.6914-95.8008 61.7188-93.7012 64.8438-94.3848ZM38.3301-86.7188C40.5762-84.4727 44.2383-84.4727 46.3867-86.7188C48.5352-88.9648 48.6328-92.5293 46.3867-94.7754L35.0586-106.104C32.7637-108.398 29.2969-108.35 27.002-106.104C24.7559-103.809 24.707-100.342 27.002-98.0469ZM90.8691 26.9043C111.621 47.6562 138.916 45.5078 157.91 26.5137C170.361 14.0625 174.512 0.585938 171.68-15.3809C170.068-29.0527 161.328-45.5078 157.031-53.6621C153.516-60.498 149.072-69.2871 146.729-72.5586C144.043-76.3184 139.697-77.1973 136.182-74.707C132.08-71.875 131.445-67.5293 133.35-62.3047L141.162-41.8457C141.797-40.1855 141.65-39.4043 141.113-38.8184C140.479-38.1836 139.648-38.0371 138.379-39.3066L90.5273-87.1582C87.1094-90.5762 82.0801-90.5762 78.7109-87.207C75.3418-83.8379 75.3418-78.7598 78.7598-75.3906L114.795-39.3066C113.428-38.6719 112.061-37.8906 110.693-37.0117L69.3848-78.3203C66.0156-81.6895 60.9863-81.6895 57.6172-78.3203C54.248-74.9023 54.248-69.9219 57.6172-66.5039L98.4375-25.6836C97.4609-24.5117 96.4355-23.2422 95.5566-21.9727L57.9102-59.6191C54.5898-62.9395 49.4629-62.9883 46.0938-59.6191C42.7734-56.2988 42.7734-51.1719 46.1426-47.8516L86.8652-7.12891C86.1816-5.46875 85.6934-3.85742 85.2539-2.24609L56.8848-30.6641C53.4668-34.0332 48.4375-34.082 45.0684-30.7129C41.6992-27.3438 41.6992-22.2656 45.0684-18.8965ZM126.66-78.8574L118.408-87.1582C114.941-90.5762 109.912-90.5273 106.592-87.207C106.396-87.0117 106.201-86.8164 106.055-86.5723L123.34-69.2383C123.779-72.8027 124.854-76.0254 126.66-78.8574ZM31.5918-63.916C34.6191-63.2812 37.7441-65.2344 38.2812-68.3105C38.8672-71.4355 37.0117-74.3652 33.8867-75L18.2129-78.3691C14.8926-79.1016 11.8164-76.9531 11.3281-73.6328C10.8887-70.6055 12.8906-67.7734 15.8691-67.1875ZM185.742 26.5137C198.193 14.0137 202.393 0.585938 199.512-15.3809C197.852-29.0527 189.16-45.5078 184.863-53.6621C181.396-60.498 176.904-69.2871 174.561-72.5586C171.875-76.2695 167.578-77.1484 164.014-74.707C162.109-73.4863 160.938-71.875 160.449-70.0684C162.549-66.0156 164.648-61.8652 166.797-57.8125C170.996-49.9023 180.371-31.9824 182.08-16.6016C185.4 2.83203 179.834 19.4824 165.332 33.9355C162.549 36.7676 159.619 39.209 156.641 41.3086C167.09 40.1367 177.295 35.0098 185.742 26.5137Z"/>
  </g>
  <g id="Bold-L" transform="matrix(1 0 0 1 2237.22 1556)">
   <path d="M63.7695-92.4805C66.4062-93.0664 68.1641-95.8008 67.627-98.3398L64.0625-114.844C63.4766-117.48 60.8887-119.189 58.2031-118.652C55.5176-118.115 53.7598-115.43 54.2969-112.793L57.8613-96.3379C58.4473-93.7012 61.0352-91.8945 63.7695-92.4805ZM38.5254-85.2051C40.4785-83.252 43.6035-83.252 45.459-85.2051C47.3145-87.1582 47.4121-90.1855 45.459-92.1387L33.4961-104.102C31.4941-106.104 28.5156-106.055 26.5625-104.102C24.6094-102.148 24.5605-99.1699 26.5625-97.168ZM89.209 25.6836C109.619 46.0938 135.742 44.0918 154.102 25.6836C167.139 12.6953 170.898-1.46484 166.455-18.457C164.16-30.7617 156.592-45.0684 151.66-54.2969C148.584-60.2539 144.824-67.7734 142.676-70.5566C140.088-73.8281 136.133-74.3164 133.008-71.875C129.443-69.1406 129.004-65.1855 130.908-59.8633L138.525-39.7949C139.258-37.9395 139.111-36.9629 138.428-36.2793C137.695-35.5469 136.621-35.4004 135.205-36.8164L88.0859-83.9355C85.0098-87.0117 80.2734-87.0117 77.1973-83.9355C74.1699-80.9082 74.1699-76.1719 77.2461-73.0957L112.061-38.2324C110.596-37.5488 109.033-36.7188 107.52-35.7422L67.334-75.9277C64.2578-79.0039 59.5215-79.0039 56.4453-75.9277C53.3691-72.8516 53.3691-68.1641 56.4453-65.0879L96.1914-25.3418C95.0684-23.9746 93.9453-22.5586 92.9199-21.1426L56.4941-57.5684C53.418-60.6445 48.6816-60.6445 45.6055-57.6172C42.5781-54.541 42.5781-49.8047 45.6543-46.7285L85.1074-7.27539C84.375-5.37109 83.8867-3.56445 83.4473-1.80664L55.957-29.2969C52.8809-32.373 48.1445-32.373 45.1172-29.3457C42.041-26.2695 42.041-21.4844 45.1172-18.4082ZM123.877-73.6816L113.623-83.9355C110.498-87.0117 105.762-87.0117 102.734-83.9844C102.539-83.7891 102.393-83.5938 102.246-83.3496L122.412-63.1836C122.314-66.9922 122.754-70.5078 123.877-73.6816ZM31.8848-63.1348C34.4727-62.5977 37.1582-64.2578 37.6465-66.9434C38.0859-69.6289 36.5234-72.1191 33.8379-72.7051L17.2363-76.2695C14.4043-76.8555 11.7676-75.0488 11.3281-72.168C10.9375-69.5801 12.6465-67.1387 15.2344-66.6016ZM179.59 25.6836C192.627 12.6465 196.387-1.46484 191.943-18.457C189.6-30.7617 182.08-45.0684 177.148-54.2969C174.121-60.2539 170.312-67.7734 168.115-70.5078C165.576-73.7793 161.621-74.2676 158.496-71.875C156.934-70.752 156.006-69.3848 155.566-67.8223C157.373-64.3555 159.18-60.8398 160.986-57.4219C165.674-48.584 173.584-33.3984 175.781-20.0684C180.811 0.195312 175.928 17.4805 160.889 32.4707C158.008 35.3027 155.029 37.793 151.953 39.8926C161.865 38.7207 171.533 33.7891 179.59 25.6836Z"/>
  </g>
  <g id="Semibold-L" transform="matrix(1 0 0 1 1942.78 1556)">
   <path d="M63.0371-91.1621C65.3809-91.6992 66.9922-94.1406 66.4551-96.3867L62.7441-113.477C62.2559-115.869 59.9121-117.334 57.5684-116.895C55.1758-116.406 53.5645-114.014 54.1016-111.67L57.7637-94.6289C58.3008-92.2852 60.5957-90.625 63.0371-91.1621ZM38.623-84.1797C40.3809-82.4219 43.1641-82.4219 44.8242-84.1797C46.4844-85.8887 46.582-88.623 44.8242-90.332L32.4219-102.734C30.6152-104.541 27.9785-104.492 26.2207-102.734C24.5117-101.025 24.4141-98.3398 26.2207-96.582ZM88.0371 24.8047C108.203 44.9707 133.545 43.1152 151.514 25.1465C164.941 11.7188 168.408-2.88086 162.842-20.5566C160.107-31.9824 153.369-44.7754 147.998-54.7363C145.215-60.0586 141.895-66.6992 139.844-69.1406C137.402-72.0703 133.691-72.3145 130.811-69.873C127.637-67.2363 127.344-63.5742 129.248-58.1543L136.719-38.4277C137.549-36.4258 137.305-35.2539 136.572-34.5215C135.742-33.6914 134.57-33.5449 133.008-35.1074L86.4258-81.6895C83.5449-84.5703 79.0527-84.5703 76.1719-81.7383C73.3398-78.8574 73.3398-74.3652 76.1719-71.4844L110.205-37.5C108.594-36.7676 106.982-35.8887 105.371-34.8145L65.8691-74.3164C62.9883-77.1973 58.4961-77.1973 55.6641-74.3164C52.7832-71.4355 52.7832-66.9434 55.6641-64.1113L94.6777-25.0977C93.4082-23.6328 92.1875-22.1191 91.1133-20.5566L55.5176-56.2012C52.6367-59.0332 48.1445-59.0332 45.2637-56.2012C42.4316-53.3203 42.4316-48.8281 45.2637-45.9473L83.8867-7.32422C83.1543-5.32227 82.6172-3.32031 82.2266-1.46484L55.3223-28.3203C52.4902-31.2012 47.9492-31.2012 45.1172-28.3691C42.2363-25.4883 42.2363-20.9961 45.1172-18.1152ZM121.924-70.0684L110.303-81.7383C107.422-84.5703 102.881-84.5703 100.049-81.7383C99.9023-81.543 99.7559-81.3965 99.6094-81.2012L121.777-59.0332C121.289-62.9395 121.289-66.6504 121.924-70.0684ZM32.0312-62.5977C34.3262-62.1094 36.7188-63.623 37.1582-66.0156C37.5977-68.3594 36.1816-70.6055 33.7891-71.1426L16.6016-74.8047C14.0625-75.3418 11.6699-73.7305 11.3281-71.1914C10.9863-68.8477 12.5-66.6992 14.7949-66.2109ZM175.391 25.1465C188.77 11.7188 192.236-2.88086 186.719-20.5566C183.936-31.9824 177.246-44.7754 171.826-54.7852C169.092-60.0586 165.771-66.748 163.721-69.1406C161.23-72.0215 157.568-72.2656 154.688-69.9219C153.418-68.8965 152.588-67.627 152.197-66.2598C153.809-63.2324 155.371-60.1562 156.982-57.0801C162.061-47.6562 168.896-34.375 171.484-22.4121C177.637-1.66016 173.242 16.0645 157.812 31.4453C154.932 34.3262 151.855 36.8164 148.682 38.916C158.301 37.7441 167.578 32.959 175.391 25.1465Z"/>
  </g>
  <g id="Medium-L" transform="matrix(1 0 0 1 1647.8 1556)">
   <path d="M62.4512-90.1367C64.5996-90.625 66.0645-92.8223 65.5762-94.873L61.7676-112.451C61.3281-114.648 59.1797-115.967 57.0801-115.527C54.9316-115.088 53.418-112.988 53.9062-110.84L57.7148-93.3105C58.2031-91.1621 60.2539-89.6973 62.4512-90.1367ZM38.7207-83.3496C40.2832-81.7871 42.8223-81.7871 44.3359-83.3496C45.8496-84.9121 45.8984-87.4023 44.3359-88.9648L31.5918-101.709C29.9316-103.369 27.5391-103.271 25.9766-101.709C24.4141-100.146 24.3652-97.7539 25.9766-96.0938ZM87.1582 24.1699C107.129 44.1406 131.885 42.334 149.561 24.707C163.232 10.9863 166.504-3.95508 160.107-22.168C156.982-32.8613 150.879-44.5312 145.166-55.127C142.676-59.9121 139.648-65.918 137.744-68.1152C135.303-70.752 131.836-70.8008 129.199-68.4082C126.27-65.8203 126.074-62.3535 127.979-56.8848L135.352-37.3535C136.23-35.2539 135.986-33.9844 135.205-33.2031C134.277-32.2754 133.008-32.1777 131.348-33.7891L85.1562-80.0293C82.4219-82.7637 78.125-82.7637 75.3906-80.0293C72.7051-77.3438 72.7051-72.998 75.3906-70.2637L108.74-36.9141C107.08-36.1816 105.371-35.2539 103.711-34.1309L64.7949-73.0957C62.0605-75.7812 57.7637-75.7812 55.0293-73.0957C52.3438-70.3613 52.3438-66.0645 55.0293-63.3301L93.5059-24.9023C92.1875-23.3398 90.918-21.7285 89.7949-20.1172L54.7852-55.127C52.0508-57.8125 47.7051-57.8125 45.0195-55.127C42.334-52.4414 42.334-48.0957 45.0195-45.3613L83.0078-7.42188C82.1777-5.27344 81.6406-3.17383 81.25-1.2207L54.8828-27.5879C52.1484-30.3223 47.8027-30.3223 45.1172-27.6367C42.4316-24.9023 42.4316-20.5566 45.1172-17.8711ZM120.459-67.334L107.812-80.0293C105.078-82.7148 100.732-82.7148 98.0469-80.0293C97.8516-79.8828 97.7539-79.7363 97.6074-79.4922L121.24-55.8594C120.508-59.9121 120.215-63.7695 120.459-67.334ZM32.1777-62.207C34.2285-61.7676 36.4258-63.0859 36.8164-65.2832C37.207-67.4316 35.9375-69.4336 33.7402-69.9219L16.1133-73.7305C13.8184-74.2188 11.6699-72.7051 11.3281-70.4102C11.0352-68.3105 12.4023-66.3574 14.4531-65.918ZM172.168 24.707C185.889 10.9863 189.111-3.95508 182.764-22.168C179.59-32.8613 173.535-44.5312 167.822-55.0781C165.332-59.9121 162.305-65.9668 160.352-68.0664C157.959-70.752 154.492-70.8008 151.807-68.4082C150.684-67.4805 150-66.3574 149.609-65.0879C151.074-62.3535 152.49-59.6191 153.955-56.8848C159.277-46.9727 165.332-35.1074 168.213-24.2188C175.244-3.02734 171.191 14.9902 155.518 30.6641C152.588 33.5938 149.463 36.084 146.24 38.1836C155.566 36.9629 164.6 32.3242 172.168 24.707Z"/>
  </g>
  <g id="Regular-L" transform="matrix(1 0 0 1 1353.34 1556)">
   <path d="M61.7188-88.8672C63.5742-89.2578 64.8438-91.1621 64.4531-92.9199L60.498-111.133C60.1074-113.037 58.252-114.16 56.3965-113.77C54.5898-113.428 53.2715-111.572 53.6621-109.717L57.6172-91.5527C58.0078-89.7461 59.8145-88.4277 61.7188-88.8672ZM38.8672-82.3242C40.1855-80.957 42.3828-80.957 43.7012-82.3242C45.0195-83.6914 45.0684-85.8398 43.7012-87.207L30.5176-100.391C29.1016-101.807 27.002-101.758 25.6836-100.391C24.3164-99.0234 24.2188-96.9727 25.6836-95.5078ZM85.9863 23.291C105.713 43.0664 129.736 41.4062 146.973 24.1211C161.035 10.0586 164.014-5.37109 156.543-24.2676C152.979-34.0332 147.705-44.2383 141.553-55.5664C139.355-59.7168 136.768-64.8926 134.961-66.6992C132.617-69.043 129.395-68.8477 127.002-66.4551C124.463-63.916 124.414-60.7422 126.367-55.2246L133.594-35.9863C134.473-33.6914 134.229-32.3242 133.398-31.4941C132.373-30.4688 130.957-30.3223 129.199-32.1289L83.4961-77.832C81.0059-80.3223 76.8555-80.3223 74.3652-77.832C71.875-75.3418 71.875-71.2402 74.3652-68.7012L106.885-36.1816C105.127-35.4004 103.32-34.4238 101.562-33.252L63.3789-71.4844C60.8398-73.9746 56.7383-73.9746 54.248-71.4844C51.7578-68.9941 51.7578-64.8926 54.248-62.3535L91.9434-24.6582C90.5273-22.998 89.209-21.2891 87.9883-19.5312L53.8086-53.7109C51.2695-56.25 47.168-56.25 44.6777-53.7109C42.1875-51.2207 42.1875-47.1191 44.6777-44.6289L81.7871-7.51953C80.957-5.17578 80.4199-2.97852 80.0293-0.878906L54.248-26.6602C51.7578-29.1504 47.6562-29.1504 45.1172-26.6602C42.627-24.1699 42.627-20.0684 45.1172-17.5781ZM118.555-63.8184L104.541-77.832C102.002-80.3223 97.8516-80.3223 95.4102-77.832C95.2637-77.6855 95.166-77.5391 95.0195-77.3438L120.605-51.709C119.482-55.957 118.75-59.9609 118.555-63.8184ZM32.373-61.6699C34.1309-61.3281 35.9863-62.4512 36.377-64.3555C36.7188-66.1621 35.5957-67.9199 33.6914-68.3594L15.4297-72.2656C13.4766-72.7051 11.5723-71.4355 11.3281-69.4336C11.084-67.627 12.207-65.8691 14.0625-65.5273ZM167.969 24.1699C182.08 10.0586 185.059-5.37109 177.588-24.2676C173.975-34.0332 168.701-44.2383 162.549-55.5664C160.352-59.7168 157.764-64.9414 155.957-66.6992C153.662-68.9941 150.439-68.7988 148.047-66.4551C147.168-65.625 146.582-64.6484 146.289-63.5742C147.559-61.2305 148.73-58.8867 150-56.5918C155.664-46.0449 160.693-36.084 163.916-26.6113C172.119-4.83398 168.506 13.623 152.441 29.6387C149.512 32.6172 146.338 35.1562 143.066 37.207C152.051 36.0352 160.693 31.4941 167.969 24.1699Z"/>
  </g>
  <g id="Light-L" transform="matrix(1 0 0 1 1058.97 1556)">
   <path d="M60.4492-87.8906C61.8652-88.2324 62.8906-89.7461 62.5977-91.0645L58.6426-109.326C58.3496-110.791 56.8848-111.67 55.4199-111.377C54.0039-111.133 52.9785-109.668 53.2715-108.203L57.2266-90.0391C57.5195-88.623 58.9355-87.5977 60.4492-87.8906ZM38.4277-81.0059C39.502-79.9316 41.2109-79.9316 42.2363-81.0059C43.2617-82.0801 43.3105-83.7891 42.2363-84.8145L29.0527-97.998C27.9297-99.1699 26.2695-99.0723 25.2441-97.998C24.1699-96.9727 24.1211-95.3125 25.2441-94.1895ZM84.7656 23.2422C104.639 43.1152 127.979 40.8691 144.629 24.2188C158.594 10.2539 161.768-6.15234 152.246-26.5625C148.145-36.084 142.871-45.8008 137.061-56.2012C135.4-59.2773 133.545-62.8418 132.178-64.209C129.932-66.4551 126.855-66.1621 124.658-63.9648C122.559-61.8652 122.217-59.0332 123.926-54.541L131.641-35.2051C132.715-32.6172 132.275-31.1035 131.348-30.1758C130.127-29.0039 128.467-28.8086 126.416-30.8105L82.0801-75.1465C79.7363-77.4902 75.8789-77.4902 73.5352-75.1465C71.2402-72.8516 71.2402-68.9941 73.5352-66.6504L104.883-35.3027C102.979-34.5703 101.025-33.5449 99.1699-32.3242L61.7188-69.8242C59.375-72.168 55.5176-72.168 53.1738-69.8242C50.8789-67.4805 50.8789-63.623 53.1738-61.2793L90.1367-24.3652C88.5254-22.5586 87.0605-20.6055 85.7422-18.75L52.6855-51.8066C50.3418-54.1016 46.4844-54.1016 44.1895-51.8066C41.8457-49.4629 41.8457-45.6055 44.1895-43.2617L79.9805-7.4707C79.0527-4.93164 78.4668-2.58789 78.125-0.390625L53.3203-25.2441C50.9766-27.5879 47.1191-27.5879 44.7754-25.2441C42.4805-22.9004 42.4805-19.043 44.7754-16.6992ZM117.529-58.8867L101.27-75.1953C98.9258-77.4902 95.0195-77.4902 92.7734-75.1953C92.5293-74.9512 92.3828-74.7559 92.1875-74.4629L121.533-45.166C119.922-49.8535 118.555-54.4434 117.529-58.8867ZM31.7383-60.7422C33.1055-60.4492 34.5703-61.3281 34.8633-62.793C35.1562-64.2578 34.2773-65.625 32.8125-65.9668L14.5508-69.9219C12.9883-70.2148 11.4746-69.2383 11.2793-67.6758C11.1328-66.2598 11.9629-64.8926 13.4277-64.5996ZM163.818 24.2188C177.783 10.2539 180.908-6.15234 171.436-26.5625C167.285-36.084 162.012-45.8008 156.201-56.1523C154.541-59.3262 152.686-62.8418 151.318-64.209C149.121-66.4062 146.045-66.1133 143.848-63.9648C143.018-63.1348 142.48-62.207 142.236-61.084C143.311-59.1309 144.336-57.1777 145.459-55.2246C150.488-46.0938 155.078-37.3535 158.447-28.9062C168.408-6.5918 165.527 12.7441 149.316 28.9062C146.045 32.2266 142.529 34.9609 138.867 37.1094C147.9 36.0352 156.543 31.4941 163.818 24.2188Z"/>
  </g>
  <g id="Thin-L" transform="matrix(1 0 0 1 765.358 1556)">
   <path d="M58.7402-86.6699C59.668-86.8652 60.3516-87.8906 60.1562-88.6719L56.2012-106.934C56.0059-107.861 55.0781-108.447 54.1504-108.252C53.1738-108.057 52.5391-107.129 52.7344-106.25L56.6895-87.9883C56.8848-87.1094 57.8125-86.4746 58.7402-86.6699ZM37.8418-79.248C38.5254-78.5645 39.6484-78.5645 40.332-79.248C40.9668-79.9316 40.9668-81.0059 40.332-81.6895L27.0996-94.873C26.3672-95.6543 25.3418-95.5566 24.6582-94.873C24.0234-94.2383 23.9258-93.1641 24.6582-92.4316ZM83.1055 23.1445C103.174 43.2129 125.684 40.1367 141.553 24.2676C155.322 10.498 158.74-7.22656 146.582-29.6387C141.748-38.7695 136.523-47.9004 131.152-57.0312C130.176-58.7402 129.248-60.1074 128.467-60.8887C126.367-62.9883 123.535-62.5977 121.582-60.6934C120.02-59.082 119.336-56.7871 120.703-53.6621L129.102-34.1797C130.42-31.25 129.736-29.541 128.662-28.418C127.197-27.002 125.098-26.7578 122.754-29.1016L80.1758-71.6309C78.0762-73.7793 74.6094-73.7793 72.4609-71.6309C70.3613-69.5312 70.3613-66.0645 72.4609-63.916L102.246-34.1797C100.098-33.4473 97.998-32.373 95.9961-31.1035L59.5215-67.627C57.4219-69.7266 53.9062-69.7266 51.8066-67.627C49.707-65.4785 49.707-62.0117 51.8066-59.9121L87.7441-23.9746C85.9375-21.9238 84.2285-19.7754 82.7637-17.6758L51.2207-49.2188C49.1211-51.3184 45.6055-51.3184 43.5059-49.2188C41.3574-47.1191 41.3574-43.6035 43.5059-41.5039L77.5879-7.37305C76.5625-4.54102 75.9277-2.05078 75.6348 0.244141L52.0508-23.3398C49.9512-25.4395 46.4355-25.4395 44.3359-23.3398C42.2363-21.2402 42.2363-17.7246 44.3359-15.625ZM116.162-52.4414L96.9238-71.6797C94.8242-73.7305 91.3086-73.7305 89.209-71.6797C88.916-71.3867 88.7207-71.0938 88.4766-70.7031L122.705-36.5234C120.459-41.8457 118.262-47.168 116.162-52.4414ZM30.9082-59.4727C31.7871-59.2773 32.7148-59.8633 32.9102-60.791C33.1055-61.7676 32.5195-62.5977 31.5918-62.793L13.3301-66.748C12.3535-66.9434 11.377-66.3574 11.2793-65.3809C11.1328-64.4531 11.6699-63.5254 12.6465-63.3301ZM158.252 24.3164C172.07 10.498 175.488-7.17773 163.281-29.6387C158.447-38.8184 153.174-47.8516 147.852-56.9824C146.875-58.7402 145.947-60.1074 145.166-60.9375C143.115-62.9395 140.234-62.5977 138.33-60.6934C137.5-59.8633 137.012-58.9844 136.865-57.8613C137.695-56.3477 138.574-54.834 139.404-53.3691C143.604-46.1914 147.607-39.0625 151.221-31.9824C163.477-8.93555 161.621 11.5234 145.215 27.9297C141.455 31.6895 137.5 34.7656 133.35 36.9629C142.432 36.0352 151.074 31.4941 158.252 24.3164Z"/>
  </g>
  <g id="Ultralight-L" transform="matrix(1 0 0 1 470.234 1556)">
   <path d="M57.8613-86.0352C58.5449-86.1816 59.0332-86.9141 58.8867-87.4512L54.9316-105.664C54.834-106.348 54.1504-106.787 53.4668-106.641C52.7832-106.494 52.3438-105.811 52.4414-105.225L56.3965-86.9629C56.543-86.377 57.2266-85.8887 57.8613-86.0352ZM37.5488-78.3203C38.0371-77.8809 38.8672-77.8809 39.3066-78.3203C39.7949-78.8086 39.7949-79.6387 39.3066-80.0781L26.123-93.2617C25.5859-93.8477 24.8535-93.75 24.3652-93.2617C23.9258-92.8223 23.8281-92.0898 24.3652-91.5527ZM82.2754 23.0957C102.441 43.2617 124.512 39.7461 139.941 24.3164C153.662 10.5957 157.227-7.76367 143.701-31.2012C138.477-40.1855 133.301-48.9258 128.125-57.4707C127.49-58.4473 127.051-58.7402 126.562-59.2285C124.561-61.2305 121.826-60.791 119.971-58.9844C118.701-57.7148 117.871-55.6152 119.043-53.2227L127.783-33.6914C129.248-30.5176 128.418-28.7109 127.246-27.5391C125.732-25.9766 123.389-25.6836 120.898-28.2227L79.248-69.8242C77.2461-71.8262 73.9258-71.8262 71.9238-69.8242C69.9219-67.8711 69.9219-64.5508 71.9238-62.5488L100.879-33.5938C98.6328-32.8613 96.4844-31.7383 94.3848-30.5176L58.3984-66.4551C56.3965-68.457 53.0762-68.457 51.0742-66.4551C49.1211-64.502 49.1211-61.1816 51.0742-59.1797L86.5234-23.7793C84.5703-21.582 82.7637-19.3359 81.25-17.1387L50.4395-47.9004C48.4375-49.9023 45.1172-49.9023 43.1641-47.9004C41.1621-45.8984 41.1621-42.5781 43.1641-40.5762L76.3672-7.37305C75.293-4.39453 74.6582-1.75781 74.3652 0.585938L51.416-22.3633C49.4141-24.3652 46.0938-24.3652 44.0918-22.3633C42.0898-20.3613 42.0898-17.041 44.0918-15.0391ZM115.479-49.1211L94.6777-69.873C92.7734-71.8262 89.3555-71.8262 87.4023-69.873C87.0605-69.5312 86.8164-69.1895 86.5723-68.75L123.34-32.0801C120.752-37.6953 118.164-43.457 115.479-49.1211ZM30.5176-58.8379C31.1035-58.6914 31.7871-59.1309 31.9336-59.7656C32.0312-60.4492 31.6406-61.0352 30.957-61.1816L12.7441-65.1367C12.0605-65.2832 11.2793-64.8926 11.2305-64.209C11.1816-63.5254 11.4746-62.8418 12.2559-62.6953ZM155.42 24.3164C169.141 10.6445 172.656-7.71484 159.131-31.2012C153.906-40.1855 148.682-48.877 143.555-57.4219C142.92-58.4473 142.529-58.7402 142.041-59.2285C140.039-61.1816 137.305-60.791 135.498-58.9844C134.717-58.2031 134.229-57.3242 134.082-56.2012C134.814-54.9316 135.596-53.6621 136.328-52.4414C140.088-46.2402 143.799-39.9414 147.559-33.5449C160.986-10.1074 159.619 10.9375 143.066 27.4414C139.111 31.4453 134.912 34.6191 130.518 36.9141C139.6 36.084 148.291 31.4941 155.42 24.3164Z"/>
  </g>
  <g id="Black-M" transform="matrix(1 0 0 1 2846.19 1126)">
   <path d="M51.6113-84.2285C54.5898-84.9121 56.4453-87.9395 55.8105-90.8203L53.6133-101.172C52.9785-104.15 50.0977-106.104 47.0703-105.469C44.043-104.834 42.0898-101.807 42.7246-98.877L44.9707-88.5254C45.6055-85.5469 48.5352-83.4961 51.6113-84.2285ZM29.1016-77.2949C31.2988-75.0977 34.8145-75.0977 36.8652-77.2949C38.9648-79.4922 39.1113-82.9102 36.8652-85.1074L29.3457-92.627C27.1484-94.8242 23.7793-94.8242 21.5332-92.627C19.3359-90.4297 19.3359-87.0117 21.5332-84.8145ZM72.9492 15.2344C89.7949 32.0801 112.695 29.7363 128.223 14.209C136.768 5.66406 140.869-4.00391 140.674-15.2344C140.43-28.2715 131.348-44.8242 129.443-48.584C126.123-55.127 121.826-63.3789 119.922-66.6504C117.676-70.459 113.672-71.8262 110.254-69.9219C106.299-67.7734 105.273-63.7695 106.592-60.498L113.33-43.75C113.721-42.7734 113.623-42.4316 113.281-42.0898C112.988-41.7969 112.5-41.6504 111.768-42.3828L73.9746-80.1758C70.8008-83.3008 66.5039-83.3008 63.3789-80.2246C60.3027-77.1484 60.3027-72.7051 63.4277-69.6289L93.0664-39.9902C92.1875-39.5508 91.3086-39.1113 90.4297-38.5742L56.8359-72.168C53.7109-75.293 49.3652-75.293 46.2891-72.168C43.1641-69.0918 43.1641-64.7461 46.2891-61.6211L79.541-28.3691C78.9551-27.6367 78.3203-26.9043 77.7344-26.1719L46.9727-56.9336C43.8965-60.0098 39.4043-60.0586 36.377-56.9824C33.3008-53.9062 33.3496-49.4629 36.4258-46.3867L69.6289-13.1836C69.1895-12.207 68.8477-11.2793 68.457-10.3027L45.2637-33.5449C42.1387-36.6699 37.7441-36.7188 34.668-33.6426C31.5918-30.5176 31.5918-26.123 34.668-22.998ZM102.93-76.3184L99.0723-80.127C95.8984-83.3496 91.5527-83.3008 88.4766-80.2246C88.2812-80.0293 88.0371-79.7852 87.8906-79.4922L97.8027-69.5801C98.9258-72.168 100.635-74.4629 102.93-76.3184ZM23.6816-58.3984C26.6113-57.8125 29.6387-59.7168 30.127-62.6953C30.6152-65.7227 28.8574-68.5547 25.8789-69.1406L15.4297-71.3867C12.207-72.0703 9.27734-70.0195 8.74023-66.7969C8.30078-63.8672 10.2539-61.1328 13.1348-60.5957ZM153.32 14.1602C161.816 5.66406 165.967-4.00391 165.723-15.2344C165.381-28.2715 156.445-44.8242 154.541-48.6328C151.27-55.0781 146.924-63.3789 144.971-66.6504C142.725-70.4102 138.721-71.7773 135.303-69.9219C133.154-68.7012 131.885-67.041 131.396-65.1855C133.545-61.084 135.693-56.9336 137.842-52.832C139.746-49.1699 149.658-30.7617 150.049-15.4297C150.342-1.61133 145.166 10.498 134.912 20.8008C132.617 23.0957 130.371 25 128.027 26.7578C137.109 25.8789 146.045 21.5332 153.32 14.1602Z"/>
  </g>
  <g id="Heavy-M" transform="matrix(1 0 0 1 2552.09 1126)">
   <path d="M50.8789-82.5684C53.5645-83.2031 55.2734-85.8887 54.6875-88.4766L52.2461-99.7559C51.709-102.393 49.1211-104.15 46.4355-103.564C43.7012-103.027 41.9434-100.342 42.5293-97.6562L44.9219-86.4746C45.5078-83.7891 48.1445-81.9824 50.8789-82.5684ZM29.3945-76.1719C31.3477-74.2188 34.5215-74.2188 36.377-76.1719C38.2324-78.125 38.3301-81.1523 36.377-83.1543L28.2227-91.3086C26.2207-93.3105 23.1934-93.2617 21.2402-91.3086C19.2383-89.3555 19.2383-86.3281 21.2402-84.3262ZM71.6309 14.0625C88.0859 30.5176 110.059 28.5156 125.146 13.3789C134.277 4.29688 137.939-5.81055 136.67-17.627C135.889-29.4434 127.979-43.9941 125.391-49.0723C122.363-54.9805 118.555-62.4512 116.65-65.332C114.502-68.6523 110.84-69.6777 107.764-67.7734C104.199-65.625 103.467-61.9141 104.883-58.252L111.279-41.9922C111.719-40.8691 111.621-40.3809 111.23-39.9414C110.84-39.5508 110.254-39.4531 109.375-40.2832L71.9727-77.7344C69.0918-80.6152 64.9902-80.6152 62.1094-77.7344C59.3262-74.9023 59.3262-70.752 62.1582-67.9199L90.918-39.1602C89.9414-38.6719 88.9648-38.1836 87.9883-37.5488L55.2246-70.3125C52.3926-73.1934 48.291-73.1934 45.4102-70.3125C42.5781-67.4805 42.5781-63.3789 45.4102-60.498L77.832-28.125C77.1484-27.2461 76.416-26.416 75.7812-25.5371L45.8496-55.4688C43.0664-58.3008 38.8184-58.3008 36.0352-55.5176C33.2031-52.6855 33.252-48.4863 36.0352-45.6543L68.4082-13.3301C67.9199-12.207 67.5293-11.084 67.1875-9.96094L44.6289-32.5684C41.748-35.4004 37.6465-35.4492 34.8145-32.6172C31.9336-29.7852 31.9336-25.6348 34.8145-22.7539ZM100.439-72.5098L95.2637-77.6855C92.334-80.6152 88.2324-80.5664 85.4004-77.7344C85.2539-77.5879 85.0586-77.3926 84.9121-77.1484L96.6797-65.3809C97.3633-68.0664 98.6328-70.459 100.439-72.5098ZM24.0723-57.9102C26.709-57.373 29.3945-59.082 29.8828-61.7188C30.3223-64.4531 28.7598-66.9434 26.0254-67.5293L14.7461-69.9707C11.8652-70.5566 9.17969-68.7012 8.74023-65.8203C8.34961-63.1836 10.1074-60.791 12.6953-60.2539ZM148.438 13.3789C157.52 4.24805 161.182-5.81055 159.912-17.627C159.082-29.3945 151.27-43.9941 148.633-49.0723C145.654-54.9316 141.797-62.4512 139.941-65.332C137.744-68.6523 134.082-69.6289 131.006-67.7734C129.199-66.6992 128.125-65.2344 127.686-63.623C129.59-60.0098 131.445-56.3477 133.35-52.7832C135.938-47.8516 144.482-31.7871 145.361-18.2129C146.826-3.75977 142.139 8.78906 131.348 19.5312C129.15 21.7773 126.904 23.6816 124.512 25.3906C133.105 24.5117 141.553 20.3125 148.438 13.3789Z"/>
  </g>
  <g id="Bold-M" transform="matrix(1 0 0 1 2258.31 1126)">
   <path d="M50.0977-80.7617C52.3926-81.2988 53.9062-83.6426 53.418-85.8887L50.7812-98.1445C50.293-100.439 47.998-101.953 45.6543-101.465C43.3594-100.977 41.7969-98.6328 42.2852-96.3379L44.9219-84.1309C45.4102-81.8359 47.7051-80.2246 50.0977-80.7617ZM29.7363-74.9023C31.4453-73.1934 34.1797-73.1934 35.791-74.9023C37.4023-76.6113 37.5-79.248 35.791-80.957L26.9043-89.8438C25.1953-91.6016 22.5586-91.5527 20.8496-89.8438C19.1406-88.1348 19.0918-85.498 20.8496-83.7891ZM70.166 12.6953C86.1816 28.7598 107.129 27.0996 121.729 12.5C131.494 2.73438 134.619-7.8125 132.227-20.3125C130.859-30.7129 124.268-43.0664 120.85-49.6094C118.164-54.7852 114.844-61.377 113.037-63.8672C110.986-66.6992 107.666-67.2852 104.98-65.3809C101.904-63.1836 101.465-59.8633 102.93-55.8105L108.984-39.9902C109.473-38.7207 109.375-38.0371 108.887-37.5977C108.398-37.1094 107.715-36.9629 106.738-37.9883L69.7266-74.9512C67.1387-77.5391 63.3301-77.5391 60.7422-75C58.2031-72.4609 58.2031-68.5547 60.7422-65.9668L88.5254-38.2324C87.4512-37.6953 86.3281-37.1094 85.2539-36.4258L53.418-68.2129C50.8789-70.8008 47.0215-70.8008 44.4336-68.2129C41.8945-65.6738 41.8945-61.8164 44.4336-59.2773L75.9277-27.7832C75.1465-26.8066 74.3164-25.8301 73.6328-24.8535L44.6289-53.8086C42.0898-56.3477 38.1836-56.3965 35.6445-53.8086C33.1055-51.2695 33.1055-47.3633 35.6445-44.8242L67.041-13.4766C66.5039-12.1582 66.1133-10.8887 65.7715-9.61914L43.8965-31.4941C41.3574-34.0332 37.5-34.082 34.9121-31.543C32.373-28.9551 32.373-25.0488 34.9121-22.5098ZM97.7051-68.2617L90.9668-74.9512C88.3301-77.5391 84.5215-77.5391 81.9824-75C81.8359-74.8535 81.6895-74.707 81.5918-74.5117L95.4102-60.6445C95.6543-63.4277 96.3867-66.0156 97.7051-68.2617ZM24.5605-57.3242C26.8066-56.8848 29.1504-58.3496 29.5898-60.6445C29.9805-62.9883 28.6133-65.1855 26.2695-65.7227L13.9648-68.3594C11.4746-68.8965 9.13086-67.2363 8.74023-64.7461C8.44727-62.5 9.91211-60.3516 12.207-59.9121ZM142.969 12.5C152.686 2.68555 155.859-7.8125 153.418-20.3125C152.002-30.7129 145.508-43.0664 142.041-49.6094C139.404-54.7852 136.035-61.377 134.229-63.8184C132.178-66.6504 128.906-67.2852 126.221-65.3809C124.805-64.4531 123.926-63.2324 123.535-61.8652C125.146-58.8379 126.709-55.7129 128.32-52.6855C131.689-46.3867 138.721-32.959 140.088-21.3379C142.92-6.15234 138.721 6.83594 127.393 18.1152C125.244 20.3125 122.998 22.2168 120.605 23.877C128.662 22.9492 136.475 18.9941 142.969 12.5Z"/>
  </g>
  <g id="Semibold-M" transform="matrix(1 0 0 1 1963.6 1126)">
   <path d="M49.5117-79.4922C51.6113-79.9805 52.9785-82.1289 52.5391-84.082L49.7559-97.0215C49.3164-99.1211 47.2656-100.439 45.166-100C43.0664-99.6094 41.6504-97.5098 42.1387-95.4102L44.9219-82.5684C45.3613-80.4688 47.4121-79.0527 49.5117-79.4922ZM29.9316-74.0234C31.4941-72.5098 33.9355-72.5098 35.4004-74.0234C36.8652-75.5371 36.9141-77.9297 35.4004-79.4434L26.0254-88.8184C24.4629-90.4297 22.1191-90.3809 20.6055-88.8184C19.043-87.3047 18.9941-84.9609 20.6055-83.3984ZM69.1406 11.7676C84.8633 27.5391 105.078 26.123 119.385 11.8652C129.59 1.66016 132.373-9.22852 129.102-22.168C127.393-31.5918 121.68-42.4316 117.676-49.9512C115.283-54.6387 112.305-60.6445 110.547-62.8418C108.545-65.332 105.518-65.6738 103.076-63.7207C100.342-61.5234 100.049-58.4473 101.611-54.1016L107.373-38.623C107.91-37.2559 107.812-36.4746 107.324-35.9375C106.738-35.4004 105.957-35.3027 104.883-36.377L68.2129-73.0469C65.8203-75.4395 62.1582-75.4395 59.7656-73.0957C57.4219-70.7031 57.4219-67.041 59.8145-64.6484L86.8652-37.5977C85.7422-37.0117 84.5215-36.377 83.3496-35.5957L52.1973-66.7969C49.8047-69.1895 46.1914-69.1895 43.7988-66.7969C41.4062-64.4043 41.4062-60.7422 43.7988-58.3984L74.6094-27.5879C73.7305-26.5137 72.9004-25.4395 72.1191-24.3652L43.7988-52.6855C41.4551-55.0293 37.7441-55.0293 35.4004-52.6855C33.0078-50.3418 33.0078-46.6309 35.4004-44.2383L66.0645-13.5742C65.5273-12.1582 65.1367-10.7422 64.7949-9.32617L43.4082-30.7129C41.0645-33.1055 37.4023-33.1055 35.0098-30.7617C32.666-28.3691 32.666-24.707 35.0098-22.3145ZM95.8008-65.2832L88.0371-73.0957C85.5957-75.4395 81.9336-75.4395 79.5898-73.0957C79.4922-72.9492 79.3457-72.8516 79.248-72.7051L94.5312-57.4219C94.4336-60.3027 94.873-62.8906 95.8008-65.2832ZM24.8535-56.9336C26.9043-56.543 29.0039-57.8125 29.3945-59.9121C29.7363-62.0117 28.5156-64.0137 26.3672-64.4531L13.4277-67.2363C11.1816-67.7246 9.08203-66.2598 8.78906-64.0137C8.49609-62.0117 9.81445-60.0586 11.8164-59.668ZM139.16 11.8652C149.365 1.66016 152.197-9.22852 148.926-22.168C147.168-31.5918 141.504-42.4316 137.5-50C135.107-54.6387 132.08-60.6934 130.322-62.8418C128.369-65.2832 125.342-65.625 122.9-63.7207C121.777-62.8906 121.045-61.8164 120.703-60.6934C122.07-58.0078 123.486-55.3223 124.854-52.6367C128.711-45.3613 134.717-33.7402 136.475-23.4863C140.234-7.8125 136.377 5.51758 124.707 17.1387C122.51 19.2871 120.264 21.1914 117.92 22.8027C125.586 21.875 132.959 18.0664 139.16 11.8652Z"/>
  </g>
  <g id="Medium-M" transform="matrix(1 0 0 1 1668.43 1126)">
   <path d="M49.1211-78.5645C50.9766-79.0039 52.2949-80.957 51.8555-82.7637L48.9746-96.1914C48.5352-98.0957 46.6797-99.2676 44.7754-98.877C42.8711-98.5352 41.6016-96.6309 41.9922-94.7266L44.9219-81.3477C45.3125-79.4434 47.168-78.125 49.1211-78.5645ZM30.127-73.3398C31.543-71.9727 33.7891-71.9727 35.1074-73.3398C36.4258-74.7559 36.4746-76.9531 35.1074-78.3203L25.3418-88.0859C23.9258-89.502 21.7773-89.4531 20.4102-88.0859C18.9941-86.6699 18.9453-84.5215 20.4102-83.1055ZM68.3594 11.084C83.8867 26.6113 103.516 25.3906 117.578 11.377C128.125 0.830078 130.664-10.2539 126.807-23.584C124.756-32.2754 119.727-41.9434 115.332-50.2441C113.086-54.541 110.352-60.1074 108.643-62.0605C106.738-64.2578 103.857-64.4043 101.66-62.5C99.1211-60.3027 99.0234-57.373 100.635-52.7832L106.201-37.5977C106.738-36.1328 106.641-35.2539 106.104-34.7168C105.469-34.082 104.639-33.9844 103.516-35.1562L67.041-71.6309C64.7949-73.877 61.2793-73.877 59.0332-71.6309C56.8359-69.4336 56.8359-65.8691 59.0332-63.6719L85.5957-37.1094C84.4238-36.5234 83.1543-35.8398 81.9336-35.0098L51.2695-65.6738C49.0234-67.9199 45.5078-67.9199 43.3105-65.6738C41.0645-63.4766 41.0645-59.9609 43.3105-57.7148L73.584-27.3926C72.6562-26.3184 71.7773-25.1465 70.9473-23.9746L43.1641-51.8066C40.918-54.0039 37.4023-54.0527 35.1562-51.8066C32.959-49.6094 32.959-46.0449 35.2051-43.8477L65.3809-13.6719C64.7949-12.1094 64.4043-10.5957 64.0625-9.13086L43.0664-30.1758C40.8203-32.373 37.3047-32.373 35.1074-30.1758C32.8613-27.9297 32.8613-24.4141 35.1074-22.168ZM94.3359-63.0859L85.791-71.6309C83.5449-73.877 79.9805-73.8281 77.7832-71.6309C77.6855-71.5332 77.5879-71.4355 77.4902-71.2891L93.8477-54.9316C93.5547-57.8613 93.7012-60.5957 94.3359-63.0859ZM25.0977-56.6406C26.9531-56.25 28.8574-57.4707 29.1992-59.375C29.5898-61.2793 28.418-63.0859 26.5137-63.4766L13.0371-66.4062C10.9863-66.8457 9.08203-65.5273 8.78906-63.4766C8.49609-61.6211 9.7168-59.8633 11.5723-59.4727ZM136.279 11.377C146.826 0.830078 149.414-10.2539 145.557-23.584C143.457-32.2754 138.477-41.9434 134.033-50.2441C131.836-54.5898 129.102-60.1562 127.344-62.0605C125.439-64.2578 122.607-64.4043 120.361-62.5C119.434-61.7188 118.848-60.791 118.506-59.7656C119.775-57.4219 120.996-54.9805 122.266-52.6367C126.514-44.5801 131.689-34.375 133.74-25.0977C138.184-9.0332 134.619 4.49219 122.607 16.4062C120.508 18.5547 118.213 20.4102 115.918 21.9727C123.242 21.0449 130.322 17.3828 136.279 11.377Z"/>
  </g>
  <g id="Regular-M" transform="matrix(1 0 0 1 1373.72 1126)">
   <path d="M48.5352-77.3438C50.1953-77.6855 51.3672-79.3945 50.9766-80.957L47.9492-95.0684C47.5586-96.7773 45.9473-97.8027 44.2871-97.4609C42.627-97.1191 41.4551-95.5078 41.8457-93.7988L44.873-79.7363C45.2637-78.125 46.875-76.9531 48.5352-77.3438ZM30.3711-72.5098C31.5918-71.2891 33.5449-71.2891 34.7168-72.5098C35.8887-73.7305 35.9375-75.6348 34.7168-76.8555L24.4629-87.0605C23.1934-88.3301 21.3379-88.2812 20.1172-87.0605C18.8965-85.8398 18.8477-83.9844 20.1172-82.7148ZM67.334 10.1562C82.5684 25.3906 101.514 24.4629 115.234 10.7422C126.221-0.244141 128.418-11.6211 123.73-25.3906C121.289-33.1543 117.188-41.3574 112.207-50.6348C110.205-54.4434 107.812-59.4238 106.201-61.084C104.297-62.9395 101.709-62.793 99.7559-60.8398C97.5586-58.6426 97.6562-56.0059 99.3164-51.123L104.639-36.2305C105.225-34.668 105.078-33.6914 104.541-33.1055C103.809-32.4219 102.93-32.3242 101.709-33.5449L65.4785-69.7754C63.4766-71.7773 60.1562-71.7773 58.1055-69.7754C56.0547-67.7246 56.0547-64.4043 58.1055-62.3535L83.9844-36.4746C82.7148-35.8887 81.3965-35.1562 80.0781-34.2285L50.0488-64.2578C47.998-66.3086 44.6777-66.3086 42.627-64.2578C40.5762-62.2559 40.5762-58.8867 42.627-56.8848L72.3145-27.1973C71.2891-26.0254 70.3613-24.8047 69.4824-23.5352L42.334-50.6836C40.2832-52.6855 36.9629-52.6855 34.9121-50.6836C32.8613-48.6328 32.8613-45.3125 34.9121-43.2617L64.4043-13.7695C63.8184-12.1094 63.4277-10.4492 63.0859-8.88672L42.5781-29.3945C40.5273-31.4453 37.207-31.4453 35.1562-29.3945C33.1543-27.3926 33.1543-24.0234 35.1562-22.0215ZM92.4805-60.1562L82.8613-69.7754C80.8105-71.7773 77.4414-71.7773 75.4395-69.7754C75.3418-69.6777 75.293-69.6289 75.2441-69.4824L92.9688-51.709C92.3828-54.7363 92.1387-57.5195 92.4805-60.1562ZM25.4395-56.25C27.002-55.957 28.7109-56.9336 29.0039-58.6426C29.3457-60.3027 28.3203-61.8652 26.6113-62.2559L12.5-65.2832C10.6934-65.6738 9.0332-64.502 8.78906-62.7441C8.54492-61.1328 9.61914-59.5703 11.2305-59.2285ZM132.568 10.791C143.555-0.244141 145.752-11.6699 141.113-25.4395C138.623-33.1543 134.521-41.3086 129.541-50.6348C127.588-54.4434 125.146-59.4238 123.486-61.0352C121.631-62.8906 119.092-62.793 117.09-60.8398C116.455-60.2051 115.967-59.4238 115.674-58.5938C116.748-56.5918 117.773-54.541 118.848-52.5879C123.584-43.6035 127.734-35.1562 130.127-27.2461C135.498-10.6934 132.275 3.17383 119.922 15.4297C117.822 17.5781 115.576 19.3848 113.232 20.9473C120.166 19.9707 126.855 16.4551 132.568 10.791Z"/>
  </g>
  <g id="Light-M" transform="matrix(1 0 0 1 1079.11 1126)">
   <path d="M47.4121-76.4648C48.6816-76.7578 49.6094-78.125 49.3164-79.3457L46.2891-93.457C45.9961-94.7754 44.6777-95.5566 43.4082-95.3125C42.0898-95.0684 41.1621-93.75 41.4551-92.4805L44.5312-78.3691C44.8242-77.0996 46.0449-76.1719 47.4121-76.4648ZM29.9805-71.2891C30.9082-70.3613 32.4707-70.3613 33.3984-71.2891C34.3262-72.2656 34.3262-73.7793 33.3984-74.707L23.1445-84.9609C22.168-85.9375 20.7031-85.8887 19.7266-84.9609C18.7988-83.9844 18.75-82.5195 19.7266-81.543ZM66.2109 10.1074C81.5918 25.4395 99.9512 23.9746 113.135 10.791C124.023-0.0488281 126.367-12.3535 119.922-27.4902C116.943-34.9609 112.891-42.7246 108.203-51.1719C106.689-54.0527 104.932-57.5684 103.662-58.8379C101.904-60.5957 99.4629-60.4004 97.6562-58.5938C95.8496-56.7871 95.7031-54.4434 97.1191-50.4883L102.881-35.5469C103.662-33.6914 103.369-32.5684 102.686-31.8848C101.855-31.0547 100.684-30.9082 99.2188-32.373L64.209-67.3828C62.3535-69.2383 59.2285-69.2383 57.373-67.3828C55.4688-65.4785 55.4688-62.4023 57.373-60.498L82.1777-35.6934C80.7617-35.1074 79.3457-34.3262 77.9297-33.3984L48.5352-62.793C46.6797-64.6484 43.5547-64.6484 41.6992-62.793C39.7949-60.8887 39.7949-57.8125 41.6992-55.9082L70.6543-26.9531C69.5312-25.5859 68.4082-24.2188 67.4316-22.8027L41.3086-48.9258C39.4531-50.8301 36.3281-50.8301 34.4727-48.9258C32.5684-47.0703 32.5684-43.9453 34.4727-42.0898L62.793-13.7207C62.1094-11.8652 61.6699-10.1074 61.377-8.44727L41.748-28.125C39.8438-30.0293 36.7676-30.0293 34.8633-28.125C32.959-26.2207 32.959-23.1445 34.8633-21.2402ZM91.5527-55.7617L79.9316-67.3828C78.0273-69.2383 74.9023-69.2383 73.0469-67.3828C72.9004-67.2363 72.8027-67.0898 72.7051-66.9434L93.75-45.8496C92.7246-49.2676 91.9434-52.5879 91.5527-55.7617ZM24.8535-55.4199C26.123-55.1758 27.4414-55.957 27.6855-57.2754C27.9297-58.5938 27.1484-59.8145 25.8301-60.1074L11.6699-63.1836C10.2539-63.4277 8.93555-62.5488 8.74023-61.1816C8.59375-59.9121 9.375-58.6426 10.6934-58.3984ZM128.809 10.8398C139.697-0.0488281 142.041-12.3535 135.596-27.4902C132.617-35.0098 128.564-42.7246 123.877-51.1719C122.363-54.0527 120.605-57.5684 119.336-58.7891C117.578-60.5469 115.137-60.4004 113.33-58.6426C112.695-57.959 112.256-57.2266 112.061-56.3965C112.939-54.6875 113.818-52.9785 114.746-51.3184C118.945-43.6523 122.705-36.3281 125.244-29.2969C132.178-12.2559 129.59 2.34375 117.139 14.7949C114.697 17.1875 112.158 19.2383 109.473 20.8496C116.455 19.9707 123.145 16.4551 128.809 10.8398Z"/>
  </g>
  <g id="Thin-M" transform="matrix(1 0 0 1 785.206 1126)">
   <path d="M45.8984-75.3418C46.7285-75.5371 47.3145-76.4648 47.1191-77.1484L44.0918-91.3086C43.8965-92.1387 43.0664-92.6758 42.2363-92.4805C41.4062-92.334 40.7715-91.5039 40.9668-90.6738L44.043-76.5625C44.1895-75.7812 45.0195-75.1953 45.8984-75.3418ZM29.4434-69.7266C30.0293-69.1406 31.0547-69.1406 31.6406-69.7266C32.2266-70.3125 32.2266-71.3379 31.6406-71.9238L21.4355-82.1289C20.752-82.8125 19.8242-82.7637 19.2383-82.1289C18.6523-81.543 18.5547-80.6152 19.2383-79.9316ZM64.7461 10.0098C80.2734 25.5371 97.9004 23.3398 110.352 10.8887C121.094 0.146484 123.682-13.2812 114.844-30.2246C111.23-37.4023 107.178-44.5801 102.881-51.9531C102.002-53.5645 101.074-55.127 100.342-55.8594C98.6816-57.4707 96.4355-57.2266 94.873-55.6641C93.5547-54.3457 93.1152-52.3926 94.2383-49.707L100.586-34.668C101.562-32.4219 101.074-31.1523 100.244-30.3223C99.2188-29.2969 97.6562-29.1016 95.8984-30.8594L62.5488-64.209C60.8887-65.918 58.0566-65.918 56.3965-64.209C54.7363-62.5488 54.7363-59.7656 56.3965-58.0566L79.7852-34.668C78.1738-34.082 76.6113-33.252 75.0977-32.3242L46.582-60.791C44.9219-62.5 42.1387-62.5 40.4297-60.791C38.7695-59.1309 38.7695-56.3477 40.4297-54.6387L68.5059-26.5625C67.1387-25.0488 65.8691-23.4375 64.7949-21.8262L39.9902-46.6309C38.3301-48.291 35.498-48.291 33.8379-46.6309C32.1777-44.9707 32.1777-42.1387 33.8379-40.4785L60.6445-13.6719C59.8633-11.5234 59.375-9.61914 59.1309-7.86133L40.625-26.416C38.916-28.125 36.1328-28.125 34.4727-26.416C32.7637-24.7559 32.7637-21.9727 34.4727-20.2637ZM90.2832-49.9512L76.0254-64.209C74.3652-65.8691 71.5332-65.8691 69.9219-64.209C69.6777-64.0137 69.5312-63.8184 69.3359-63.5254L94.8242-38.0859C93.2129-42.0898 91.6992-46.0449 90.2832-49.9512ZM24.1211-54.2969C24.9023-54.1504 25.7812-54.6387 25.9277-55.4688C26.0742-56.3477 25.5859-57.1289 24.7559-57.2754L10.5957-60.3516C9.7168-60.498 8.83789-59.9609 8.74023-59.082C8.64258-58.252 9.08203-57.4707 9.96094-57.2754ZM123.828 10.8887C134.57 0.146484 137.158-13.2812 128.32-30.2246C124.707-37.4023 120.605-44.5312 116.357-51.9043C115.479-53.5645 114.551-55.127 113.818-55.8594C112.207-57.4707 109.961-57.1777 108.398-55.6641C107.764-55.0293 107.373-54.3457 107.227-53.4668C107.91-52.1973 108.643-50.9277 109.326-49.707C112.744-43.7012 116.016-37.8418 118.75-32.0312C127.783-14.3555 126.074 1.26953 113.428 13.9648C110.596 16.748 107.617 19.043 104.541 20.752C111.523 20.0195 118.262 16.4551 123.828 10.8887Z"/>
  </g>
  <g id="Ultralight-M" transform="matrix(1 0 0 1 489.911 1126)">
   <path d="M45.1172-74.8047C45.7031-74.9023 46.1426-75.5859 45.9961-76.0742L42.9688-90.1855C42.8223-90.8203 42.2363-91.1621 41.6016-91.0645C41.0156-90.918 40.5762-90.332 40.7227-89.7949L43.75-75.6348C43.8965-75.0977 44.4824-74.6582 45.1172-74.8047ZM29.1992-68.8965C29.5898-68.5059 30.3223-68.5059 30.7617-68.8965C31.2012-69.3359 31.2012-70.0684 30.7617-70.459L20.5566-80.7129C20.0684-81.2012 19.3848-81.1035 18.9453-80.7129C18.5547-80.2734 18.5059-79.6387 18.9453-79.1504ZM63.9648 9.96094C79.5898 25.5859 96.8262 22.998 108.936 10.8887C119.58 0.244141 122.266-13.7695 112.207-31.6406C108.252-38.623 104.248-45.5566 100.195-52.3438C99.6094-53.3203 99.1211-53.8574 98.6328-54.3457C97.0703-55.9082 94.9219-55.6152 93.457-54.1504C92.3828-53.0762 91.7969-51.3672 92.7246-49.3164L99.4141-34.1797C100.488-31.7871 99.9023-30.4199 99.0234-29.541C97.8516-28.3691 96.1426-28.125 94.2383-30.0781L61.6699-62.5977C60.1074-64.1602 57.4707-64.1602 55.9082-62.5977C54.2969-61.0352 54.2969-58.3984 55.9082-56.8359L78.5645-34.1309C76.8555-33.5449 75.1953-32.7148 73.6328-31.7383L45.6055-59.7656C43.9941-61.377 41.3574-61.377 39.7949-59.7656C38.2324-58.2031 38.2324-55.5664 39.7949-54.0039L67.3828-26.416C65.918-24.7559 64.5508-23.0469 63.4277-21.3379L39.3066-45.459C37.7441-47.0215 35.1074-47.0215 33.5449-45.459C31.9336-43.8477 31.9336-41.2598 33.5449-39.6484L59.5703-13.623C58.6914-11.377 58.2031-9.375 58.0078-7.56836L40.0391-25.5371C38.4277-27.1484 35.8398-27.1484 34.2285-25.5371C32.666-23.9746 32.666-21.3379 34.2285-19.7754ZM89.6973-46.9727L74.0234-62.5977C72.5098-64.1602 69.8242-64.1602 68.2617-62.5977C68.0176-62.3535 67.8223-62.1094 67.627-61.8164L95.3613-34.1309C93.5059-38.3789 91.6016-42.7246 89.6973-46.9727ZM23.7793-53.7109C24.3164-53.6133 24.9023-53.9551 25-54.5898C25.1465-55.1758 24.8047-55.7129 24.1699-55.8105L10.0098-58.8867C9.42383-58.9844 8.74023-58.6426 8.69141-58.0566C8.64258-57.4219 8.93555-56.8359 9.61914-56.7383ZM121.289 10.9375C131.934 0.292969 134.668-13.7207 124.561-31.6406C120.605-38.6719 116.553-45.5078 112.549-52.2949C111.914-53.3203 111.475-53.8574 110.986-54.3457C109.424-55.9082 107.275-55.5664 105.859-54.1504C105.225-53.5156 104.834-52.832 104.736-51.9531C105.322-50.9277 105.957-49.9023 106.592-48.8281C109.619-43.75 112.549-38.623 115.43-33.4473C125.488-15.3809 124.316 0.732422 111.523 13.5254C108.496 16.5039 105.322 18.9453 102.002 20.7031C109.033 20.0195 115.771 16.4551 121.289 10.9375Z"/>
  </g>
  <g id="Black-S" transform="matrix(1 0 0 1 2865.24 696)">
   <path d="M40.4297-73.4863C42.7246-74.0234 44.1895-76.3672 43.7012-78.6133L41.9434-86.8164C41.4551-89.1113 39.209-90.625 36.8652-90.1367C34.5215-89.6484 33.0078-87.3047 33.4961-85.0098L35.2539-76.8555C35.7422-74.5117 38.0371-72.9492 40.4297-73.4863ZM22.8516-68.1152C24.5605-66.4062 27.2949-66.4062 28.9062-68.1152C30.5176-69.8242 30.6152-72.4609 28.9062-74.1699L22.9492-80.127C21.2402-81.8359 18.6035-81.8359 16.8945-80.127C15.1855-78.418 15.1855-75.7812 16.8945-74.0723ZM57.0801 4.24805C70.2148 17.3828 88.1348 15.5762 100.293 3.41797C107.031-3.27148 110.205-10.8887 109.961-19.7266C109.717-29.834 102.734-42.6758 101.172-45.752C98.584-50.7812 95.2637-57.2266 93.75-59.7656C91.9922-62.6953 88.8672-63.7695 86.2305-62.2559C83.1543-60.5957 82.373-57.4707 83.4473-54.834L88.6719-41.7969C88.9648-41.0156 88.916-40.7227 88.623-40.4297C88.3789-40.1855 88.0371-40.0879 87.4512-40.6738L57.8613-70.2637C55.3711-72.7051 52.002-72.7051 49.6094-70.3125C47.2168-67.9199 47.2168-64.4531 49.6094-62.0605L72.8027-38.916C72.1191-38.5254 71.4355-38.1836 70.7031-37.793L44.4336-64.0625C42.041-66.5039 38.623-66.5039 36.2305-64.0625C33.7891-61.6699 33.7891-58.252 36.2305-55.8594L62.207-29.834C61.7676-29.248 61.2793-28.6621 60.791-28.0762L36.7676-52.1484C34.375-54.541 30.8594-54.5898 28.5156-52.1973C26.123-49.8047 26.123-46.3379 28.5156-43.9453L54.4922-17.9688C54.1504-17.1875 53.8574-16.4551 53.6133-15.6738L35.4492-33.8379C33.0078-36.2793 29.5898-36.2793 27.1973-33.9355C24.8047-31.4941 24.8047-28.0273 27.1973-25.6348ZM80.4688-67.1875L77.3926-70.2637C74.9023-72.7539 71.5332-72.7051 69.1406-70.3125C68.9941-70.166 68.7988-69.9707 68.7012-69.7754L76.5625-61.9141C77.3926-63.916 78.7109-65.7227 80.4688-67.1875ZM18.6035-53.3691C20.8984-52.8809 23.2422-54.3945 23.6328-56.6895C24.0234-59.0332 22.6562-61.2305 20.3125-61.7188L12.0605-63.4766C9.57031-64.0137 7.27539-62.4023 6.88477-59.9121C6.54297-57.6172 8.05664-55.5176 10.3027-55.0781ZM119.824 3.41797C126.514-3.32031 129.736-10.8887 129.492-19.7266C129.199-29.834 122.266-42.6758 120.703-45.752C118.164-50.7812 114.795-57.2266 113.281-59.7656C111.523-62.6953 108.398-63.7207 105.762-62.2559C104.102-61.3281 103.125-60.0586 102.734-58.5938C104.395-55.4199 106.055-52.1973 107.715-49.0234C109.277-46.0449 116.943-31.7871 117.285-19.9219C117.578-9.0332 113.574 0.488281 105.469 8.59375C103.711 10.3516 101.953 11.8652 100.098 13.2324C107.178 12.5488 114.16 9.13086 119.824 3.41797Z"/>
  </g>
  <g id="Heavy-S" transform="matrix(1 0 0 1 2570.28 696)">
   <path d="M39.9902-72.3145C42.0898-72.8027 43.457-74.9512 43.0176-77.002L41.1133-85.8887C40.6738-87.9883 38.5742-89.3555 36.4746-88.916C34.3262-88.4766 32.9102-86.377 33.3496-84.2285L35.3027-75.4395C35.7422-73.291 37.8418-71.8262 39.9902-72.3145ZM23.0957-67.3828C24.6582-65.8203 27.1973-65.8203 28.6621-67.3828C30.127-68.9453 30.2246-71.3379 28.6621-72.9004L22.2168-79.3457C20.6543-80.9082 18.2617-80.9082 16.6992-79.3457C15.1367-77.7832 15.0879-75.3906 16.6992-73.8281ZM56.2012 3.32031C69.043 16.1621 86.2793 14.6973 98.1445 2.7832C105.371-4.39453 108.154-12.207 107.324-21.3379C106.787-30.5176 100.635-41.8945 98.5352-46.0449C96.0938-50.7324 93.0664-56.7383 91.5527-59.0332C89.8438-61.6211 86.9629-62.4023 84.5703-60.8887C81.7871-59.1309 81.25-56.25 82.373-53.2227L87.3047-40.5273C87.6465-39.6484 87.5488-39.2578 87.2559-38.9648C86.9629-38.6719 86.5234-38.5742 85.8887-39.209L56.4453-68.6523C54.1992-70.9473 50.9766-70.9473 48.7305-68.7012C46.4844-66.4551 46.4844-63.1836 48.7305-60.9375L71.3379-38.3301C70.6055-37.9883 69.8242-37.5977 69.0918-37.1094L43.3594-62.793C41.1621-65.0391 37.8906-65.0391 35.6934-62.793C33.4473-60.5469 33.4473-57.3242 35.6934-55.0781L61.084-29.6387C60.5957-29.0039 60.0586-28.3691 59.5215-27.6855L36.0352-51.2207C33.7891-53.418 30.5176-53.4668 28.2715-51.2207C26.0742-49.0234 26.0742-45.7031 28.3203-43.5059L53.7109-18.0664C53.3691-17.2363 53.0762-16.3574 52.832-15.4785L35.0586-33.252C32.8125-35.498 29.541-35.498 27.3438-33.3008C25.0977-31.0547 25.0977-27.7832 27.3438-25.5371ZM78.7109-64.7461L74.8047-68.6523C72.5098-70.9473 69.2871-70.8984 67.041-68.7012C66.9434-68.5547 66.7969-68.4082 66.6992-68.2617L75.5859-59.3262C76.1719-61.377 77.1973-63.2324 78.7109-64.7461ZM18.9941-53.0762C21.0449-52.6367 23.1934-54.0039 23.584-56.1035C23.9258-58.252 22.7051-60.2539 20.5566-60.6934L11.6211-62.5977C9.32617-63.0859 7.22656-61.6211 6.88477-59.3262C6.5918-57.2754 7.95898-55.3223 10.0098-54.9316ZM116.504 2.7832C123.633-4.39453 126.514-12.207 125.635-21.3379C125.049-30.5176 118.994-41.8945 116.846-46.0449C114.453-50.7324 111.377-56.7383 109.863-58.9844C108.154-61.5723 105.273-62.3535 102.881-60.8887C101.514-60.0586 100.635-58.9355 100.293-57.666C101.807-54.834 103.271-51.9531 104.736-49.1211C106.885-45.0195 113.525-32.4707 114.209-21.8262C115.283-10.498 111.523-0.732422 103.076 7.71484C101.367 9.375 99.6582 10.8887 97.8516 12.207C104.541 11.4746 111.084 8.20312 116.504 2.7832Z"/>
  </g>
  <g id="Bold-S" transform="matrix(1 0 0 1 2275.55 696)">
   <path d="M39.502-71.0449C41.4062-71.4844 42.6758-73.3887 42.2363-75.2441L40.1855-84.8633C39.7461-86.7676 37.8906-87.9883 35.9863-87.5977C34.082-87.207 32.8125-85.3027 33.252-83.3984L35.3027-73.8281C35.7422-71.9238 37.5977-70.6055 39.502-71.0449ZM23.4375-66.5527C24.8047-65.1855 27.0508-65.1855 28.3691-66.5527C29.6875-67.9688 29.7852-70.1172 28.3691-71.5332L21.3867-78.5156C19.9707-79.9316 17.8223-79.8828 16.4551-78.5156C15.0391-77.0996 15.0391-74.9512 16.4551-73.5352ZM55.2246 2.29492C67.7246 14.7949 84.2285 13.6719 95.8008 2.09961C103.516-5.56641 105.908-13.6719 104.395-23.1445C103.467-31.2988 98.3398-41.0156 95.5566-46.3867C93.3594-50.6348 90.5762-56.1523 89.1113-58.1543C87.4512-60.4004 84.8633-60.8887 82.7148-59.3262C80.2246-57.5195 79.9316-54.834 81.1523-51.416L85.7422-39.0625C86.084-38.1348 86.0352-37.6465 85.7422-37.3047C85.3516-36.9141 84.9121-36.8652 84.1797-37.5977L54.8828-66.8457C52.832-68.8965 49.8047-68.8965 47.7539-66.8945C45.7031-64.8438 45.7031-61.7676 47.7539-59.7168L69.7266-37.7441C68.9453-37.3047 68.1152-36.8652 67.2852-36.3281L42.1875-61.377C40.1367-63.4277 37.1094-63.4277 35.0586-61.377C33.0078-59.3262 33.0078-56.2988 35.0586-54.248L59.8633-29.4434C59.2773-28.7598 58.6426-27.9785 58.1055-27.2461L35.2051-50.1465C33.2031-52.1973 30.0781-52.1973 28.0273-50.1953C26.0254-48.1445 26.0254-45.0684 28.0762-43.0176L52.8809-18.2129C52.4902-17.2363 52.1973-16.2109 51.9531-15.2344L34.6191-32.5684C32.5684-34.6191 29.4922-34.6191 27.4902-32.6172C25.4395-30.5664 25.4395-27.4902 27.4902-25.4395ZM76.709-62.0605L71.875-66.8457C69.7754-68.8965 66.748-68.8965 64.6973-66.8945C64.5996-66.7969 64.502-66.6992 64.4531-66.5527L74.5117-56.4453C74.8047-58.5449 75.4883-60.4004 76.709-62.0605ZM19.3848-52.7344C21.2402-52.3438 23.1934-53.5645 23.5352-55.4688C23.877-57.373 22.7051-59.1797 20.8008-59.5703L11.1328-61.6699C9.08203-62.0605 7.22656-60.7422 6.88477-58.7402C6.64062-56.8848 7.86133-55.127 9.66797-54.7852ZM112.744 2.09961C120.459-5.61523 122.852-13.6719 121.387-23.1445C120.361-31.25 115.283-41.0156 112.5-46.3867C110.352-50.6348 107.568-56.1523 106.055-58.1543C104.395-60.3516 101.807-60.8398 99.6582-59.3262C98.584-58.5938 97.9004-57.666 97.5586-56.5918C98.877-54.1504 100.146-51.6602 101.416-49.2188C104.199-43.8965 109.766-33.2031 110.84-23.9258C112.695-12.1582 109.277-2.14844 100.391 6.68945C98.7793 8.30078 97.0703 9.76562 95.3125 11.0352C101.562 10.3027 107.666 7.17773 112.744 2.09961Z"/>
  </g>
  <g id="Semibold-S" transform="matrix(1 0 0 1 1980.21 696)">
   <path d="M39.209-70.166C40.918-70.5566 42.0898-72.3145 41.6992-74.0234L39.502-84.1309C39.1602-85.8887 37.4512-87.0117 35.6934-86.6699C33.9355-86.2793 32.7637-84.5703 33.1543-82.8125L35.3516-72.7051C35.6934-70.9961 37.4023-69.7754 39.209-70.166ZM23.6328-65.9668C24.9023-64.6973 26.9531-64.6973 28.1738-65.9668C29.3945-67.2852 29.4434-69.2871 28.1738-70.5566L20.8496-77.8809C19.5312-79.1992 17.5781-79.1992 16.2598-77.8809C14.9902-76.6113 14.9414-74.6582 16.2598-73.3398ZM54.541 1.61133C66.7969 13.8672 82.8125 12.9883 94.1895 1.61133C102.197-6.44531 104.346-14.6484 102.393-24.3652C101.172-31.7871 96.7285-40.3809 93.457-46.582C91.4551-50.5859 88.916-55.7617 87.4023-57.5684C85.791-59.5215 83.3496-59.8145 81.4453-58.252C79.1504-56.3965 79.0527-53.9062 80.3223-50.1465L84.668-38.0859C85.0586-37.0605 85.0098-36.5234 84.668-36.1328C84.2773-35.7422 83.7402-35.6934 82.959-36.4746L53.8086-65.625C51.9043-67.5293 48.9746-67.5293 47.0703-65.625C45.166-63.7207 45.166-60.791 47.0703-58.8867L68.6523-37.3047C67.7734-36.8652 66.8945-36.377 66.0156-35.791L41.3574-60.4004C39.4531-62.3047 36.5234-62.3047 34.6191-60.4004C32.7148-58.4961 32.7148-55.5664 34.6191-53.6621L58.9844-29.2969C58.3496-28.5645 57.7148-27.7344 57.1289-26.9531L34.668-49.4141C32.7637-51.3184 29.7852-51.3672 27.8809-49.4629C25.9766-47.5586 26.0254-44.5801 27.8809-42.6758L52.2949-18.2617C51.9043-17.2363 51.6113-16.1621 51.3184-15.0879L34.3262-32.1289C32.4219-34.0332 29.4434-34.0332 27.5879-32.1289C25.6836-30.2246 25.6836-27.2461 27.5879-25.3418ZM75.3418-60.1562L69.873-65.625C67.9199-67.5293 64.9902-67.5293 63.1348-65.625C63.0371-65.5273 62.9395-65.4785 62.8906-65.3809L73.7793-54.4434C73.877-56.5918 74.3652-58.4961 75.3418-60.1562ZM19.6777-52.4902C21.3867-52.1484 23.1445-53.2715 23.4863-55.0293C23.7793-56.7383 22.7539-58.3984 20.9961-58.7891L10.791-60.9863C8.93555-61.377 7.17773-60.1562 6.88477-58.3008C6.64062-56.5918 7.76367-54.9805 9.47266-54.6387ZM110.205 1.61133C118.213-6.44531 120.361-14.6484 118.408-24.3652C117.139-31.7871 112.744-40.3809 109.521-46.6309C107.471-50.5859 104.883-55.7617 103.418-57.5684C101.807-59.5215 99.4141-59.8145 97.4609-58.252C96.582-57.6172 95.9961-56.7871 95.7031-55.8594C96.875-53.7109 97.9492-51.4648 99.1211-49.2676C102.344-43.1152 107.129-33.6914 108.447-25.3906C110.938-13.2812 107.666-3.07617 98.584 6.00586C96.9727 7.56836 95.3125 8.98438 93.6035 10.2051C99.5605 9.47266 105.322 6.49414 110.205 1.61133Z"/>
  </g>
  <g id="Medium-S" transform="matrix(1 0 0 1 1684.52 696)">
   <path d="M38.9648-69.4824C40.5762-69.873 41.6504-71.5332 41.3086-73.0957L39.0137-83.5938C38.6719-85.2539 37.0605-86.2793 35.4492-85.9375C33.8379-85.6445 32.7148-83.9844 33.0566-82.373L35.3516-71.875C35.6934-70.2637 37.2559-69.1406 38.9648-69.4824ZM23.7793-65.5762C25-64.3555 26.9043-64.3555 28.0273-65.5762C29.1992-66.748 29.248-68.6035 28.0273-69.8242L20.4102-77.4414C19.1895-78.7109 17.334-78.6621 16.1621-77.4414C14.9414-76.2695 14.8926-74.4141 16.1621-73.1934ZM54.0039 1.07422C66.1133 13.1348 81.7383 12.4512 92.9199 1.26953C101.221-7.08008 103.174-15.4297 100.83-25.293C99.4141-32.1777 95.5078-39.9414 91.9434-46.7773C89.9902-50.5371 87.5977-55.4688 86.084-57.1289C84.5703-58.8867 82.2754-59.0332 80.4688-57.4219C78.3691-55.5664 78.3691-53.1738 79.6875-49.2188L83.8867-37.3535C84.2773-36.2793 84.2285-35.6445 83.8379-35.2539C83.4473-34.8633 82.9102-34.7656 82.0801-35.5957L53.0273-64.6484C51.2207-66.4551 48.3398-66.4551 46.582-64.6973C44.7754-62.8906 44.7754-60.0098 46.582-58.2031L67.7734-37.0117C66.8945-36.5234 65.9668-36.0352 65.0391-35.4004L40.7715-59.668C38.9648-61.4746 36.084-61.4746 34.3262-59.668C32.5195-57.8613 32.5195-55.0293 34.3262-53.2227L58.3008-29.1992C57.666-28.418 56.9824-27.5879 56.3965-26.709L34.2285-48.877C32.4219-50.6836 29.541-50.6836 27.7832-48.877C25.9766-47.1191 25.9766-44.2383 27.7832-42.4316L51.8555-18.3594C51.4648-17.2363 51.123-16.0645 50.8789-14.9902L34.082-31.7383C32.2754-33.5449 29.4434-33.5449 27.6367-31.7871C25.8301-29.9805 25.8301-27.0996 27.6367-25.293ZM74.2676-58.7402L68.3594-64.6973C66.5039-66.4551 63.6719-66.4551 61.9141-64.6973C61.8164-64.5996 61.7676-64.5508 61.7188-64.502L73.1934-52.9785C73.1445-55.0781 73.4863-56.9824 74.2676-58.7402ZM19.9219-52.3438C21.4844-52.002 23.1445-53.0273 23.4375-54.6875C23.7305-56.2988 22.7539-57.8613 21.0938-58.2031L10.5469-60.498C8.78906-60.8398 7.17773-59.7168 6.88477-57.959C6.68945-56.3965 7.71484-54.8828 9.27734-54.5898ZM108.252 1.26953C116.553-7.08008 118.457-15.4297 116.162-25.293C114.746-32.1777 110.84-39.9414 107.227-46.7773C105.322-50.5371 102.93-55.4688 101.416-57.1289C99.8535-58.8867 97.6074-59.0332 95.8008-57.4707C95.0195-56.8359 94.5312-56.1035 94.2871-55.3223C95.3125-53.3203 96.3379-51.3184 97.3633-49.3652C100.928-42.5293 105.127-34.082 106.689-26.5137C109.57-14.1113 106.494-3.80859 97.168 5.46875C95.6055 7.03125 93.9941 8.39844 92.2852 9.61914C97.998 8.83789 103.564 5.95703 108.252 1.26953Z"/>
  </g>
  <g id="Regular-S" transform="matrix(1 0 0 1 1389.18 696)">
   <path d="M38.623-68.6035C40.0879-68.9453 41.1133-70.459 40.7715-71.875L38.3789-82.9102C38.0859-84.4238 36.6211-85.3027 35.1562-85.0098C33.6914-84.7168 32.666-83.3008 32.959-81.7871L35.3516-70.8008C35.6934-69.3359 37.1094-68.3105 38.623-68.6035ZM23.9746-64.9902C25.0488-63.916 26.8066-63.916 27.832-64.9902C28.9062-66.0645 28.9551-67.7734 27.832-68.8477L19.8242-76.8555C18.7012-77.9785 17.041-77.9297 15.9668-76.8555C14.8926-75.7812 14.8438-74.1211 15.9668-72.998ZM53.3203 0.390625C65.1855 12.207 80.3223 11.7676 91.3086 0.78125C100-7.86133 101.611-16.4062 98.8281-26.5137C97.168-32.7148 93.8965-39.3555 89.8926-47.0215C88.0859-50.4395 85.9375-55.0781 84.4238-56.543C82.9102-58.0566 80.8105-57.959 79.1992-56.3965C77.2949-54.4922 77.4902-52.2461 78.9062-47.9492L82.8125-36.377C83.2031-35.2539 83.2031-34.5215 82.8125-34.1309C82.3242-33.6426 81.7871-33.6426 80.9082-34.4727L51.9531-63.4277C50.293-65.0879 47.5586-65.0879 45.8984-63.4277C44.2383-61.7676 44.2383-59.0332 45.8984-57.373L66.6992-36.5723C65.7715-36.084 64.7949-35.5469 63.8184-34.8633L39.9414-58.6914C38.2812-60.3516 35.5469-60.3516 33.8867-58.6914C32.2266-57.0312 32.2266-54.2969 33.8867-52.6367L57.4707-29.0527C56.7383-28.2227 56.0547-27.3438 55.4199-26.416L33.6426-48.1934C31.9824-49.8535 29.248-49.8535 27.5879-48.1934C25.9277-46.4844 25.9277-43.7988 27.5879-42.0898L51.2695-18.457C50.8301-17.2363 50.5371-16.0156 50.293-14.7949L33.7891-31.2988C32.1289-32.959 29.3945-32.959 27.7344-31.2988C26.0742-29.6387 26.0742-26.9043 27.7344-25.2441ZM72.9492-56.8848L66.3574-63.4277C64.6973-65.0879 61.9141-65.0879 60.3027-63.4277C60.2539-63.3789 60.2539-63.3789 60.2051-63.3301L72.4609-50.9766C72.2168-53.1738 72.3145-55.0781 72.9492-56.8848ZM20.2148-52.0996C21.6309-51.8555 23.1445-52.7344 23.3887-54.248C23.6816-55.7129 22.8027-57.0801 21.2891-57.4219L10.2051-59.8145C8.59375-60.1562 7.12891-59.1309 6.88477-57.5195C6.73828-56.1035 7.66602-54.7363 9.08203-54.4434ZM105.713 0.78125C114.355-7.86133 116.016-16.4062 113.232-26.5625C111.523-32.7148 108.35-39.3066 104.297-47.0215C102.49-50.4883 100.293-55.0781 98.7793-56.543C97.3145-58.0566 95.2148-57.959 93.6035-56.3965C93.0664-55.8594 92.6758-55.2246 92.4316-54.5898C93.3105-52.8809 94.1895-51.123 95.1172-49.4141C99.1211-41.748 102.539-34.6191 104.346-27.9785C107.812-15.2344 104.932-4.78516 95.3613 4.78516C93.8477 6.29883 92.2363 7.66602 90.5762 8.83789C95.9961 8.00781 101.221 5.27344 105.713 0.78125Z"/>
  </g>
  <g id="Light-S" transform="matrix(1 0 0 1 1094.32 696)">
   <path d="M37.5977-67.8711C38.7695-68.1152 39.5508-69.3359 39.3066-70.4102L36.9141-81.4453C36.6699-82.666 35.498-83.3496 34.375-83.1055C33.2031-82.9102 32.373-81.7383 32.666-80.5664L35.0586-69.5801C35.3027-68.4082 36.4258-67.627 37.5977-67.8711ZM23.6328-63.9648C24.5117-63.0859 25.8789-63.0859 26.709-63.9648C27.4902-64.7949 27.5391-66.1133 26.709-66.9922L18.7012-75C17.7734-75.8789 16.5039-75.8301 15.625-75C14.7949-74.1211 14.7461-72.8516 15.625-71.9727ZM52.3438 0.292969C64.3066 12.3047 78.9551 11.3281 89.4531 0.830078C97.998-7.76367 99.8047-17.041 95.4102-28.3691C93.3105-34.3262 90.0879-40.5762 86.3281-47.5098C84.9609-50.1465 83.3496-53.418 82.2266-54.5898C80.7617-56.0059 78.8086-55.8594 77.3438-54.3945C75.7812-52.832 75.7324-50.8789 76.9531-47.4121L81.2988-35.7422C81.8359-34.375 81.6895-33.5938 81.2012-33.1055C80.5664-32.4707 79.7852-32.373 78.7109-33.4473L50.8301-61.3281C49.3164-62.8418 46.7773-62.8418 45.2637-61.3281C43.7012-59.8145 43.7012-57.2754 45.2637-55.7617L65.0879-35.8887C64.0625-35.4004 62.9395-34.8145 61.9141-34.1309L38.623-57.373C37.1094-58.9355 34.5703-58.9355 33.0566-57.373C31.4941-55.8594 31.4941-53.3203 33.0566-51.8066L56.0059-28.8086C55.1758-27.832 54.3457-26.8066 53.6621-25.7812L32.7637-46.6309C31.25-48.1445 28.7109-48.1445 27.1973-46.6309C25.6836-45.1172 25.6836-42.5781 27.1973-41.0645L49.8535-18.4082C49.3652-16.9922 49.0234-15.6738 48.7793-14.4043L33.0566-30.1758C31.4941-31.6895 29.0039-31.6895 27.4414-30.1758C25.9277-28.6133 25.9277-26.123 27.4414-24.5605ZM72.1191-52.9785L63.7695-61.3281C62.207-62.8418 59.668-62.8418 58.2031-61.3281C58.1055-61.2305 58.0078-61.1816 57.959-61.0352L73.1934-45.8008C72.5586-48.3398 72.168-50.7324 72.1191-52.9785ZM19.7266-51.3672C20.8008-51.123 22.0215-51.8555 22.2168-53.0273C22.4609-54.1992 21.7285-55.2734 20.5566-55.5176L9.47266-57.9102C8.25195-58.2031 7.08008-57.373 6.88477-56.1523C6.73828-55.0293 7.4707-53.9551 8.59375-53.7109ZM102.393 0.830078C110.938-7.71484 112.744-17.041 108.35-28.3691C106.25-34.3262 103.027-40.5762 99.2676-47.5098C97.9004-50.1465 96.2402-53.418 95.1172-54.541C93.7012-55.957 91.748-55.8594 90.2832-54.3945C89.7461-53.9062 89.4043-53.2715 89.209-52.6367C89.9902-51.2207 90.7227-49.7559 91.5039-48.3398C94.9707-41.7969 98.0957-35.6445 100-29.7852C104.834-16.6504 102.588-5.46875 92.8711 4.19922C91.0645 6.00586 89.209 7.51953 87.2559 8.74023C92.6758 8.00781 97.9492 5.27344 102.393 0.830078Z"/>
  </g>
  <g id="Thin-S" transform="matrix(1 0 0 1 800.075 696)">
   <path d="M36.2793-66.8945C37.0117-67.041 37.5488-67.8223 37.3535-68.5059L34.9609-79.5898C34.8145-80.3223 34.082-80.7617 33.3496-80.6152C32.5684-80.4688 32.0801-79.7363 32.2266-79.0039L34.6191-67.9688C34.7656-67.2363 35.498-66.748 36.2793-66.8945ZM23.1934-62.5488C23.7305-62.0117 24.6094-62.0117 25.1465-62.5488C25.6836-63.0859 25.6836-63.9648 25.1465-64.502L17.1387-72.5098C16.5527-73.0957 15.7227-73.0469 15.1855-72.5098C14.6484-71.9727 14.5996-71.1426 15.1855-70.5566ZM51.0254 0.244141C63.1348 12.3535 77.0996 10.791 87.0117 0.878906C95.459-7.56836 97.4121-17.8711 90.918-30.8105C88.2324-36.4746 85.0586-42.1875 81.6406-48.1934C80.8105-49.707 79.9316-51.2695 79.248-51.9531C77.9297-53.2715 76.123-53.0762 74.9023-51.8066C73.7305-50.6348 73.4375-49.0723 74.4141-46.7285L79.248-34.9609C79.9805-33.3008 79.6387-32.3242 79.0527-31.6895C78.2715-30.9082 77.0996-30.7617 75.7812-32.0801L49.3652-58.5449C47.998-59.9121 45.752-59.9121 44.3848-58.5449C43.0176-57.1777 43.0176-54.9316 44.3848-53.5645L62.9883-34.9609C61.7676-34.5215 60.5469-33.8867 59.375-33.1543L36.9141-55.6152C35.5469-56.9824 33.3008-56.9824 31.9336-55.6152C30.5664-54.2969 30.5664-52.0508 31.9336-50.6836L54.1016-28.5156C53.0762-27.3438 52.0996-26.123 51.2695-24.9023L31.5918-44.5801C30.2734-45.9473 28.0273-45.9473 26.6602-44.5801C25.293-43.2617 25.293-41.0156 26.6602-39.6484L47.9492-18.3594C47.3633-16.748 46.9727-15.2832 46.7773-13.916L32.0312-28.6621C30.7129-30.0293 28.4668-30.0293 27.0996-28.6621C25.7324-27.2949 25.7324-25.0488 27.0996-23.6816ZM70.9961-47.8516L60.3516-58.5449C58.9844-59.8633 56.7383-59.8633 55.3711-58.5449C55.2246-58.3984 55.127-58.252 54.9805-58.0566L74.1211-38.9648C72.9492-41.9434 71.9238-44.9707 70.9961-47.8516ZM19.0918-50.3906C19.7754-50.2441 20.5078-50.6836 20.6543-51.4648C20.8008-52.1973 20.3613-52.8809 19.6289-53.0273L8.54492-55.4199C7.76367-55.6152 6.98242-55.127 6.88477-54.3457C6.78711-53.6133 7.22656-52.8809 7.95898-52.7344ZM97.998 0.878906C106.445-7.56836 108.398-17.8223 101.904-30.8105C99.2188-36.4746 96.0449-42.1875 92.627-48.1445C91.7969-49.707 90.918-51.2695 90.2344-51.9531C88.9648-53.2227 87.1582-53.0273 85.8887-51.8066C85.4004-51.3184 85.0586-50.7324 84.9121-50.0488C85.5469-49.0234 86.1328-47.9492 86.7188-46.875C89.5508-41.8457 92.1875-36.9629 94.2871-32.2266C100.977-18.457 99.4629-6.44531 89.5996 3.4668C87.4512 5.56641 85.2051 7.32422 82.8613 8.64258C88.3301 8.05664 93.6035 5.27344 97.998 0.878906Z"/>
  </g>
  <g id="Ultralight-S" transform="matrix(1 0 0 1 504.633 696)">
   <path d="M35.5469-66.3574C36.084-66.5039 36.4746-67.0898 36.377-67.5293L33.9844-78.6133C33.8867-79.1504 33.3496-79.4434 32.8125-79.3457C32.2754-79.248 31.8848-78.7109 31.9824-78.2227L34.375-67.1387C34.4727-66.6504 35.0098-66.2598 35.5469-66.3574ZM22.9492-61.8164C23.3398-61.4746 23.9746-61.4746 24.3652-61.8164C24.7559-62.207 24.7559-62.8418 24.3652-63.2324L16.3574-71.2402C15.918-71.6797 15.332-71.6309 14.9414-71.2402C14.5508-70.8496 14.502-70.2637 14.9414-69.8242ZM50.3418 0.195312C62.5488 12.4023 76.1719 10.498 85.7422 0.927734C94.0918-7.4707 96.1914-18.2617 88.623-32.0312C85.6445-37.5488 82.4707-43.0664 79.248-48.5352C78.7109-49.4629 78.1738-50.1465 77.7344-50.5859C76.5137-51.8555 74.8047-51.6113 73.6328-50.4395C72.7051-49.5605 72.3145-48.1445 73.0957-46.3867L78.2227-34.5215C79.0527-32.7148 78.6133-31.6406 77.9297-30.957C77.0508-30.0781 75.7324-29.9316 74.3164-31.3965L48.584-57.1289C47.3145-58.3496 45.2148-58.3496 43.9453-57.1289C42.6758-55.8594 42.6758-53.7598 43.9453-52.4902L61.9141-34.5215C60.5957-34.082 59.3262-33.3984 58.1055-32.666L35.9863-54.7363C34.7656-56.0059 32.6172-56.0059 31.3965-54.7363C30.127-53.4668 30.127-51.3672 31.3965-50.0977L53.125-28.3691C52.002-27.0996 50.9277-25.7812 50.0488-24.5117L31.0059-43.5547C29.7363-44.8242 27.6367-44.8242 26.3672-43.5547C25.0977-42.2852 25.0977-40.1855 26.3672-38.916L46.9727-18.3105C46.3379-16.6016 45.9473-15.0391 45.752-13.623L31.543-27.8809C30.2734-29.1504 28.1738-29.1504 26.9043-27.8809C25.6348-26.6113 25.6348-24.5117 26.9043-23.2422ZM70.459-45.2148L58.5449-57.1289C57.3242-58.3496 55.1758-58.3496 53.9551-57.1289C53.7598-56.9336 53.6133-56.7383 53.4668-56.4941L74.6094-35.4492C73.1934-38.6719 71.8262-41.9922 70.459-45.2148ZM18.75-49.8535C19.2383-49.7559 19.7754-50.0977 19.873-50.6348C19.9707-51.1719 19.6289-51.6602 19.0918-51.7578L8.00781-54.1504C7.4707-54.248 6.88477-53.9551 6.83594-53.3691C6.78711-52.832 7.08008-52.3438 7.66602-52.1973ZM95.752 0.927734C104.102-7.42188 106.201-18.2617 98.6328-32.0312C95.6055-37.5977 92.4316-43.0176 89.209-48.4863C88.6719-49.4629 88.1836-50.1465 87.7441-50.5859C86.5234-51.8555 84.7656-51.6113 83.6426-50.4395C83.1543-49.9512 82.8613-49.4141 82.7148-48.7305C83.252-47.8516 83.7402-46.9727 84.2773-46.1426C86.7188-41.8945 89.1113-37.6953 91.3574-33.4473C98.9746-19.4336 97.9004-6.93359 87.8906 3.07617C85.5957 5.37109 83.1543 7.22656 80.6152 8.59375C86.1328 8.05664 91.4062 5.27344 95.752 0.927734Z"/>
  </g>
 </g>
</svg>
