<?xml version="1.0" encoding="UTF-8"?>
<!--Generator: Apple Native CoreSVG 149-->
<!DOCTYPE svg
PUBLIC "-//W3C//DTD SVG 1.1//EN"
       "http://www.w3.org/Graphics/SVG/1.1/DTD/svg11.dtd">
<svg version="1.1" xmlns="http://www.w3.org/2000/svg" xmlns:xlink="http://www.w3.org/1999/xlink" width="3300" height="2200">
 <!--glyph: "uni100B12.medium", point size: 100.000000, font version: "Version 16.0d18e1", template writer version: "8"-->
 <g id="Notes">
  <rect height="2200" id="artboard" style="fill:white;opacity:1" width="3300" x="0" y="0"/>
  <line id="" style="fill:none;stroke:black;opacity:1;stroke-width:0.5;" x1="263" x2="3036" y1="292" y2="292"/>
  <text style="stroke:none;fill:black;font-family:-apple-system,&quot;SF Pro Display&quot;,&quot;SF Pro Text&quot;,Helvetica,sans-serif;font-weight:bold;" transform="matrix(1 0 0 1 263 322)">Weight/Scale Variations</text>
  <text style="stroke:none;fill:black;font-family:-apple-system,&quot;SF Pro Display&quot;,&quot;SF Pro Text&quot;,Helvetica,sans-serif;text-anchor:middle;" transform="matrix(1 0 0 1 559.711 322)">Ultralight</text>
  <text style="stroke:none;fill:black;font-family:-apple-system,&quot;SF Pro Display&quot;,&quot;SF Pro Text&quot;,Helvetica,sans-serif;text-anchor:middle;" transform="matrix(1 0 0 1 856.422 322)">Thin</text>
  <text style="stroke:none;fill:black;font-family:-apple-system,&quot;SF Pro Display&quot;,&quot;SF Pro Text&quot;,Helvetica,sans-serif;text-anchor:middle;" transform="matrix(1 0 0 1 1153.13 322)">Light</text>
  <text style="stroke:none;fill:black;font-family:-apple-system,&quot;SF Pro Display&quot;,&quot;SF Pro Text&quot;,Helvetica,sans-serif;text-anchor:middle;" transform="matrix(1 0 0 1 1449.84 322)">Regular</text>
  <text style="stroke:none;fill:black;font-family:-apple-system,&quot;SF Pro Display&quot;,&quot;SF Pro Text&quot;,Helvetica,sans-serif;text-anchor:middle;" transform="matrix(1 0 0 1 1746.56 322)">Medium</text>
  <text style="stroke:none;fill:black;font-family:-apple-system,&quot;SF Pro Display&quot;,&quot;SF Pro Text&quot;,Helvetica,sans-serif;text-anchor:middle;" transform="matrix(1 0 0 1 2043.27 322)">Semibold</text>
  <text style="stroke:none;fill:black;font-family:-apple-system,&quot;SF Pro Display&quot;,&quot;SF Pro Text&quot;,Helvetica,sans-serif;text-anchor:middle;" transform="matrix(1 0 0 1 2339.98 322)">Bold</text>
  <text style="stroke:none;fill:black;font-family:-apple-system,&quot;SF Pro Display&quot;,&quot;SF Pro Text&quot;,Helvetica,sans-serif;text-anchor:middle;" transform="matrix(1 0 0 1 2636.69 322)">Heavy</text>
  <text style="stroke:none;fill:black;font-family:-apple-system,&quot;SF Pro Display&quot;,&quot;SF Pro Text&quot;,Helvetica,sans-serif;text-anchor:middle;" transform="matrix(1 0 0 1 2933.4 322)">Black</text>
  <line id="" style="fill:none;stroke:black;opacity:1;stroke-width:0.5;" x1="263" x2="3036" y1="1903" y2="1903"/>
  <g id="" transform="matrix(1 0 0 1 263 1933)">
   <path d="M9.24805 0.830078C13.5547 0.830078 17.1387-2.74414 17.1387-7.05078C17.1387-11.3574 13.5449-14.9316 9.23828-14.9316C4.94141-14.9316 1.36719-11.3574 1.36719-7.05078C1.36719-2.74414 4.95117 0.830078 9.24805 0.830078ZM9.24805-0.654297C5.70312-0.654297 2.87109-3.49609 2.87109-7.05078C2.87109-10.6055 5.69336-13.4473 9.23828-13.4473C12.793-13.4473 15.6348-10.6055 15.6445-7.05078C15.6543-3.49609 12.8027-0.654297 9.24805-0.654297ZM6.39648-6.31836L8.50586-6.31836L8.50586-4.19922C8.50586-3.75977 8.79883-3.45703 9.22852-3.45703C9.67773-3.45703 9.9707-3.75977 9.9707-4.19922L9.9707-6.31836L12.0996-6.31836C12.5391-6.31836 12.8418-6.61133 12.8418-7.04102C12.8418-7.48047 12.5391-7.7832 12.0996-7.7832L9.9707-7.7832L9.9707-9.89258C9.9707-10.3418 9.67773-10.6445 9.22852-10.6445C8.79883-10.6445 8.50586-10.3418 8.50586-9.89258L8.50586-7.7832L6.39648-7.7832C5.94727-7.7832 5.64453-7.48047 5.64453-7.04102C5.64453-6.61133 5.94727-6.31836 6.39648-6.31836Z"/>
  </g>
  <g id="" transform="matrix(1 0 0 1 281.506 1933)">
   <path d="M11.709 2.91016C17.1582 2.91016 21.6699-1.61133 21.6699-7.05078C21.6699-12.5 17.1484-17.0117 11.6992-17.0117C6.25977-17.0117 1.74805-12.5 1.74805-7.05078C1.74805-1.61133 6.26953 2.91016 11.709 2.91016ZM11.709 1.25C7.09961 1.25 3.41797-2.44141 3.41797-7.05078C3.41797-11.6602 7.08984-15.3516 11.6992-15.3516C16.3086-15.3516 20-11.6602 20.0098-7.05078C20.0195-2.44141 16.3184 1.25 11.709 1.25ZM7.98828-6.23047L10.8789-6.23047L10.8789-3.32031C10.8789-2.83203 11.2109-2.5 11.6895-2.5C12.1777-2.5 12.5195-2.83203 12.5195-3.32031L12.5195-6.23047L15.4297-6.23047C15.918-6.23047 16.25-6.5625 16.25-7.04102C16.25-7.5293 15.918-7.87109 15.4297-7.87109L12.5195-7.87109L12.5195-10.7617C12.5195-11.2695 12.1777-11.6016 11.6895-11.6016C11.2109-11.6016 10.8789-11.2598 10.8789-10.7617L10.8789-7.87109L7.98828-7.87109C7.48047-7.87109 7.14844-7.5293 7.14844-7.04102C7.14844-6.5625 7.49023-6.23047 7.98828-6.23047Z"/>
  </g>
  <g id="" transform="matrix(1 0 0 1 304.924 1933)">
   <path d="M14.9707 5.66406C21.9336 5.66406 27.6953-0.0976562 27.6953-7.05078C27.6953-14.0137 21.9238-19.7754 14.9609-19.7754C8.00781-19.7754 2.25586-14.0137 2.25586-7.05078C2.25586-0.0976562 8.01758 5.66406 14.9707 5.66406ZM14.9707 3.84766C8.93555 3.84766 4.08203-1.01562 4.08203-7.05078C4.08203-13.0957 8.92578-17.9492 14.9609-17.9492C21.0059-17.9492 25.8594-13.0957 25.8691-7.05078C25.8789-1.01562 21.0156 3.84766 14.9707 3.84766ZM10.0586-6.14258L14.0625-6.14258L14.0625-2.12891C14.0625-1.5918 14.4336-1.2207 14.9512-1.2207C15.4883-1.2207 15.8594-1.5918 15.8594-2.12891L15.8594-6.14258L19.8828-6.14258C20.4102-6.14258 20.791-6.51367 20.791-7.03125C20.791-7.56836 20.4199-7.94922 19.8828-7.94922L15.8594-7.94922L15.8594-11.9531C15.8594-12.5098 15.4883-12.8809 14.9512-12.8809C14.4336-12.8809 14.0625-12.5 14.0625-11.9531L14.0625-7.94922L10.0586-7.94922C9.50195-7.94922 9.13086-7.56836 9.13086-7.03125C9.13086-6.51367 9.51172-6.14258 10.0586-6.14258Z"/>
  </g>
  <text style="stroke:none;fill:black;font-family:-apple-system,&quot;SF Pro Display&quot;,&quot;SF Pro Text&quot;,Helvetica,sans-serif;font-weight:bold;" transform="matrix(1 0 0 1 263 1953)">Design Variations</text>
  <text style="stroke:none;fill:black;font-family:-apple-system,&quot;SF Pro Display&quot;,&quot;SF Pro Text&quot;,Helvetica,sans-serif;" transform="matrix(1 0 0 1 263 1971)">Symbols are supported in up to nine weights and three scales.</text>
  <text style="stroke:none;fill:black;font-family:-apple-system,&quot;SF Pro Display&quot;,&quot;SF Pro Text&quot;,Helvetica,sans-serif;" transform="matrix(1 0 0 1 263 1989)">For optimal layout with text and other symbols, vertically align</text>
  <text style="stroke:none;fill:black;font-family:-apple-system,&quot;SF Pro Display&quot;,&quot;SF Pro Text&quot;,Helvetica,sans-serif;" transform="matrix(1 0 0 1 263 2007)">symbols with the adjacent text.</text>
  <line id="" style="fill:none;stroke:#00AEEF;stroke-width:0.5;opacity:1.0;" x1="776" x2="776" y1="1919" y2="1933"/>
  <g id="" transform="matrix(1 0 0 1 776 1933)">
   <path d="M3.31055 0.126953C3.82812 0.126953 4.08203-0.0683594 4.26758-0.605469L5.52734-4.0625L11.2891-4.0625L12.5488-0.605469C12.7344-0.0683594 12.9883 0.126953 13.4961 0.126953C14.0137 0.126953 14.3457-0.185547 14.3457-0.673828C14.3457-0.839844 14.3164-0.986328 14.2383-1.20117L9.6582-13.3887C9.43359-13.9941 9.0332-14.2871 8.4082-14.2871C7.80273-14.2871 7.39258-13.9941 7.17773-13.3984L2.59766-1.19141C2.51953-0.976562 2.49023-0.830078 2.49023-0.664062C2.49023-0.175781 2.80273 0.126953 3.31055 0.126953ZM6.00586-5.53711L8.37891-12.1094L8.42773-12.1094L10.8008-5.53711Z"/>
  </g>
  <line id="" style="fill:none;stroke:#00AEEF;stroke-width:0.5;opacity:1.0;" x1="792.836" x2="792.836" y1="1919" y2="1933"/>
  <text style="stroke:none;fill:black;font-family:-apple-system,&quot;SF Pro Display&quot;,&quot;SF Pro Text&quot;,Helvetica,sans-serif;font-weight:bold;" transform="matrix(1 0 0 1 776 1953)">Margins</text>
  <text style="stroke:none;fill:black;font-family:-apple-system,&quot;SF Pro Display&quot;,&quot;SF Pro Text&quot;,Helvetica,sans-serif;" transform="matrix(1 0 0 1 776 1971)">Leading and trailing margins on the left and right side of each symbol</text>
  <text style="stroke:none;fill:black;font-family:-apple-system,&quot;SF Pro Display&quot;,&quot;SF Pro Text&quot;,Helvetica,sans-serif;" transform="matrix(1 0 0 1 776 1989)">can be adjusted by modifying the x-location of the margin guidelines.</text>
  <text style="stroke:none;fill:black;font-family:-apple-system,&quot;SF Pro Display&quot;,&quot;SF Pro Text&quot;,Helvetica,sans-serif;" transform="matrix(1 0 0 1 776 2007)">Modifications are automatically applied proportionally to all</text>
  <text style="stroke:none;fill:black;font-family:-apple-system,&quot;SF Pro Display&quot;,&quot;SF Pro Text&quot;,Helvetica,sans-serif;" transform="matrix(1 0 0 1 776 2025)">scales and weights.</text>
  <g id="" transform="matrix(1 0 0 1 1289 1933)">
   <path d="M2.8418 1.86523L4.54102 3.57422C5.40039 4.44336 6.38672 4.38477 7.31445 3.35938L17.4902-7.85156C17.7539-7.76367 18.0273-7.7832 18.3398-7.8418L19.4043-8.03711L20.0684-7.36328L20.0293-6.80664C19.9902-6.30859 20.1172-5.92773 20.6055-5.44922L21.3672-4.70703C21.8457-4.22852 22.4609-4.19922 22.9297-4.66797L25.8398-7.58789C26.3086-8.05664 26.2891-8.65234 25.8105-9.13086L25.0391-9.89258C24.5605-10.3711 24.1895-10.5273 23.7109-10.4883L23.1348-10.4395L22.4902-11.0742L22.7344-12.1973C22.8613-12.7637 22.7051-13.2031 22.1191-13.7891L19.9219-15.9766C16.582-19.2969 12.1484-19.2188 9.25781-16.3281C8.83789-15.918 8.80859-15.3418 9.04297-14.9512C9.27734-14.5898 9.73633-14.3555 10.3809-14.5215C11.8457-14.8633 13.3691-14.9219 14.7949-13.9844L14.209-12.5293C14.0137-12.0508 13.9844-11.6504 14.1113-11.2891L3.04688-0.898438C2.06055 0.0195312 1.98242 0.996094 2.8418 1.86523ZM10.752-15.957C13.1836-17.7344 16.4746-17.4316 18.7012-15.2051L21.1328-12.793C21.3672-12.5586 21.4062-12.373 21.3379-12.0312L21.0156-10.5469L22.5195-9.0625L23.5059-9.12109C23.7598-9.13086 23.8379-9.11133 24.0332-8.91602L24.6094-8.33984L22.168-5.89844L21.5918-6.47461C21.3965-6.66992 21.3672-6.74805 21.377-7.01172L21.4453-7.98828L19.9512-9.47266L18.4277-9.21875C18.1055-9.15039 17.959-9.17969 17.7148-9.41406L15.7129-11.416C15.459-11.6504 15.4297-11.8164 15.5859-12.1875L16.4648-14.2773C14.9023-15.7324 12.8711-16.3574 10.8398-15.7617C10.6836-15.7227 10.625-15.8496 10.752-15.957ZM5.27344 2.30469L4.10156 1.14258C3.63281 0.683594 3.74023 0.341797 4.14062-0.0195312L14.9512-10.1953L16.416-8.71094L6.42578 2.27539C6.07422 2.67578 5.74219 2.77344 5.27344 2.30469Z"/>
  </g>
  <text style="stroke:none;fill:black;font-family:-apple-system,&quot;SF Pro Display&quot;,&quot;SF Pro Text&quot;,Helvetica,sans-serif;font-weight:bold;" transform="matrix(1 0 0 1 1289 1953)">Exporting</text>
  <text style="stroke:none;fill:black;font-family:-apple-system,&quot;SF Pro Display&quot;,&quot;SF Pro Text&quot;,Helvetica,sans-serif;" transform="matrix(1 0 0 1 1289 1971)">Symbols should be outlined when exporting to ensure the</text>
  <text style="stroke:none;fill:black;font-family:-apple-system,&quot;SF Pro Display&quot;,&quot;SF Pro Text&quot;,Helvetica,sans-serif;" transform="matrix(1 0 0 1 1289 1989)">design is preserved when submitting to Xcode.</text>
  <text id="template-version" style="stroke:none;fill:black;font-family:-apple-system,&quot;SF Pro Display&quot;,&quot;SF Pro Text&quot;,Helvetica,sans-serif;text-anchor:end;" transform="matrix(1 0 0 1 3036 1933)">Template v.2.0</text>
  <text style="stroke:none;fill:black;font-family:-apple-system,&quot;SF Pro Display&quot;,&quot;SF Pro Text&quot;,Helvetica,sans-serif;text-anchor:end;" transform="matrix(1 0 0 1 3036 1951)">Requires Xcode 12 or greater</text>
  <text style="stroke:none;fill:black;font-family:-apple-system,&quot;SF Pro Display&quot;,&quot;SF Pro Text&quot;,Helvetica,sans-serif;text-anchor:end;" transform="matrix(1 0 0 1 3036 1969)">Generated from books.vertical</text>
  <text style="stroke:none;fill:black;font-family:-apple-system,&quot;SF Pro Display&quot;,&quot;SF Pro Text&quot;,Helvetica,sans-serif;text-anchor:end;" transform="matrix(1 0 0 1 3036 1987)">Typeset at 100 points</text>
  <text style="stroke:none;fill:black;font-family:-apple-system,&quot;SF Pro Display&quot;,&quot;SF Pro Text&quot;,Helvetica,sans-serif;" transform="matrix(1 0 0 1 263 726)">Small</text>
  <text style="stroke:none;fill:black;font-family:-apple-system,&quot;SF Pro Display&quot;,&quot;SF Pro Text&quot;,Helvetica,sans-serif;" transform="matrix(1 0 0 1 263 1156)">Medium</text>
  <text style="stroke:none;fill:black;font-family:-apple-system,&quot;SF Pro Display&quot;,&quot;SF Pro Text&quot;,Helvetica,sans-serif;" transform="matrix(1 0 0 1 263 1586)">Large</text>
 </g>
 <g id="Guides">
  <g id="H-reference" style="fill:#27AAE1;stroke:none;" transform="matrix(1 0 0 1 339 696)">
   <path d="M0.976562 0L3.66211 0L12.9883-24.4629L45.752-24.4629L55.127 0L57.7637 0L30.6152-70.459L28.125-70.459ZM29.3457-67.1387L29.4434-67.1387L44.873-26.709L13.8672-26.709Z"/>
  </g>
  <line id="Baseline-S" style="fill:none;stroke:#27AAE1;opacity:1;stroke-width:0.5;" x1="263" x2="3036" y1="696" y2="696"/>
  <line id="Capline-S" style="fill:none;stroke:#27AAE1;opacity:1;stroke-width:0.5;" x1="263" x2="3036" y1="625.541" y2="625.541"/>
  <g id="H-reference" style="fill:#27AAE1;stroke:none;" transform="matrix(1 0 0 1 339 1126)">
   <path d="M0.976562 0L3.66211 0L12.9883-24.4629L45.752-24.4629L55.127 0L57.7637 0L30.6152-70.459L28.125-70.459ZM29.3457-67.1387L29.4434-67.1387L44.873-26.709L13.8672-26.709Z"/>
  </g>
  <line id="Baseline-M" style="fill:none;stroke:#27AAE1;opacity:1;stroke-width:0.5;" x1="263" x2="3036" y1="1126" y2="1126"/>
  <line id="Capline-M" style="fill:none;stroke:#27AAE1;opacity:1;stroke-width:0.5;" x1="263" x2="3036" y1="1055.54" y2="1055.54"/>
  <g id="H-reference" style="fill:#27AAE1;stroke:none;" transform="matrix(1 0 0 1 339 1556)">
   <path d="M0.976562 0L3.66211 0L12.9883-24.4629L45.752-24.4629L55.127 0L57.7637 0L30.6152-70.459L28.125-70.459ZM29.3457-67.1387L29.4434-67.1387L44.873-26.709L13.8672-26.709Z"/>
  </g>
  <line id="Baseline-L" style="fill:none;stroke:#27AAE1;opacity:1;stroke-width:0.5;" x1="263" x2="3036" y1="1556" y2="1556"/>
  <line id="Capline-L" style="fill:none;stroke:#27AAE1;opacity:1;stroke-width:0.5;" x1="263" x2="3036" y1="1485.54" y2="1485.54"/>
  <line id="left-margin" style="fill:none;stroke:#00AEEF;stroke-width:0.5;opacity:1.0;" x1="1373.7" x2="1373.7" y1="1030.79" y2="1150.12"/>
  <line id="right-margin" style="fill:none;stroke:#00AEEF;stroke-width:0.5;opacity:1.0;" x1="1525.99" x2="1525.99" y1="1030.79" y2="1150.12"/>
 </g>
 <g id="Symbols">
  <g id="Black-L" transform="matrix(1 0 0 1 2821.02 1556)">
   <path d="M172.998 36.1328L190.771 34.4238C203.662 33.1055 209.668 25.8301 208.447 12.8906L200.195-71.6309C198.926-84.5703 191.602-90.7227 178.711-89.4043L160.938-87.6953C158.984-87.5 157.129-87.1582 155.469-86.6699L155.469-87.4023C155.469-100.439 148.779-107.178 135.791-107.178L116.211-107.178C103.223-107.178 96.4844-100.439 96.4844-87.4023L96.4844-63.1836L67.9688-63.1836L67.9688-68.3594C67.9688-81.3477 61.2793-88.0859 48.291-88.0859L35.8398-88.0859C22.8027-88.0859 16.1133-81.3477 16.1133-68.3594L16.1133 15.4785C16.1133 28.5156 22.8027 35.2539 35.8398 35.2539L135.791 35.2539C144.531 35.2539 150.439 32.1777 153.369 26.1719C156.445 33.7402 163.086 37.1582 172.998 36.1328ZM120.508-87.1582L131.445-87.1582C134.082-87.1582 135.449-85.7422 135.449-83.2031L135.449 11.2305C135.449 13.8184 134.082 15.2344 131.445 15.2344L116.504 15.2344L116.504-83.2031C116.504-85.7422 117.92-87.1582 120.508-87.1582ZM171.094 12.2559L163.574-63.8672C163.33-66.4062 164.502-67.8711 167.09-68.1641L176.27-69.0918C178.857-69.3848 180.371-68.1152 180.615-65.5762L188.135 10.5469C188.379 13.0371 187.207 14.5996 184.619 14.8926L175.439 15.7715C172.9 16.0645 171.338 14.8438 171.094 12.2559ZM40.1367 15.2344C37.5 15.2344 36.1328 13.8184 36.1328 11.2305L36.1328-64.1113C36.1328-66.6504 37.5-68.0664 40.1367-68.0664L43.9941-68.0664C46.582-68.0664 47.9492-66.6504 47.9492-64.1113L47.9492 15.2344ZM71.9727-43.1641L92.5293-43.1641C95.1172-43.1641 96.4844-41.748 96.4844-39.209L96.4844 15.2344L67.9688 15.2344L67.9688-39.209C67.9688-41.748 69.3848-43.1641 71.9727-43.1641ZM76.2695-27.832L88.7695-27.832C91.4551-27.832 93.5059-29.9805 93.5059-32.6172C93.5059-35.3516 91.4551-37.4512 88.7695-37.4512L76.2695-37.4512C73.4863-37.4512 71.4844-35.3516 71.4844-32.6172C71.4844-29.9805 73.584-27.832 76.2695-27.832ZM76.2695 9.52148L88.7695 9.52148C91.4551 9.52148 93.5059 7.42188 93.5059 4.73633C93.5059 2.05078 91.4551-0.0976562 88.7695-0.0976562L76.2695-0.0976562C73.584-0.0976562 71.4844 2.05078 71.4844 4.73633C71.4844 7.42188 73.4863 9.52148 76.2695 9.52148Z"/>
  </g>
  <g id="Heavy-L" transform="matrix(1 0 0 1 2528.22 1556)">
   <path d="M168.262 35.2051L184.473 33.5938C196.387 32.3242 201.855 25.6348 200.684 13.7207L191.943-73.1934C190.771-85.1074 184.082-90.7715 172.119-89.502L155.908-87.8906C153.76-87.6465 151.855-87.2559 150.098-86.6699L150.098-88.6719C150.098-100.684 143.994-106.885 132.031-106.885L113.184-106.885C101.123-106.885 95.0195-100.684 95.0195-88.6719L95.0195-64.2578C94.7266-64.2578 94.4336-64.2578 94.1406-64.2578L64.9902-64.2578C64.6484-64.2578 64.3555-64.2578 64.0625-64.2578L64.0625-70.166C64.0625-82.1777 57.959-88.3789 45.9473-88.3789L34.2285-88.3789C22.2168-88.3789 16.1133-82.1777 16.1133-70.166L16.1133 16.3086C16.1133 28.3203 22.2168 34.4727 34.2285 34.4727L132.031 34.4727C141.357 34.4727 147.168 30.7129 149.219 23.3398C151.562 32.1777 157.91 36.2793 168.262 35.2051ZM116.65-89.6484L128.516-89.6484C131.445-89.6484 132.91-88.1348 132.91-85.3027L132.91 12.8906C132.91 15.7227 131.445 17.2852 128.516 17.2852L112.256 17.2852L112.256-85.3027C112.256-88.1348 113.721-89.6484 116.65-89.6484ZM165.283 13.8672L157.129-66.3574C156.836-69.1406 158.154-70.752 161.035-71.0938L170.264-72.0215C173.193-72.3633 174.805-70.9473 175.098-68.2129L183.252 12.0117C183.545 14.7949 182.227 16.4062 179.346 16.748L170.068 17.7246C167.236 18.0664 165.576 16.6992 165.283 13.8672ZM37.7441 17.2852C34.8145 17.2852 33.3496 15.7227 33.3496 12.8906L33.3496-66.7969C33.3496-69.6289 34.8145-71.1426 37.7441-71.1426L42.4316-71.1426C45.3613-71.1426 46.8262-69.6289 46.8262-66.7969L46.8262 17.2852ZM68.457-47.0703L90.625-47.0703C93.5547-47.0703 95.0195-45.5078 95.0195-42.7246L95.0195 17.2852L64.0625 17.2852L64.0625-42.7246C64.0625-45.5078 65.5762-47.0703 68.457-47.0703ZM72.6562-31.7383L86.9141-31.7383C89.4043-31.7383 91.3086-33.6914 91.3086-36.1816C91.3086-38.7207 89.4043-40.6738 86.9141-40.6738L72.6562-40.6738C70.0684-40.6738 68.1641-38.7207 68.1641-36.1816C68.1641-33.6914 70.1172-31.7383 72.6562-31.7383ZM72.6562 10.8887L86.9141 10.8887C89.4043 10.8887 91.3086 8.88672 91.3086 6.39648C91.3086 3.90625 89.4043 1.9043 86.9141 1.9043L72.6562 1.9043C70.1172 1.9043 68.1641 3.90625 68.1641 6.39648C68.1641 8.88672 70.0684 10.8887 72.6562 10.8887Z"/>
  </g>
  <g id="Bold-L" transform="matrix(1 0 0 1 2235.85 1556)">
   <path d="M145.02 19.4824C146.143 30.2734 152.1 35.3516 162.939 34.1309L177.393 32.6172C188.281 31.3965 193.066 25.4395 191.992 14.5996L182.666-74.9023C181.592-85.6934 175.586-90.8203 164.746-89.5996L150.293-88.0859C147.949-87.8418 145.898-87.3535 144.141-86.6699L144.141-90.0879C144.141-100.977 138.672-106.543 127.783-106.543L109.766-106.543C98.8281-106.543 93.3594-100.977 93.3594-90.0879L93.3594-65.4297C92.6758-65.4785 91.8945-65.5273 91.1133-65.5273L61.9629-65.5273C61.1328-65.5273 60.4004-65.4785 59.668-65.4297L59.668-72.2168C59.668-83.1055 54.1992-88.6719 43.3105-88.6719L32.4707-88.6719C21.582-88.6719 16.1133-83.1055 16.1133-72.2168L16.1133 17.1875C16.1133 28.0762 21.582 33.6426 32.4707 33.6426L127.783 33.6426C138.672 33.6426 144.141 28.0762 144.141 17.1875L144.141 10.9375ZM112.305-92.4316L125.195-92.4316C128.467-92.4316 130.029-90.8203 130.029-87.6953L130.029 14.7461C130.029 17.9199 128.467 19.5801 125.195 19.5801L107.471 19.5801L107.471-87.6953C107.471-90.8203 109.082-92.4316 112.305-92.4316ZM158.789 15.625L149.951-69.0918C149.609-72.2168 151.025-73.9258 154.248-74.3164L163.574-75.3418C166.797-75.7324 168.555-74.1699 168.896-71.1426L177.734 13.623C178.076 16.748 176.709 18.457 173.486 18.8477L164.062 19.873C160.889 20.2637 159.131 18.75 158.789 15.625ZM35.0586 19.5801C31.8359 19.5801 30.2246 17.9199 30.2246 14.7461L30.2246-69.8242C30.2246-72.9492 31.8359-74.6094 35.0586-74.6094L40.7227-74.6094C43.9941-74.6094 45.5566-72.9492 45.5566-69.8242L45.5566 19.5801ZM64.502-51.416L88.5254-51.416C91.7969-51.416 93.3594-49.7559 93.3594-46.6797L93.3594 19.5801L59.668 19.5801L59.668-46.6797C59.668-49.7559 61.2793-51.416 64.502-51.416ZM68.5547-36.084L84.8145-36.084C87.1094-36.084 88.8672-37.8906 88.8672-40.1367C88.8672-42.4805 87.1094-44.2383 84.8145-44.2383L68.5547-44.2383C66.1621-44.2383 64.4043-42.4805 64.4043-40.1367C64.4043-37.8906 66.2109-36.084 68.5547-36.084ZM68.5547 12.4023L84.8145 12.4023C87.1094 12.4023 88.8672 10.5957 88.8672 8.30078C88.8672 6.00586 87.1094 4.19922 84.8145 4.19922L68.5547 4.19922C66.2109 4.19922 64.4043 6.00586 64.4043 8.30078C64.4043 10.5957 66.1621 12.4023 68.5547 12.4023Z"/>
  </g>
  <g id="Semibold-L" transform="matrix(1 0 0 1 1942.14 1556)">
   <path d="M142.627 19.873C143.75 29.8828 149.17 34.6191 159.277 33.3984L172.559 31.9824C182.666 30.7617 187.012 25.293 185.986 15.2344L176.318-76.123C175.244-86.084 169.775-90.8691 159.668-89.6484L146.387-88.2324C143.896-87.9395 141.797-87.4023 139.99-86.5723L139.99-91.0645C139.99-101.123 135.01-106.299 124.854-106.299L107.422-106.299C97.2168-106.299 92.2363-101.123 92.2363-91.0645L92.2363-66.1621C91.2598-66.3086 90.1855-66.3574 89.0625-66.3574L59.8633-66.3574C58.7402-66.3574 57.6172-66.3086 56.6406-66.1621L56.6406-73.6328C56.6406-83.7402 51.6113-88.916 41.5039-88.916L31.2988-88.916C21.0938-88.916 16.1133-83.7402 16.1133-73.6328L16.1133 17.8223C16.1133 27.9297 21.0938 33.0566 31.2988 33.0566L124.854 33.0566C135.01 33.0566 139.99 27.9297 139.99 17.8223L139.99-5.0293ZM109.326-94.3848L122.9-94.3848C126.416-94.3848 128.076-92.627 128.076-89.3066L128.076 16.0645C128.076 19.4336 126.416 21.1426 122.9 21.1426L104.199 21.1426L104.199-89.3066C104.199-92.627 105.859-94.3848 109.326-94.3848ZM154.297 16.8457L144.971-70.9961C144.629-74.3164 146.094-76.123 149.561-76.5625L158.984-77.5879C162.402-78.0273 164.258-76.416 164.648-73.1445L173.975 14.6973C174.316 18.0664 172.852 19.873 169.434 20.3125L159.961 21.3379C156.543 21.7773 154.639 20.2148 154.297 16.8457ZM33.2031 21.1426C29.7363 21.1426 28.0273 19.4336 28.0273 16.0645L28.0273-71.875C28.0273-75.2441 29.7363-76.9531 33.2031-76.9531L39.5508-76.9531C43.0176-76.9531 44.6777-75.2441 44.6777-71.875L44.6777 21.1426ZM61.7676-54.4434L87.1094-54.4434C90.5762-54.4434 92.2363-52.6855 92.2363-49.3652L92.2363 21.1426L56.6406 21.1426L56.6406-49.3652C56.6406-52.6855 58.3008-54.4434 61.7676-54.4434ZM65.7715-39.0625L83.3496-39.0625C85.5469-39.0625 87.207-40.7715 87.207-42.9199C87.207-45.0684 85.5469-46.7285 83.3496-46.7285L65.7715-46.7285C63.5254-46.7285 61.8652-45.0684 61.8652-42.9199C61.8652-40.7715 63.5254-39.0625 65.7715-39.0625ZM65.7715 13.4766L83.3496 13.4766C85.5469 13.4766 87.207 11.7676 87.207 9.57031C87.207 7.4707 85.5469 5.76172 83.3496 5.76172L65.7715 5.76172C63.5254 5.76172 61.8652 7.4707 61.8652 9.57031C61.8652 11.7676 63.5254 13.4766 65.7715 13.4766Z"/>
  </g>
  <g id="Medium-L" transform="matrix(1 0 0 1 1647.7 1556)">
   <path d="M140.82 20.166C141.895 29.5898 146.924 34.0332 156.494 32.8613L168.848 31.4941C178.418 30.2734 182.471 25.1465 181.445 15.7227L171.484-77.002C170.459-86.4258 165.381-90.918 155.811-89.6973L143.457-88.3301C140.869-87.9883 138.672-87.4023 136.865-86.4746L136.865-91.7969C136.865-101.27 132.227-106.152 122.656-106.152L105.615-106.152C96.0449-106.152 91.4062-101.27 91.4062-91.7969L91.4062-66.6992C90.1855-66.8945 88.8672-67.041 87.5-67.041L58.3008-67.041C56.8359-67.041 55.5176-66.8945 54.3457-66.6992L54.3457-74.707C54.3457-84.2285 49.6582-89.0625 40.1367-89.0625L30.3711-89.0625C20.752-89.0625 16.1133-84.2285 16.1133-74.707L16.1133 18.3105C16.1133 27.7832 20.752 32.666 30.3711 32.666L122.656 32.666C132.227 32.666 136.865 27.7832 136.865 18.3105L136.865-16.6992ZM107.08-95.8496L121.191-95.8496C124.854-95.8496 126.562-94.043 126.562-90.5273L126.562 16.9922C126.562 20.5566 124.854 22.3633 121.191 22.3633L101.66 22.3633L101.66-90.5273C101.66-94.043 103.418-95.8496 107.08-95.8496ZM150.879 17.7734L141.211-72.4609C140.82-75.9277 142.383-77.7832 145.996-78.2715L155.469-79.3457C159.082-79.7852 161.035-78.0762 161.426-74.6582L171.094 15.5762C171.484 19.0918 169.971 20.9473 166.357 21.3867L156.836 22.4609C153.223 22.9492 151.27 21.2891 150.879 17.7734ZM31.7871 22.3633C28.1738 22.3633 26.416 20.5566 26.416 16.9922L26.416-73.4863C26.416-76.9531 28.1738-78.7598 31.7871-78.7598L38.6719-78.7598C42.334-78.7598 44.043-76.9531 44.043-73.4863L44.043 22.3633ZM59.7168-56.7383L85.9863-56.7383C89.6484-56.7383 91.4062-54.9316 91.4062-51.416L91.4062 22.3633L54.3457 22.3633L54.3457-51.416C54.3457-54.9316 56.1035-56.7383 59.7168-56.7383ZM63.623-41.3086L82.2754-41.3086C84.3262-41.3086 85.9375-42.9199 85.9375-44.9707C85.9375-47.0215 84.3262-48.584 82.2754-48.584L63.623-48.584C61.4746-48.584 59.9121-47.0215 59.9121-44.9707C59.9121-42.9199 61.5234-41.3086 63.623-41.3086ZM63.623 14.2578L82.2754 14.2578C84.3262 14.2578 85.9375 12.6465 85.9375 10.5957C85.9375 8.54492 84.3262 6.98242 82.2754 6.98242L63.623 6.98242C61.5234 6.98242 59.9121 8.54492 59.9121 10.5957C59.9121 12.6465 61.4746 14.2578 63.623 14.2578Z"/>
  </g>
  <g id="Regular-L" transform="matrix(1 0 0 1 1353.97 1556)">
   <path d="M138.477 20.6055C139.502 29.1992 144.043 33.3008 152.881 32.1289L164.062 30.8594C172.852 29.6875 176.465 25 175.488 16.3574L165.186-78.2227C164.209-86.8164 159.619-90.9668 150.781-89.7949L139.6-88.4766C136.816-88.0859 134.57-87.4023 132.764-86.3281L132.764-92.7734C132.764-101.465 128.564-105.908 119.775-105.908L103.32-105.908C94.4336-105.908 90.2832-101.465 90.2832-92.7734L90.2832-67.2852C88.8672-67.6758 87.2559-67.8711 85.4492-67.8711L56.2012-67.8711C54.3945-67.8711 52.7832-67.6758 51.3184-67.2852L51.3184-76.123C51.3184-84.8633 47.1191-89.2578 38.3301-89.2578L29.1504-89.2578C20.3125-89.2578 16.1133-84.8633 16.1133-76.123L16.1133 18.9453C16.1133 27.6367 20.3125 32.0801 29.1504 32.0801L119.775 32.0801C128.564 32.0801 132.764 27.6367 132.764 18.9453L132.764-31.4941ZM104.102-97.7539L118.945-97.7539C122.803-97.7539 124.609-95.8496 124.609-92.1387L124.609 18.2617C124.609 22.0215 122.803 23.9258 118.945 23.9258L98.4375 23.9258L98.4375-92.1387C98.4375-95.8496 100.244-97.7539 104.102-97.7539ZM146.484 18.9453L136.328-74.3164C135.889-78.0273 137.5-79.9805 141.357-80.4688L150.928-81.5918C154.736-82.0801 156.787-80.2734 157.178-76.6602L167.334 16.6504C167.773 20.4102 166.162 22.3145 162.305 22.8516L152.734 23.9258C148.877 24.4629 146.875 22.7051 146.484 18.9453ZM29.9805 23.9258C26.123 23.9258 24.2676 22.0215 24.2676 18.2617L24.2676-75.5371C24.2676-79.1992 26.123-81.1035 29.9805-81.1035L37.5-81.1035C41.3574-81.1035 43.1641-79.1992 43.1641-75.5371L43.1641 23.9258ZM57.0312-59.7168L84.5703-59.7168C88.4766-59.7168 90.2832-57.8125 90.2832-54.1016L90.2832 23.9258L51.3184 23.9258L51.3184-54.1016C51.3184-57.8125 53.1738-59.7168 57.0312-59.7168ZM60.8398-44.2871L80.8105-44.2871C82.7637-44.2871 84.2285-45.8008 84.2285-47.7051C84.2285-49.5605 82.7637-51.0254 80.8105-51.0254L60.8398-51.0254C58.8379-51.0254 57.373-49.5605 57.373-47.7051C57.373-45.8008 58.8379-44.2871 60.8398-44.2871ZM60.8398 15.2832L80.8105 15.2832C82.7637 15.2832 84.2285 13.7695 84.2285 11.8652C84.2285 10.0098 82.7637 8.54492 80.8105 8.54492L60.8398 8.54492C58.8379 8.54492 57.373 10.0098 57.373 11.8652C57.373 13.7695 58.8379 15.2832 60.8398 15.2832Z"/>
  </g>
  <g id="Light-L" transform="matrix(1 0 0 1 1060.53 1556)">
   <path d="M134.033 21.9727C134.814 29.2969 138.623 32.8613 146.338 31.9336L159.033 30.6641C166.699 29.7363 169.775 25.6348 168.945 18.2617L159.424-76.7578C158.594-84.1309 154.736-87.7441 147.021-86.8164L134.326-85.498C131.836-85.1562 129.834-84.5703 128.32-83.5938L128.32-92.9199C128.32-100.391 124.756-104.248 117.09-104.248L99.8535-104.248C92.1875-104.248 88.623-100.391 88.623-92.9199L88.623-66.7969C87.2559-67.2852 85.6445-67.4805 83.7402-67.4805L54.3457-67.4805C52.4414-67.4805 50.7812-67.2852 49.4141-66.7969L49.4141-77.3926C49.4141-84.8633 45.8984-88.7207 38.1836-88.7207L27.3438-88.7207C19.6289-88.7207 16.1133-84.8633 16.1133-77.3926L16.1133 20.459C16.1133 27.9297 19.6289 31.7871 27.3438 31.7871L117.09 31.7871C124.756 31.7871 128.32 27.9297 128.32 20.459L128.32-34.2773ZM100.439-97.9492L116.504-97.9492C120.312-97.9492 121.973-96.1914 121.973-92.4805L121.973 20.0195C121.973 23.7305 120.312 25.4395 116.504 25.4395L94.9707 25.4395L94.9707-92.4805C94.9707-96.1914 96.6309-97.9492 100.439-97.9492ZM27.9297 25.4395C24.1211 25.4395 22.4121 23.7305 22.4121 20.0195L22.4121-76.9531C22.4121-80.6641 24.1211-82.4219 27.9297-82.4219L37.5977-82.4219C41.4551-82.4219 43.1152-80.6641 43.1152-76.9531L43.1152 25.4395ZM140.186 20.752L130.713-73.3398C130.322-77.0508 131.836-78.8574 135.645-79.2969L147.168-80.4688C150.977-80.9082 152.783-79.248 153.174-75.6348L162.646 18.5059C163.037 22.2168 161.572 24.0234 157.764 24.4629L146.191 25.5859C142.432 26.0742 140.576 24.5117 140.186 20.752ZM54.8828-61.1816L83.1543-61.1816C86.9629-61.1816 88.623-59.4727 88.623-55.7617L88.623 25.4395L49.4141 25.4395L49.4141-55.7617C49.4141-59.4727 51.123-61.1816 54.8828-61.1816ZM58.7891-46.7285L79.3457-46.7285C80.9082-46.7285 82.1289-47.9492 82.1289-49.4629C82.1289-50.9766 80.9082-52.1484 79.3457-52.1484L58.7891-52.1484C57.1777-52.1484 55.957-50.9766 55.957-49.4629C55.957-47.9492 57.1777-46.7285 58.7891-46.7285ZM58.7891 16.4551L79.3457 16.4551C80.9082 16.4551 82.1289 15.2344 82.1289 13.7207C82.1289 12.207 80.9082 10.9863 79.3457 10.9863L58.7891 10.9863C57.1777 10.9863 55.957 12.207 55.957 13.7207C55.957 15.2344 57.1777 16.4551 58.7891 16.4551Z"/>
  </g>
  <g id="Thin-L" transform="matrix(1 0 0 1 768.165 1556)">
   <path d="M128.076 23.7793C128.662 29.4434 131.494 32.2754 137.646 31.6895L152.344 30.4199C158.545 29.834 160.889 26.5137 160.352 20.752L151.709-74.8535C151.172-80.6152 148.242-83.4473 142.09-82.8613L127.393-81.4941C125.293-81.2988 123.633-80.8105 122.363-79.9805L122.363-93.1641C122.363-98.9258 119.727-102.051 113.574-102.051L95.3125-102.051C89.1113-102.051 86.4746-98.9258 86.4746-93.1641L86.4746-66.0156C85.2051-66.6504 83.5449-66.9922 81.543-66.9922L51.8555-66.9922C49.8047-66.9922 48.1445-66.6504 46.875-66.0156L46.875-79.1504C46.875-84.8633 44.2383-87.9883 38.0371-87.9883L24.9512-87.9883C18.75-87.9883 16.1133-84.8633 16.1133-79.1504L16.1133 22.5098C16.1133 28.2715 18.75 31.3477 24.9512 31.3477L113.574 31.3477C119.727 31.3477 122.363 28.2715 122.363 22.5098L122.363-39.0625ZM95.5566-98.1934L113.281-98.1934C117.041-98.1934 118.506-96.6797 118.506-92.9688L118.506 22.2656C118.506 25.9766 117.041 27.4902 113.281 27.4902L90.332 27.4902L90.332-92.9688C90.332-96.6797 91.8457-98.1934 95.5566-98.1934ZM25.1953 27.4902C21.4844 27.4902 19.9707 25.9766 19.9707 22.2656L19.9707-78.9062C19.9707-82.6172 21.4844-84.1309 25.1953-84.1309L37.793-84.1309C41.5039-84.1309 43.0176-82.6172 43.0176-78.9062L43.0176 27.4902ZM131.885 23.1445L123.291-72.0215C122.949-75.7324 124.316-77.3926 128.076-77.7344L142.236-79.0039C145.947-79.3457 147.559-77.9297 147.9-74.3164L156.494 20.9473C156.787 24.6582 155.469 26.2207 151.758 26.5625L137.598 27.832C133.887 28.1738 132.227 26.8555 131.885 23.1445ZM52.0996-63.1348L81.25-63.1348C85.0098-63.1348 86.4746-61.6211 86.4746-57.959L86.4746 27.4902L46.875 27.4902L46.875-57.959C46.875-61.6211 48.3398-63.1348 52.0996-63.1348ZM56.0059-49.9512L77.3438-49.9512C78.4668-49.9512 79.248-50.7812 79.248-51.8066C79.248-52.7832 78.4668-53.6133 77.3438-53.6133L56.0059-53.6133C54.9316-53.6133 54.1016-52.7832 54.1016-51.8066C54.1016-50.7812 54.9316-49.9512 56.0059-49.9512ZM56.0059 17.9688L77.3438 17.9688C78.4668 17.9688 79.248 17.1387 79.248 16.1133C79.248 15.0879 78.4668 14.3066 77.3438 14.3066L56.0059 14.3066C54.9316 14.3066 54.1016 15.0879 54.1016 16.1133C54.1016 17.1387 54.9316 17.9688 56.0059 17.9688Z"/>
  </g>
  <g id="Ultralight-L" transform="matrix(1 0 0 1 473.676 1556)">
   <path d="M125.049 24.707C125.488 29.4922 127.832 31.9824 133.252 31.5918L148.926 30.2734C154.346 29.8828 156.348 26.9531 155.908 22.0703L147.803-73.877C147.363-78.8086 144.971-81.25 139.551-80.8594L123.828-79.4922C121.924-79.3457 120.459-78.9062 119.336-78.125L119.336-93.3105C119.336-98.1934 117.139-100.928 111.719-100.928L93.0176-100.928C87.5977-100.928 85.4004-98.1934 85.4004-93.3105L85.4004-65.4785C84.1797-66.3086 82.5195-66.748 80.3711-66.748L50.5371-66.748C48.3887-66.748 46.7773-66.3086 45.5566-65.4785L45.5566-79.9805C45.5566-84.9121 43.3594-87.5977 37.9395-87.5977L23.7305-87.5977C18.3105-87.5977 16.1133-84.9121 16.1133-79.9805L16.1133 23.5352C16.1133 28.418 18.3105 31.1523 23.7305 31.1523L111.719 31.1523C117.139 31.1523 119.336 28.418 119.336 23.5352L119.336-42.0898ZM93.0664-98.291L111.67-98.291C115.332-98.291 116.748-96.9238 116.748-93.2129L116.748 23.4375C116.748 27.1484 115.332 28.5156 111.67 28.5156L87.9883 28.5156L87.9883-93.2129C87.9883-96.9238 89.4043-98.291 93.0664-98.291ZM23.8281 28.5156C20.1172 28.5156 18.75 27.1484 18.75 23.4375L18.75-79.8828C18.75-83.5938 20.1172-85.0098 23.8281-85.0098L37.8906-85.0098C41.5527-85.0098 42.9688-83.5938 42.9688-79.8828L42.9688 28.5156ZM127.588 24.3652L119.482-71.3867C119.141-75.0977 120.508-76.6602 124.17-76.9531L139.697-78.2715C143.408-78.5645 144.873-77.2461 145.166-73.6328L153.32 22.168C153.613 25.8789 152.344 27.3438 148.682 27.6855L133.154 28.9551C129.492 29.248 127.93 28.0273 127.588 24.3652ZM50.6348-64.1602L80.3223-64.1602C83.9844-64.1602 85.4004-62.7441 85.4004-59.0332L85.4004 28.5156L45.5566 28.5156L45.5566-59.0332C45.5566-62.7441 46.9727-64.1602 50.6348-64.1602ZM54.5898-51.6113L76.3184-51.6113C77.1973-51.6113 77.832-52.1973 77.832-52.9785C77.832-53.7598 77.1973-54.3945 76.3184-54.3945L54.5898-54.3945C53.7598-54.3945 53.125-53.7598 53.125-52.9785C53.125-52.1973 53.7598-51.6113 54.5898-51.6113ZM54.5898 18.75L76.3184 18.75C77.1973 18.75 77.832 18.1152 77.832 17.3828C77.832 16.6016 77.1973 15.9668 76.3184 15.9668L54.5898 15.9668C53.7598 15.9668 53.125 16.6016 53.125 17.3828C53.125 18.1152 53.7598 18.75 54.5898 18.75Z"/>
  </g>
  <g id="Black-M" transform="matrix(1 0 0 1 2842.85 1126)">
   <path d="M136.963 21.2402L153.613 19.7754C164.307 18.8477 169.482 12.6953 168.506 2.00195L163.135-60.5957C162.207-71.2891 156.055-76.416 145.312-75.4883L128.711-74.0723C127.49-73.9746 126.367-73.7793 125.293-73.5352L125.293-74.0723C125.293-84.8633 119.629-90.4785 108.838-90.4785L92.2852-90.4785C81.4941-90.4785 75.8789-84.8633 75.8789-74.0723L75.8789-55.1758L56.9336-55.1758L56.9336-59.1309C56.9336-69.873 51.2695-75.5371 40.4785-75.5371L28.8574-75.5371C18.1152-75.5371 12.4512-69.873 12.4512-59.1309L12.4512 3.80859C12.4512 14.5508 18.1152 20.2148 28.8574 20.2148L108.838 20.2148C114.746 20.2148 119.141 18.5059 121.875 15.2344C124.756 19.7754 129.834 21.875 136.963 21.2402ZM96.582-72.2168L104.541-72.2168C106.104-72.2168 106.982-71.3379 106.982-69.7754L106.982-0.537109C106.982 1.07422 106.104 1.9043 104.541 1.9043L94.1895 1.9043L94.1895-69.7754C94.1895-71.3379 95.0195-72.2168 96.582-72.2168ZM33.2031 1.9043C31.5918 1.9043 30.7617 1.07422 30.7617-0.537109L30.7617-54.7852C30.7617-56.3965 31.5918-57.2266 33.2031-57.2266L36.1816-57.2266C37.793-57.2266 38.623-56.3965 38.623-54.7852L38.623 1.9043ZM137.012 0.439453L132.373-53.5645C132.275-55.1758 133.008-56.1035 134.57-56.2012L142.627-56.8848C144.238-56.9824 145.166-56.2988 145.264-54.6875L149.902-0.683594C150 0.830078 149.268 1.80664 147.705 1.95312L139.648 2.63672C138.135 2.73438 137.158 2.00195 137.012 0.439453ZM59.375-36.8652L73.4375-36.8652C75-36.8652 75.8789-36.0352 75.8789-34.4238L75.8789 1.9043L56.9336 1.9043L56.9336-34.4238C56.9336-36.0352 57.7637-36.8652 59.375-36.8652ZM62.8906-25.5859L70.5078-25.5859C72.6074-25.5859 74.2188-27.2949 74.2188-29.3457C74.2188-31.543 72.6074-33.2031 70.5078-33.2031L62.8906-33.2031C60.6934-33.2031 59.082-31.543 59.082-29.3457C59.082-27.2949 60.7422-25.5859 62.8906-25.5859ZM62.8906-1.75781L70.5078-1.75781C72.6074-1.75781 74.2188-3.4668 74.2188-5.56641C74.2188-7.71484 72.6074-9.47266 70.5078-9.47266L62.8906-9.47266C60.7422-9.47266 59.082-7.71484 59.082-5.56641C59.082-3.4668 60.6934-1.75781 62.8906-1.75781Z"/>
  </g>
  <g id="Heavy-M" transform="matrix(1 0 0 1 2549.56 1126)">
   <path d="M133.447 20.2637L147.998 18.8965C157.959 17.9688 162.646 12.3535 161.719 2.39258L155.615-62.6465C154.688-72.5586 149.072-77.3438 139.111-76.3672L124.561-75.0488C123.145-74.9023 121.826-74.6582 120.605-74.3164L120.605-75.3906C120.605-85.4004 115.43-90.625 105.42-90.625L89.8438-90.625C79.834-90.625 74.6582-85.4004 74.6582-75.3906L74.6582-56.4941L53.125-56.4941L53.125-60.791C53.125-70.8008 47.9492-75.9766 37.9395-75.9766L27.6367-75.9766C17.627-75.9766 12.4512-70.8008 12.4512-60.791L12.4512 4.29688C12.4512 14.3066 17.627 19.4824 27.6367 19.4824L105.42 19.4824C111.816 19.4824 116.26 17.334 118.604 13.1836C121.094 18.5547 126.074 20.9473 133.447 20.2637ZM93.3105-74.9023L101.953-74.9023C103.857-74.9023 104.883-73.877 104.883-71.9727L104.883 0.830078C104.883 2.73438 103.857 3.75977 101.953 3.75977L90.3809 3.75977L90.3809-71.9727C90.3809-73.877 91.4062-74.9023 93.3105-74.9023ZM132.324 1.66016L126.807-56.543C126.66-58.3984 127.539-59.4727 129.443-59.668L137.061-60.4004C139.014-60.5957 140.088-59.668 140.283-57.8125L145.752 0.390625C145.898 2.24609 145.068 3.36914 143.115 3.56445L135.498 4.29688C133.643 4.49219 132.471 3.56445 132.324 1.66016ZM31.1035 3.75977C29.1992 3.75977 28.1738 2.73438 28.1738 0.830078L28.1738-57.3242C28.1738-59.2285 29.1992-60.2539 31.1035-60.2539L34.4727-60.2539C36.4258-60.2539 37.4023-59.2285 37.4023-57.3242L37.4023 3.75977ZM56.0547-40.7715L71.7285-40.7715C73.6816-40.7715 74.6582-39.7461 74.6582-37.8418L74.6582 3.75977L53.125 3.75977L53.125-37.8418C53.125-39.7461 54.1504-40.7715 56.0547-40.7715ZM59.4238-29.1992L68.8477-29.1992C70.8496-29.1992 72.4121-30.8105 72.4121-32.7637C72.4121-34.8145 70.8496-36.4258 68.8477-36.4258L59.4238-36.4258C57.373-36.4258 55.8105-34.8145 55.8105-32.7637C55.8105-30.8105 57.4219-29.1992 59.4238-29.1992ZM59.4238-0.585938L68.8477-0.585938C70.8496-0.585938 72.4121-2.19727 72.4121-4.19922C72.4121-6.20117 70.8496-7.86133 68.8477-7.86133L59.4238-7.86133C57.4219-7.86133 55.8105-6.20117 55.8105-4.19922C55.8105-2.19727 57.373-0.585938 59.4238-0.585938Z"/>
  </g>
  <g id="Bold-M" transform="matrix(1 0 0 1 2256.63 1126)">
   <path d="M129.541 19.1406L141.797 17.9199C150.879 16.9434 154.98 11.9141 154.102 2.83203L147.217-64.9902C146.289-74.0234 141.211-78.3691 132.129-77.3438L119.922-76.123C118.213-75.9277 116.699-75.6348 115.332-75.1465L115.332-76.9043C115.332-86.0352 110.693-90.7227 101.562-90.7227L87.1582-90.7227C77.9785-90.7227 73.3398-86.0352 73.3398-76.9043L73.3398-57.959C73.0469-57.959 72.7539-57.959 72.4121-57.959L49.8047-57.959C49.5117-57.959 49.1699-57.959 48.877-57.959L48.877-62.6465C48.877-71.7773 44.2383-76.4648 35.1074-76.4648L26.2207-76.4648C17.0898-76.4648 12.4512-71.7773 12.4512-62.6465L12.4512 4.83398C12.4512 13.9648 17.0898 18.6523 26.2207 18.6523L101.562 18.6523C109.082 18.6523 113.525 15.4785 114.893 9.32617C116.455 16.6504 121.387 20.0684 129.541 19.1406ZM89.6973-77.8809L99.0234-77.8809C101.367-77.8809 102.49-76.6602 102.49-74.4629L102.49 2.34375C102.49 4.63867 101.367 5.81055 99.0234 5.81055L86.1816 5.81055L86.1816-74.4629C86.1816-76.6602 87.3535-77.8809 89.6973-77.8809ZM127.051 3.07617L120.605-59.8145C120.361-62.0605 121.387-63.3301 123.682-63.5742L130.859-64.3555C133.154-64.5996 134.424-63.5254 134.668-61.2793L141.113 1.61133C141.357 3.85742 140.332 5.12695 138.037 5.41992L130.859 6.15234C128.564 6.39648 127.246 5.32227 127.051 3.07617ZM28.7598 5.81055C26.4648 5.81055 25.293 4.63867 25.293 2.34375L25.293-60.2051C25.293-62.4512 26.4648-63.623 28.7598-63.623L32.5684-63.623C34.8633-63.623 36.0352-62.4512 36.0352-60.2051L36.0352 5.81055ZM52.3438-45.1172L69.873-45.1172C72.2168-45.1172 73.3398-43.8965 73.3398-41.6992L73.3398 5.81055L48.877 5.81055L48.877-41.6992C48.877-43.8965 50.0488-45.1172 52.3438-45.1172ZM55.6152-33.2031L66.9922-33.2031C68.8965-33.2031 70.3613-34.7168 70.3613-36.6211C70.3613-38.5254 68.8965-40.0391 66.9922-40.0391L55.6152-40.0391C53.6133-40.0391 52.1484-38.5254 52.1484-36.6211C52.1484-34.7168 53.6621-33.2031 55.6152-33.2031ZM55.6152 0.78125L66.9922 0.78125C68.8965 0.78125 70.3613-0.732422 70.3613-2.68555C70.3613-4.54102 68.8965-6.10352 66.9922-6.10352L55.6152-6.10352C53.6621-6.10352 52.1484-4.54102 52.1484-2.68555C52.1484-0.732422 53.6133 0.78125 55.6152 0.78125Z"/>
  </g>
  <g id="Semibold-M" transform="matrix(1 0 0 1 1962.55 1126)">
   <path d="M112.793 6.93359C113.721 15.4297 118.359 19.4336 126.855 18.4082L137.5 17.2852C145.996 16.2598 149.756 11.6211 148.828 3.125L141.406-66.5527C140.527-75 135.84-79.0527 127.344-78.0273L116.699-76.8555C114.844-76.6602 113.135-76.2695 111.719-75.6836L111.719-77.9297C111.719-86.4258 107.471-90.8203 98.9258-90.8203L85.2539-90.8203C76.709-90.8203 72.4609-86.4258 72.4609-77.9297L72.4609-58.8867C71.8262-58.9355 71.1914-58.9844 70.5078-58.9844L47.9004-58.9844C47.2168-58.9844 46.582-58.9355 45.9473-58.8867L45.9473-63.916C45.9473-72.4609 41.6992-76.8066 33.1543-76.8066L25.293-76.8066C16.6992-76.8066 12.4512-72.4609 12.4512-63.916L12.4512 5.22461C12.4512 13.7207 16.6992 18.1152 25.293 18.1152L98.9258 18.1152C107.471 18.1152 111.719 13.7207 111.719 5.22461L111.719-3.07617ZM87.1582-79.9316L97.0215-79.9316C99.6094-79.9316 100.879-78.6133 100.879-76.1719L100.879 3.41797C100.879 5.9082 99.6094 7.22656 97.0215 7.22656L83.3008 7.22656L83.3008-76.1719C83.3008-78.6133 84.5703-79.9316 87.1582-79.9316ZM123.389 4.05273L116.309-62.1094C116.016-64.5508 117.139-65.918 119.727-66.2598L126.562-67.041C129.102-67.3828 130.518-66.1133 130.811-63.7207L137.891 2.44141C138.184 4.93164 137.061 6.29883 134.521 6.64062L127.637 7.42188C125.098 7.76367 123.682 6.54297 123.389 4.05273ZM27.1484 7.22656C24.6094 7.22656 23.291 5.9082 23.291 3.41797L23.291-62.1582C23.291-64.6484 24.6094-65.9668 27.1484-65.9668L31.25-65.9668C33.8379-65.9668 35.1074-64.6484 35.1074-62.1582L35.1074 7.22656ZM49.8047-48.0957L68.5547-48.0957C71.1914-48.0957 72.4609-46.7773 72.4609-44.3359L72.4609 7.22656L45.9473 7.22656L45.9473-44.3359C45.9473-46.7773 47.2656-48.0957 49.8047-48.0957ZM52.9297-35.9863L65.6738-35.9863C67.5293-35.9863 68.9453-37.4512 68.9453-39.2578C68.9453-41.1133 67.5293-42.5293 65.6738-42.5293L52.9297-42.5293C51.0254-42.5293 49.6582-41.1133 49.6582-39.2578C49.6582-37.4512 51.0742-35.9863 52.9297-35.9863ZM52.9297 1.66016L65.6738 1.66016C67.5293 1.66016 68.9453 0.244141 68.9453-1.61133C68.9453-3.41797 67.5293-4.88281 65.6738-4.88281L52.9297-4.88281C51.0742-4.88281 49.6582-3.41797 49.6582-1.61133C49.6582 0.244141 51.0254 1.66016 52.9297 1.66016Z"/>
  </g>
  <g id="Medium-M" transform="matrix(1 0 0 1 1667.82 1126)">
   <path d="M111.523 7.08008C112.451 15.0879 116.748 18.8477 124.805 17.8223L134.229 16.748C142.285 15.7227 145.752 11.377 144.873 3.36914L137.012-67.7734C136.133-75.7812 131.738-79.5898 123.73-78.5156L114.307-77.4414C112.207-77.1973 110.449-76.709 108.984-75.9766L108.984-78.7109C108.984-86.7676 104.98-90.8691 96.9238-90.8691L83.8379-90.8691C75.7324-90.8691 71.7285-86.7676 71.7285-78.7109L71.7285-59.5703C70.8984-59.668 70.0195-59.7168 69.043-59.7168L46.4844-59.7168C45.5078-59.7168 44.5801-59.668 43.75-59.5703L43.75-64.8926C43.75-72.998 39.7461-77.0996 31.6895-77.0996L24.5605-77.0996C16.4551-77.0996 12.4512-72.998 12.4512-64.8926L12.4512 5.51758C12.4512 13.5742 16.4551 17.6758 24.5605 17.6758L96.9238 17.6758C104.98 17.6758 108.984 13.5742 108.984 5.51758L108.984-15.6738ZM85.2539-81.543L95.5078-81.543C98.291-81.543 99.6582-80.0781 99.6582-77.4414L99.6582 4.19922C99.6582 6.88477 98.291 8.34961 95.5078 8.34961L81.1035 8.34961L81.1035-77.4414C81.1035-80.0781 82.4707-81.543 85.2539-81.543ZM120.654 4.78516L113.037-63.8184C112.744-66.4551 113.965-67.9199 116.699-68.3105L123.291-69.0918C126.025-69.4824 127.588-68.1152 127.881-65.5273L135.498 3.07617C135.791 5.76172 134.57 7.22656 131.836 7.61719L125.195 8.39844C122.461 8.78906 120.947 7.4707 120.654 4.78516ZM25.9277 8.34961C23.1934 8.34961 21.7773 6.88477 21.7773 4.19922L21.7773-63.6719C21.7773-66.3086 23.1934-67.7246 25.9277-67.7246L30.2246-67.7246C33.0566-67.7246 34.375-66.3086 34.375-63.6719L34.375 8.34961ZM47.9004-50.3906L67.5781-50.3906C70.4102-50.3906 71.7285-48.9746 71.7285-46.3379L71.7285 8.34961L43.75 8.34961L43.75-46.3379C43.75-48.9746 45.1172-50.3906 47.9004-50.3906ZM50.9277-38.0859L64.7461-38.0859C66.5039-38.0859 67.8711-39.502 67.8711-41.2598C67.8711-43.0176 66.5039-44.3848 64.7461-44.3848L50.9277-44.3848C49.0723-44.3848 47.7539-43.0176 47.7539-41.2598C47.7539-39.502 49.1211-38.0859 50.9277-38.0859ZM50.9277 2.39258L64.7461 2.39258C66.5039 2.39258 67.8711 0.976562 67.8711-0.830078C67.8711-2.53906 66.5039-3.95508 64.7461-3.95508L50.9277-3.95508C49.1211-3.95508 47.7539-2.53906 47.7539-0.830078C47.7539 0.976562 49.0723 2.39258 50.9277 2.39258Z"/>
  </g>
  <g id="Regular-M" transform="matrix(1 0 0 1 1373.7 1126)">
   <path d="M109.814 7.22656C110.742 14.6484 114.697 18.1152 122.168 17.0898L129.98 16.0645C137.451 15.0391 140.527 11.084 139.697 3.66211L131.299-69.3359C130.42-76.7578 126.416-80.2734 118.945-79.1992L111.133-78.1738C108.789-77.8809 106.885-77.2461 105.42-76.3672L105.42-79.6875C105.42-87.207 101.758-90.9668 94.3359-90.9668L81.9824-90.9668C74.4629-90.9668 70.8496-87.207 70.8496-79.6875L70.8496-60.3516C69.7266-60.5957 68.5059-60.7422 67.1387-60.7422L44.5801-60.7422C43.2129-60.7422 41.9434-60.5957 40.8203-60.3516L40.8203-66.1621C40.8203-73.6816 37.207-77.4414 29.7363-77.4414L23.584-77.4414C16.0645-77.4414 12.4512-73.6816 12.4512-66.1621L12.4512 5.85938C12.4512 13.3789 16.0645 17.0898 23.584 17.0898L94.3359 17.0898C101.758 17.0898 105.42 13.3789 105.42 5.85938L105.42-31.0059ZM82.7637-83.5938L93.5059-83.5938C96.582-83.5938 98.0469-82.0312 98.0469-79.1504L98.0469 5.27344C98.0469 8.1543 96.582 9.7168 93.5059 9.7168L78.2227 9.7168L78.2227-79.1504C78.2227-82.0312 79.7363-83.5938 82.7637-83.5938ZM117.041 5.76172L108.789-66.0645C108.447-68.9453 109.766-70.5566 112.793-70.9961L119.043-71.7773C122.07-72.2168 123.73-70.7031 124.072-67.9199L132.324 3.90625C132.666 6.83594 131.348 8.39844 128.369 8.83789L122.021 9.66797C119.043 10.1074 117.383 8.69141 117.041 5.76172ZM24.3652 9.7168C21.3379 9.7168 19.8242 8.1543 19.8242 5.27344L19.8242-65.625C19.8242-68.5059 21.3379-70.0684 24.3652-70.0684L28.9551-70.0684C31.9824-70.0684 33.4473-68.5059 33.4473-65.625L33.4473 9.7168ZM45.3613-53.3691L66.3086-53.3691C69.3848-53.3691 70.8496-51.8066 70.8496-48.9258L70.8496 9.7168L40.8203 9.7168L40.8203-48.9258C40.8203-51.8066 42.334-53.3691 45.3613-53.3691ZM48.3398-40.8691L63.4766-40.8691C65.1855-40.8691 66.4551-42.1875 66.4551-43.8965C66.4551-45.5566 65.1855-46.875 63.4766-46.875L48.3398-46.875C46.5332-46.875 45.2637-45.5566 45.2637-43.8965C45.2637-42.1875 46.5332-40.8691 48.3398-40.8691ZM48.3398 3.27148L63.4766 3.27148C65.1855 3.27148 66.4551 1.95312 66.4551 0.244141C66.4551-1.41602 65.1855-2.73438 63.4766-2.73438L48.3398-2.73438C46.5332-2.73438 45.2637-1.41602 45.2637 0.244141C45.2637 1.95312 46.5332 3.27148 48.3398 3.27148Z"/>
  </g>
  <g id="Light-M" transform="matrix(1 0 0 1 1079.94 1126)">
   <path d="M105.811 8.49609C106.543 14.7461 109.814 17.7246 116.309 16.8945L125.439 15.918C131.885 15.0879 134.521 11.6699 133.838 5.37109L126.074-68.0664C125.391-74.3164 122.07-77.3438 115.576-76.5137L106.445-75.4883C104.346-75.2441 102.686-74.707 101.416-73.9258L101.416-79.8828C101.416-86.2305 98.3887-89.4531 91.8945-89.4531L78.9062-89.4531C72.4121-89.4531 69.3848-86.2305 69.3848-79.8828L69.3848-59.9121C68.3105-60.2539 67.041-60.4004 65.625-60.4004L42.9199-60.4004C41.4551-60.4004 40.2344-60.2539 39.1113-59.9121L39.1113-67.334C39.1113-73.6816 36.084-76.9043 29.6387-76.9043L21.9727-76.9043C15.4785-76.9043 12.4512-73.6816 12.4512-67.334L12.4512 7.22656C12.4512 13.5742 15.4785 16.8457 21.9727 16.8457L91.8945 16.8457C98.3887 16.8457 101.416 13.5742 101.416 7.22656L101.416-33.2031ZM79.4434-83.7402L91.3574-83.7402C94.3359-83.7402 95.7031-82.3242 95.7031-79.4434L95.7031 6.78711C95.7031 9.7168 94.3359 11.1328 91.3574 11.1328L75.0977 11.1328L75.0977-79.4434C75.0977-82.3242 76.4648-83.7402 79.4434-83.7402ZM22.5098 11.1328C19.5312 11.1328 18.1641 9.7168 18.1641 6.78711L18.1641-66.9434C18.1641-69.7754 19.5312-71.1914 22.5098-71.1914L29.0527-71.1914C32.0312-71.1914 33.3984-69.7754 33.3984-66.9434L33.3984 11.1328ZM111.426 7.37305L103.76-65.1855C103.467-68.0664 104.688-69.5312 107.617-69.9219L115.674-70.8008C118.652-71.1426 120.166-69.8242 120.459-66.9922L128.125 5.56641C128.418 8.49609 127.246 9.91211 124.268 10.3027L116.211 11.1816C113.232 11.5234 111.719 10.2539 111.426 7.37305ZM43.457-54.6875L65.0391-54.6875C68.0176-54.6875 69.3848-53.2715 69.3848-50.3906L69.3848 11.1328L39.1113 11.1328L39.1113-50.3906C39.1113-53.2715 40.4785-54.6875 43.457-54.6875ZM46.4355-43.0176L62.1094-43.0176C63.5254-43.0176 64.5508-44.0918 64.5508-45.459C64.5508-46.8262 63.5254-47.8516 62.1094-47.8516L46.4355-47.8516C45.0195-47.8516 43.9941-46.8262 43.9941-45.459C43.9941-44.0918 45.0195-43.0176 46.4355-43.0176ZM46.4355 4.29688L62.1094 4.29688C63.5254 4.29688 64.5508 3.22266 64.5508 1.85547C64.5508 0.537109 63.5254-0.488281 62.1094-0.488281L46.4355-0.488281C45.0195-0.488281 43.9941 0.537109 43.9941 1.85547C43.9941 3.22266 45.0195 4.29688 46.4355 4.29688Z"/>
  </g>
  <g id="Thin-M" transform="matrix(1 0 0 1 787.111 1126)">
   <path d="M100.537 10.1074C101.025 14.8438 103.418 17.2363 108.545 16.6992L119.482 15.7227C124.609 15.1855 126.562 12.4512 126.074 7.61719L119.189-66.3574C118.75-71.1426 116.26-73.5352 111.133-72.998L100.195-71.9727C98.4863-71.7773 97.1191-71.3867 96.0938-70.7031L96.0938-80.0781C96.0938-84.9121 93.8477-87.5 88.7207-87.5L74.8047-87.5C69.6777-87.5 67.4805-84.9121 67.4805-80.0781L67.4805-59.2773C66.4062-59.7168 65.1367-59.9609 63.623-59.9609L40.6738-59.9609C39.1602-59.9609 37.8906-59.7168 36.8164-59.2773L36.8164-68.8965C36.8164-73.6816 34.5703-76.2695 29.4922-76.2695L19.8242-76.2695C14.6973-76.2695 12.4512-73.6816 12.4512-68.8965L12.4512 9.08203C12.4512 13.916 14.6973 16.4551 19.8242 16.4551L88.7207 16.4551C93.8477 16.4551 96.0938 13.916 96.0938 9.08203L96.0938-37.0605ZM75.0977-83.9355L88.4766-83.9355C91.3574-83.9355 92.5781-82.7637 92.5781-79.8828L92.5781 8.83789C92.5781 11.7188 91.3574 12.9395 88.4766 12.9395L70.9961 12.9395L70.9961-79.8828C70.9961-82.7637 72.168-83.9355 75.0977-83.9355ZM20.0684 12.9395C17.1875 12.9395 15.9668 11.7188 15.9668 8.83789L15.9668-68.6523C15.9668-71.5332 17.1875-72.7539 20.0684-72.7539L29.1992-72.7539C32.1289-72.7539 33.3008-71.5332 33.3008-68.6523L33.3008 12.9395ZM103.955 9.47266L97.1191-64.0625C96.8262-66.8945 97.9492-68.2129 100.83-68.5059L111.279-69.4824C114.16-69.7754 115.43-68.6035 115.723-65.8203L122.559 7.76367C122.852 10.6445 121.777 11.9141 118.896 12.207L108.447 13.1836C105.566 13.4766 104.248 12.3535 103.955 9.47266ZM40.918-56.4453L63.3301-56.4453C66.2598-56.4453 67.4805-55.2246 67.4805-52.3438L67.4805 12.9395L36.8164 12.9395L36.8164-52.3438C36.8164-55.2246 38.0371-56.4453 40.918-56.4453ZM43.9453-45.9473L60.3516-45.9473C61.2793-45.9473 62.0117-46.6309 62.0117-47.5586C62.0117-48.4375 61.2793-49.1699 60.3516-49.1699L43.9453-49.1699C43.0176-49.1699 42.2852-48.4375 42.2852-47.5586C42.2852-46.6309 43.0176-45.9473 43.9453-45.9473ZM43.9453 5.66406L60.3516 5.66406C61.2793 5.66406 62.0117 4.93164 62.0117 4.05273C62.0117 3.17383 61.2793 2.44141 60.3516 2.44141L43.9453 2.44141C43.0176 2.44141 42.2852 3.17383 42.2852 4.05273C42.2852 4.93164 43.0176 5.66406 43.9453 5.66406Z"/>
  </g>
  <g id="Ultralight-M" transform="matrix(1 0 0 1 492.402 1126)">
   <path d="M97.8027 10.9375C98.1445 14.8926 100.146 16.9434 104.541 16.6016L116.406 15.5762C120.85 15.2344 122.51 12.8418 122.119 8.78906L115.674-65.4785C115.332-69.5312 113.281-71.582 108.887-71.1914L97.0215-70.1172C95.459-70.0195 94.2871-69.6289 93.3594-69.043L93.3594-80.2246C93.3594-84.2773 91.5527-86.4746 87.1094-86.4746L72.7539-86.4746C68.3105-86.4746 66.4551-84.2773 66.4551-80.2246L66.4551-58.8379C65.5273-59.4238 64.209-59.7168 62.5977-59.7168L39.5508-59.7168C37.8906-59.7168 36.6211-59.4238 35.6445-58.8379L35.6445-69.6777C35.6445-73.7305 33.8379-75.9277 29.3945-75.9277L18.7012-75.9277C14.3066-75.9277 12.4512-73.7305 12.4512-69.6777L12.4512 10.0098C12.4512 14.0625 14.3066 16.2598 18.7012 16.2598L87.1094 16.2598C91.5527 16.2598 93.3594 14.0625 93.3594 10.0098L93.3594-39.5996ZM72.8516-84.082L87.0117-84.082C89.8438-84.082 90.9668-82.959 90.9668-80.0781L90.9668 9.86328C90.9668 12.7441 89.8438 13.8672 87.0117 13.8672L68.8477 13.8672L68.8477-80.0781C68.8477-82.959 69.9707-84.082 72.8516-84.082ZM18.8477 13.8672C15.9668 13.8672 14.8438 12.7441 14.8438 9.86328L14.8438-69.5312C14.8438-72.4121 15.9668-73.5352 18.8477-73.5352L29.2969-73.5352C32.1289-73.5352 33.252-72.4121 33.252-69.5312L33.252 13.8672ZM100.146 10.5957L93.7012-63.4277C93.457-66.3086 94.4824-67.5293 97.3633-67.7734L108.984-68.7988C111.865-69.043 113.037-67.9688 113.281-65.1855L119.727 8.88672C119.971 11.7676 118.994 12.9395 116.113 13.1836L104.492 14.1602C101.611 14.4531 100.391 13.4277 100.146 10.5957ZM39.6484-57.3242L62.5-57.3242C65.332-57.3242 66.4551-56.2012 66.4551-53.3691L66.4551 13.8672L35.6445 13.8672L35.6445-53.3691C35.6445-56.2012 36.7676-57.3242 39.6484-57.3242ZM42.6758-47.4121L59.4238-47.4121C60.1562-47.4121 60.6934-47.9492 60.6934-48.6328C60.6934-49.2676 60.1562-49.8535 59.4238-49.8535L42.6758-49.8535C41.9922-49.8535 41.4062-49.2676 41.4062-48.6328C41.4062-47.9492 41.9922-47.4121 42.6758-47.4121ZM42.6758 6.34766L59.4238 6.34766C60.1562 6.34766 60.6934 5.81055 60.6934 5.17578C60.6934 4.49219 60.1562 3.95508 59.4238 3.95508L42.6758 3.95508C41.9922 3.95508 41.4062 4.49219 41.4062 5.17578C41.4062 5.81055 41.9922 6.34766 42.6758 6.34766Z"/>
  </g>
  <g id="Black-S" transform="matrix(1 0 0 1 2862.67 696)">
   <path d="M107.129 8.93555L119.971 7.8125C128.32 7.08008 132.324 2.29492 131.592-6.05469L127.295-55.2734C126.562-63.623 121.777-67.627 113.428-66.8945L100.586-65.7715C99.6094-65.6738 98.6816-65.5273 97.8516-65.332L97.8516-65.7715C97.8516-74.1699 93.457-78.5645 85.0586-78.5645L72.168-78.5645C63.7695-78.5645 59.375-74.1699 59.375-65.7715L59.375-50.9766L44.3359-50.9766L44.3359-54.0527C44.3359-62.4512 39.9414-66.8457 31.543-66.8457L22.5586-66.8457C14.1602-66.8457 9.76562-62.4512 9.76562-54.0527L9.76562-4.63867C9.76562 3.75977 14.1602 8.1543 22.5586 8.1543L85.0586 8.1543C89.7461 8.1543 93.1641 6.78711 95.3125 4.15039C97.5586 7.8125 101.514 9.42383 107.129 8.93555ZM75.4883-64.4043L81.7383-64.4043C83.0078-64.4043 83.6914-63.7207 83.6914-62.4512L83.6914-7.95898C83.6914-6.68945 83.0078-6.00586 81.7383-6.00586L73.5352-6.00586L73.5352-62.4512C73.5352-63.7207 74.2188-64.4043 75.4883-64.4043ZM25.8789-6.00586C24.6094-6.00586 23.9258-6.68945 23.9258-7.95898L23.9258-50.7324C23.9258-52.002 24.6094-52.6855 25.8789-52.6855L28.2227-52.6855C29.4922-52.6855 30.1758-52.002 30.1758-50.7324L30.1758-6.00586ZM107.08-7.22656L103.369-49.8535C103.271-51.123 103.857-51.8555 105.127-51.9531L111.377-52.4902C112.646-52.5879 113.379-52.002 113.477-50.7324L117.188-8.10547C117.285-6.88477 116.699-6.10352 115.43-6.00586L109.18-5.46875C107.959-5.37109 107.178-5.95703 107.08-7.22656ZM46.2891-36.8164L57.4219-36.8164C58.6914-36.8164 59.375-36.1328 59.375-34.8633L59.375-6.00586L44.3359-6.00586L44.3359-34.8633C44.3359-36.1328 45.0195-36.8164 46.2891-36.8164ZM49.0234-27.9297L55.127-27.9297C56.7871-27.9297 58.0566-29.248 58.0566-30.8594C58.0566-32.5684 56.7871-33.8867 55.127-33.8867L49.0234-33.8867C47.3145-33.8867 46.0449-32.5684 46.0449-30.8594C46.0449-29.248 47.3633-27.9297 49.0234-27.9297ZM49.0234-8.93555L55.127-8.93555C56.7871-8.93555 58.0566-10.2539 58.0566-11.9141C58.0566-13.5742 56.7871-14.9414 55.127-14.9414L49.0234-14.9414C47.3633-14.9414 46.0449-13.5742 46.0449-11.9141C46.0449-10.2539 47.3145-8.93555 49.0234-8.93555Z"/>
  </g>
  <g id="Heavy-S" transform="matrix(1 0 0 1 2568.23 696)">
   <path d="M105.127 8.20312L116.211 7.17773C124.072 6.39648 127.783 1.95312 127.051-5.95703L122.119-56.9824C121.387-64.8926 116.895-68.6523 109.033-67.8711L97.9492-66.7969C96.7773-66.6992 95.7031-66.5039 94.7266-66.2109L94.7266-66.748C94.7266-74.707 90.625-78.8086 82.7148-78.8086L70.6543-78.8086C62.7441-78.8086 58.6426-74.707 58.6426-66.748L58.6426-52.002L41.6016-52.002L41.6016-55.2246C41.6016-63.1348 37.5488-67.2363 29.6387-67.2363L21.7773-67.2363C13.8672-67.2363 9.76562-63.1348 9.76562-55.2246L9.76562-4.39453C9.76562 3.51562 13.8672 7.61719 21.7773 7.61719L82.7148 7.61719C87.8906 7.61719 91.4062 5.85938 93.2617 2.44141C95.166 6.78711 99.1699 8.78906 105.127 8.20312ZM73.3398-66.4551L79.9805-66.4551C81.543-66.4551 82.3242-65.625 82.3242-64.1113L82.3242-7.08008C82.3242-5.56641 81.543-4.73633 79.9805-4.73633L70.9961-4.73633L70.9961-64.1113C70.9961-65.625 71.8262-66.4551 73.3398-66.4551ZM104.102-6.44531L99.6582-52.1973C99.5117-53.7109 100.244-54.5898 101.758-54.7363L107.471-55.2734C109.033-55.4688 109.912-54.6875 110.059-53.2227L114.453-7.4707C114.6-6.00586 113.916-5.07812 112.402-4.93164L106.641-4.3457C105.176-4.19922 104.248-4.93164 104.102-6.44531ZM24.4629-4.73633C22.9492-4.73633 22.1191-5.56641 22.1191-7.08008L22.1191-52.5391C22.1191-54.0527 22.9492-54.8828 24.4629-54.8828L26.9043-54.8828C28.4668-54.8828 29.248-54.0527 29.248-52.5391L29.248-4.73633ZM43.9941-39.6484L56.2988-39.6484C57.8125-39.6484 58.6426-38.8184 58.6426-37.3047L58.6426-4.73633L41.6016-4.73633L41.6016-37.3047C41.6016-38.8184 42.4316-39.6484 43.9941-39.6484ZM46.582-30.4199L54.0039-30.4199C55.6152-30.4199 56.8848-31.7383 56.8848-33.3008C56.8848-34.9609 55.6152-36.2305 54.0039-36.2305L46.582-36.2305C44.9219-36.2305 43.7012-34.9609 43.7012-33.3008C43.7012-31.7383 44.9707-30.4199 46.582-30.4199ZM46.582-8.1543L54.0039-8.1543C55.6152-8.1543 56.8848-9.42383 56.8848-11.0352C56.8848-12.6465 55.6152-13.9648 54.0039-13.9648L46.582-13.9648C44.9707-13.9648 43.7012-12.6465 43.7012-11.0352C43.7012-9.42383 44.9219-8.1543 46.582-8.1543Z"/>
  </g>
  <g id="Bold-S" transform="matrix(1 0 0 1 2274.08 696)">
   <path d="M102.832 7.37305L112.012 6.44531C119.336 5.61523 122.656 1.51367 121.924-5.81055L116.357-58.9355C115.625-66.2598 111.475-69.7754 104.15-68.9453L94.9707-67.9688C93.5547-67.8223 92.2852-67.5293 91.2109-67.1387L91.2109-67.8711C91.2109-75.293 87.4512-79.1016 80.0781-79.1016L68.9453-79.1016C61.5723-79.1016 57.8125-75.293 57.8125-67.8711L57.8125-53.1738C57.5684-53.1738 57.2754-53.1738 57.0312-53.1738L39.3555-53.1738C39.1113-53.1738 38.8672-53.1738 38.5742-53.1738L38.5742-56.4941C38.5742-63.916 34.8145-67.6758 27.4414-67.6758L20.8984-67.6758C13.5254-67.6758 9.76562-63.916 9.76562-56.4941L9.76562-4.15039C9.76562 3.22266 13.5254 7.03125 20.8984 7.03125L80.0781 7.03125C86.2305 7.03125 89.8926 4.39453 90.918-0.830078C92.0898 5.27344 96.0938 8.1543 102.832 7.37305ZM70.9473-68.7012L78.0273-68.7012C79.8828-68.7012 80.8105-67.7246 80.8105-65.9668L80.8105-6.10352C80.8105-4.3457 79.8828-3.32031 78.0273-3.32031L68.1641-3.32031L68.1641-65.9668C68.1641-67.7246 69.1406-68.7012 70.9473-68.7012ZM100.781-5.56641L95.5566-54.834C95.3613-56.5918 96.1426-57.6172 97.998-57.8613L103.125-58.3984C104.98-58.6426 106.006-57.7637 106.201-56.0059L111.426-6.73828C111.621-4.98047 110.791-3.95508 108.984-3.71094L103.809-3.125C102.002-2.88086 100.977-3.75977 100.781-5.56641ZM22.9492-3.32031C21.0938-3.32031 20.1172-4.3457 20.1172-6.10352L20.1172-54.5898C20.1172-56.3477 21.0938-57.3242 22.9492-57.3242L25.4395-57.3242C27.2949-57.3242 28.2227-56.3477 28.2227-54.5898L28.2227-3.32031ZM41.3574-42.8223L54.9805-42.8223C56.8359-42.8223 57.8125-41.7969 57.8125-40.0391L57.8125-3.32031L38.5742-3.32031L38.5742-40.0391C38.5742-41.7969 39.5508-42.8223 41.3574-42.8223ZM43.8965-33.252L52.7344-33.252C54.3457-33.252 55.5176-34.5215 55.5176-36.084C55.5176-37.6465 54.3457-38.8672 52.7344-38.8672L43.8965-38.8672C42.2852-38.8672 41.0645-37.6465 41.0645-36.084C41.0645-34.5215 42.2852-33.252 43.8965-33.252ZM43.8965-7.22656L52.7344-7.22656C54.3457-7.22656 55.5176-8.49609 55.5176-10.0586C55.5176-11.6211 54.3457-12.8906 52.7344-12.8906L43.8965-12.8906C42.2852-12.8906 41.0645-11.6211 41.0645-10.0586C41.0645-8.49609 42.2852-7.22656 43.8965-7.22656Z"/>
  </g>
  <g id="Semibold-S" transform="matrix(1 0 0 1 1979.11 696)">
   <path d="M89.6973-2.58789C90.4297 4.39453 94.2871 7.71484 101.27 6.83594L109.082 5.9082C116.064 5.07812 119.189 1.26953 118.408-5.76172L112.354-60.2539C111.621-67.2363 107.715-70.5566 100.732-69.6777L92.9199-68.7988C91.3574-68.6035 89.9414-68.2617 88.7695-67.7246L88.7695-68.6523C88.7695-75.6836 85.2539-79.2969 78.2227-79.2969L67.7734-79.2969C60.7422-79.2969 57.2266-75.6836 57.2266-68.6523L57.2266-53.9062C56.7383-53.9551 56.2012-53.9551 55.6641-53.9551L38.0371-53.9551C37.5-53.9551 37.0117-53.9551 36.4746-53.9062L36.4746-57.373C36.4746-64.4043 32.959-67.9688 25.9766-67.9688L20.3125-67.9688C13.2812-67.9688 9.76562-64.4043 9.76562-57.373L9.76562-4.00391C9.76562 3.02734 13.2812 6.64062 20.3125 6.64062L78.2227 6.64062C85.2539 6.64062 88.7695 3.02734 88.7695-4.00391L88.7695-10.6934ZM69.3359-70.2637L76.6602-70.2637C78.7598-70.2637 79.7852-69.1895 79.7852-67.2363L79.7852-5.41992C79.7852-3.4668 78.7598-2.34375 76.6602-2.34375L66.2109-2.34375L66.2109-67.2363C66.2109-69.1895 67.2852-70.2637 69.3359-70.2637ZM98.4375-4.98047L92.6758-56.6406C92.4316-58.5938 93.3594-59.7168 95.4102-60.0098L100.146-60.5957C102.148-60.8887 103.369-59.8145 103.564-57.9102L109.375-6.25C109.57-4.29688 108.691-3.125 106.641-2.83203L101.855-2.29492C99.8535-2.00195 98.6816-2.97852 98.4375-4.98047ZM21.875-2.34375C19.8242-2.34375 18.75-3.4668 18.75-5.41992L18.75-55.957C18.75-57.9102 19.8242-58.9844 21.875-58.9844L24.4141-58.9844C26.4648-58.9844 27.4902-57.9102 27.4902-55.957L27.4902-2.34375ZM39.5996-44.9707L54.1016-44.9707C56.2012-44.9707 57.2266-43.8965 57.2266-41.9434L57.2266-2.34375L36.4746-2.34375L36.4746-41.9434C36.4746-43.8965 37.5488-44.9707 39.5996-44.9707ZM42.041-35.2051L51.9043-35.2051C53.4668-35.2051 54.6387-36.4258 54.6387-37.9395C54.6387-39.502 53.4668-40.6738 51.9043-40.6738L42.041-40.6738C40.4297-40.6738 39.2578-39.502 39.2578-37.9395C39.2578-36.4258 40.4297-35.2051 42.041-35.2051ZM42.041-6.64062L51.9043-6.64062C53.4668-6.64062 54.6387-7.86133 54.6387-9.42383C54.6387-10.9375 53.4668-12.1582 51.9043-12.1582L42.041-12.1582C40.4297-12.1582 39.2578-10.9375 39.2578-9.42383C39.2578-7.86133 40.4297-6.64062 42.041-6.64062Z"/>
  </g>
  <g id="Medium-S" transform="matrix(1 0 0 1 1683.74 696)">
   <path d="M88.9648-2.58789C89.7461 4.15039 93.4082 7.27539 100.098 6.39648L106.885 5.56641C113.623 4.63867 116.504 1.02539 115.771-5.66406L109.326-61.2793C108.594-67.9688 104.883-71.1426 98.1934-70.2148L91.3574-69.3848C89.6484-69.1406 88.1836-68.75 86.9141-68.1641L86.9141-69.2383C86.9141-76.0254 83.5938-79.3945 76.8555-79.3945L66.8945-79.3945C60.1562-79.3945 56.7871-76.0254 56.7871-69.2383L56.7871-54.4434C56.1035-54.541 55.4199-54.5898 54.6875-54.5898L37.0605-54.5898C36.3281-54.5898 35.5957-54.541 34.9121-54.4434L34.9121-58.0566C34.9121-64.7949 31.543-68.2129 24.8535-68.2129L19.873-68.2129C13.1348-68.2129 9.76562-64.7949 9.76562-58.0566L9.76562-3.85742C9.76562 2.92969 13.1348 6.29883 19.873 6.29883L76.8555 6.29883C83.5938 6.29883 86.9141 2.92969 86.9141-3.85742L86.9141-19.9219ZM68.0664-71.4844L75.6348-71.4844C77.8809-71.4844 79.0039-70.2637 79.0039-68.2129L79.0039-4.93164C79.0039-2.83203 77.8809-1.61133 75.6348-1.61133L64.7461-1.61133L64.7461-68.2129C64.7461-70.2637 65.8691-71.4844 68.0664-71.4844ZM96.7285-4.49219L90.5273-58.0078C90.2832-60.1074 91.2598-61.2793 93.4082-61.6211L97.8516-62.207C100.049-62.5488 101.318-61.4258 101.562-59.375L107.764-5.85938C108.008-3.75977 107.031-2.53906 104.883-2.19727L100.391-1.61133C98.1934-1.31836 96.9727-2.39258 96.7285-4.49219ZM21.0449-1.61133C18.8477-1.61133 17.7246-2.83203 17.7246-4.93164L17.7246-57.0312C17.7246-59.082 18.8477-60.3027 21.0449-60.3027L23.6328-60.3027C25.8789-60.3027 26.9531-59.082 26.9531-57.0312L26.9531-1.61133ZM38.2324-46.6309L53.4668-46.6309C55.6641-46.6309 56.7871-45.459 56.7871-43.3594L56.7871-1.61133L34.9121-1.61133L34.9121-43.3594C34.9121-45.459 36.0352-46.6309 38.2324-46.6309ZM40.625-36.6699L51.2207-36.6699C52.7832-36.6699 53.9062-37.8418 53.9062-39.4043C53.9062-40.918 52.7832-42.041 51.2207-42.041L40.625-42.041C39.0137-42.041 37.8906-40.918 37.8906-39.4043C37.8906-37.8418 39.0625-36.6699 40.625-36.6699ZM40.625-6.15234L51.2207-6.15234C52.7832-6.15234 53.9062-7.37305 53.9062-8.88672C53.9062-10.4004 52.7832-11.5723 51.2207-11.5723L40.625-11.5723C39.0625-11.5723 37.8906-10.4004 37.8906-8.88672C37.8906-7.37305 39.0137-6.15234 40.625-6.15234Z"/>
  </g>
  <g id="Regular-S" transform="matrix(1 0 0 1 1388.76 696)">
   <path d="M87.9883-2.53906C88.8184 3.80859 92.2363 6.78711 98.5352 5.81055L104.053 5.0293C110.352 4.10156 113.037 0.78125 112.256-5.61523L105.371-62.5977C104.639-68.8965 101.172-71.9238 94.8242-70.9961L89.3555-70.166C87.4023-69.9219 85.791-69.3848 84.5215-68.6523L84.5215-70.0195C84.5215-76.416 81.3965-79.5898 75.0488-79.5898L65.7227-79.5898C59.3262-79.5898 56.2012-76.416 56.2012-70.0195L56.2012-55.127C55.3223-55.2734 54.3945-55.3711 53.3203-55.3711L35.791-55.3711C34.7168-55.3711 33.7402-55.2734 32.8613-55.0781L32.8613-58.9355C32.8613-65.332 29.6875-68.5059 23.3887-68.5059L19.2871-68.5059C12.8906-68.5059 9.76562-65.332 9.76562-58.9355L9.76562-3.71094C9.76562 2.73438 12.8906 5.9082 19.2871 5.9082L75.0488 5.9082C81.3965 5.9082 84.5215 2.73438 84.5215-3.71094L84.5215-31.0547ZM66.4551-73.0469L74.3164-73.0469C76.7578-73.0469 77.9785-71.7285 77.9785-69.4824L77.9785-4.24805C77.9785-1.95312 76.7578-0.683594 74.3164-0.683594L62.793-0.683594L62.793-69.4824C62.793-71.7285 64.0625-73.0469 66.4551-73.0469ZM94.4336-3.90625L87.6953-59.8145C87.4023-62.0605 88.4766-63.3789 90.8691-63.7695L94.873-64.3555C97.2656-64.7461 98.6816-63.4766 98.9746-61.2793L105.713-5.37109C106.006-3.07617 104.932-1.75781 102.539-1.36719L98.4375-0.78125C96.0938-0.390625 94.7266-1.61133 94.4336-3.90625ZM19.9707-0.683594C17.5781-0.683594 16.3574-1.95312 16.3574-4.24805L16.3574-58.3984C16.3574-60.6445 17.5781-61.9629 19.9707-61.9629L22.6074-61.9629C25.0488-61.9629 26.2695-60.6445 26.2695-58.3984L26.2695-0.683594ZM36.4746-48.7793L52.5879-48.7793C55.0293-48.7793 56.2012-47.5098 56.2012-45.2637L56.2012-0.683594L32.8613-0.683594L32.8613-45.2637C32.8613-47.5098 34.082-48.7793 36.4746-48.7793ZM38.7695-38.5742L50.3906-38.5742C51.9043-38.5742 53.0273-39.7461 53.0273-41.2598C53.0273-42.7246 51.9043-43.8477 50.3906-43.8477L38.7695-43.8477C37.207-43.8477 36.084-42.7246 36.084-41.2598C36.084-39.7461 37.207-38.5742 38.7695-38.5742ZM38.7695-5.56641L50.3906-5.56641C51.9043-5.56641 53.0273-6.73828 53.0273-8.25195C53.0273-9.7168 51.9043-10.8398 50.3906-10.8398L38.7695-10.8398C37.207-10.8398 36.084-9.7168 36.084-8.25195C36.084-6.73828 37.207-5.56641 38.7695-5.56641Z"/>
  </g>
  <g id="Light-S" transform="matrix(1 0 0 1 1094.66 696)">
   <path d="M84.4727-1.46484C85.1074 3.90625 87.9395 6.44531 93.3594 5.66406L100.049 4.88281C105.469 4.15039 107.715 1.26953 107.08-4.10156L100.781-61.4258C100.195-66.7969 97.3145-69.3359 91.8457-68.6035L85.2051-67.8223C83.4961-67.5781 82.0801-67.1387 81.0059-66.5039L81.0059-70.166C81.0059-75.5371 78.3691-78.2715 72.9492-78.2715L62.9883-78.2715C57.5195-78.2715 54.9316-75.5371 54.9316-70.166L54.9316-54.7363C54.0527-54.9805 53.0762-55.0781 52.002-55.0781L34.2773-55.0781C33.1543-55.0781 32.1777-54.9805 31.2988-54.7363L31.2988-59.9609C31.2988-65.332 28.7109-68.0664 23.291-68.0664L17.8223-68.0664C12.3535-68.0664 9.76562-65.332 9.76562-59.9609L9.76562-2.49023C9.76562 2.92969 12.3535 5.66406 17.8223 5.66406L72.9492 5.66406C78.3691 5.66406 81.0059 2.92969 81.0059-2.49023L81.0059-32.7637ZM63.5254-73.1934L72.4121-73.1934C74.7559-73.1934 75.8789-72.0215 75.8789-69.7754L75.8789-2.88086C75.8789-0.634766 74.7559 0.537109 72.4121 0.537109L60.0586 0.537109L60.0586-69.7754C60.0586-72.0215 61.1816-73.1934 63.5254-73.1934ZM89.4531-2.49023L83.252-59.0332C82.959-61.2793 83.9844-62.5 86.3281-62.793L91.9434-63.4766C94.2871-63.7695 95.5078-62.6953 95.752-60.498L102.002-3.90625C102.246-1.61133 101.27-0.439453 98.9258-0.0976562L93.2617 0.537109C90.9668 0.878906 89.6973-0.195312 89.4531-2.49023ZM18.3594 0.537109C16.0156 0.537109 14.8926-0.634766 14.8926-2.88086L14.8926-59.5703C14.8926-61.8164 16.0156-62.9883 18.3594-62.9883L22.7051-62.9883C25.0977-62.9883 26.2207-61.8164 26.2207-59.5703L26.2207 0.537109ZM34.7656-49.9512L51.4648-49.9512C53.8086-49.9512 54.9316-48.7793 54.9316-46.5332L54.9316 0.537109L31.2988 0.537109L31.2988-46.5332C31.2988-48.7793 32.4219-49.9512 34.7656-49.9512ZM37.1094-40.5273L49.1699-40.5273C50.3906-40.5273 51.3184-41.4551 51.3184-42.6758C51.3184-43.7988 50.3906-44.7266 49.1699-44.7266L37.1094-44.7266C35.8887-44.7266 34.9609-43.7988 34.9609-42.6758C34.9609-41.4551 35.8887-40.5273 37.1094-40.5273ZM37.1094-4.63867L49.1699-4.63867C50.3906-4.63867 51.3184-5.56641 51.3184-6.78711C51.3184-7.95898 50.3906-8.88672 49.1699-8.88672L37.1094-8.88672C35.8887-8.88672 34.9609-7.95898 34.9609-6.78711C34.9609-5.56641 35.8887-4.63867 37.1094-4.63867Z"/>
  </g>
  <g id="Thin-S" transform="matrix(1 0 0 1 801.369 696)">
   <path d="M79.7852-0.0488281C80.1758 4.00391 82.2266 5.95703 86.5234 5.51758L94.7266 4.73633C99.0234 4.24805 100.684 1.95312 100.244-2.09961L94.7266-59.9609C94.2871-63.9648 92.1875-65.9668 87.9395-65.4785L79.6875-64.6973C78.2715-64.502 77.1484-64.1602 76.3184-63.623L76.3184-70.3125C76.3184-74.4141 74.4141-76.5625 70.1172-76.5625L59.4238-76.5625C55.127-76.5625 53.2227-74.4141 53.2227-70.3125L53.2227-54.1992C52.3926-54.541 51.416-54.6875 50.2441-54.6875L32.3242-54.6875C31.1035-54.6875 30.127-54.541 29.2969-54.1992L29.2969-61.2793C29.2969-65.3809 27.3926-67.5293 23.1445-67.5293L15.9668-67.5293C11.6699-67.5293 9.76562-65.3809 9.76562-61.2793L9.76562-0.878906C9.76562 3.17383 11.6699 5.32227 15.9668 5.32227L70.1172 5.32227C74.4141 5.32227 76.3184 3.17383 76.3184-0.878906L76.3184-35.8398ZM59.668-73.3398L69.873-73.3398C72.168-73.3398 73.1445-72.3633 73.1445-70.1172L73.1445-1.07422C73.1445 1.17188 72.168 2.14844 69.873 2.14844L56.3965 2.14844L56.3965-70.1172C56.3965-72.3633 57.373-73.3398 59.668-73.3398ZM16.2109 2.14844C13.916 2.14844 12.9395 1.17188 12.9395-1.07422L12.9395-61.084C12.9395-63.3301 13.916-64.3066 16.2109-64.3066L22.8516-64.3066C25.1465-64.3066 26.123-63.3301 26.123-61.084L26.123 2.14844ZM82.8613-0.585938L77.3438-58.0078C77.1484-60.2539 78.0273-61.3281 80.3223-61.5723L88.0371-62.3047C90.2832-62.5488 91.3574-61.6211 91.5527-59.4238L97.0703-1.95312C97.3145 0.292969 96.4355 1.31836 94.1895 1.5625L86.4258 2.29492C84.1797 2.53906 83.1055 1.66016 82.8613-0.585938ZM32.5684-51.5137L49.9512-51.5137C52.2461-51.5137 53.2227-50.5371 53.2227-48.291L53.2227 2.14844L29.2969 2.14844L29.2969-48.291C29.2969-50.5371 30.2734-51.5137 32.5684-51.5137ZM34.9121-43.0664L47.6074-43.0664C48.4375-43.0664 49.0723-43.7012 49.0723-44.4824C49.0723-45.2637 48.4375-45.8984 47.6074-45.8984L34.9121-45.8984C34.082-45.8984 33.4473-45.2637 33.4473-44.4824C33.4473-43.7012 34.082-43.0664 34.9121-43.0664ZM34.9121-3.4668L47.6074-3.4668C48.4375-3.4668 49.0723-4.10156 49.0723-4.88281C49.0723-5.66406 48.4375-6.29883 47.6074-6.29883L34.9121-6.29883C34.082-6.29883 33.4473-5.66406 33.4473-4.88281C33.4473-4.10156 34.082-3.4668 34.9121-3.4668Z"/>
  </g>
  <g id="Ultralight-S" transform="matrix(1 0 0 1 506.44 696)">
   <path d="M77.3438 0.732422C77.6855 4.05273 79.3457 5.71289 83.0078 5.37109L92.041 4.58984C95.7031 4.29688 97.0703 2.29492 96.7285-1.07422L91.6016-59.1797C91.2598-62.5488 89.5508-64.209 85.8887-63.916L76.8555-63.0859C75.6348-62.9395 74.6582-62.6465 73.877-62.1582L73.877-70.459C73.877-73.8281 72.3633-75.6348 68.7012-75.6348L57.5684-75.6348C53.9062-75.6348 52.3438-73.8281 52.3438-70.459L52.3438-53.8574C51.5625-54.2969 50.5859-54.4922 49.3164-54.4922L31.2988-54.4922C30.0293-54.4922 29.0527-54.2969 28.2715-53.8574L28.2715-62.0117C28.2715-65.3809 26.709-67.1875 23.0469-67.1875L14.9902-67.1875C11.3281-67.1875 9.76562-65.3809 9.76562-62.0117L9.76562-0.0488281C9.76562 3.32031 11.3281 5.17578 14.9902 5.17578L68.7012 5.17578C72.3633 5.17578 73.877 3.32031 73.877-0.0488281L73.877-37.9395ZM57.666-73.4863L68.5547-73.4863C70.8008-73.4863 71.7285-72.5586 71.7285-70.3125L71.7285-0.146484C71.7285 2.09961 70.8008 2.97852 68.5547 2.97852L54.541 2.97852L54.541-70.3125C54.541-72.5586 55.4199-73.4863 57.666-73.4863ZM15.0879 2.97852C12.8418 2.97852 11.9629 2.09961 11.9629-0.146484L11.9629-61.8652C11.9629-64.1113 12.8418-65.0391 15.0879-65.0391L22.9492-65.0391C25.1953-65.0391 26.0742-64.1113 26.0742-61.8652L26.0742 2.97852ZM79.4922 0.341797L74.3164-57.4707C74.1211-59.7168 74.9512-60.7422 77.1973-60.9375L85.9863-61.7188C88.2812-61.9141 89.209-61.084 89.4043-58.8867L94.5801-0.976562C94.7754 1.26953 93.9941 2.24609 91.6992 2.44141L82.9102 3.22266C80.6641 3.41797 79.6875 2.63672 79.4922 0.341797ZM31.3965-52.2949L49.2188-52.2949C51.4648-52.2949 52.3438-51.416 52.3438-49.1699L52.3438 2.97852L28.2715 2.97852L28.2715-49.1699C28.2715-51.416 29.1504-52.2949 31.3965-52.2949ZM33.7891-44.3848L46.8262-44.3848C47.4609-44.3848 47.9004-44.873 47.9004-45.459C47.9004-45.9961 47.4609-46.4844 46.8262-46.4844L33.7891-46.4844C33.1543-46.4844 32.7148-45.9961 32.7148-45.459C32.7148-44.873 33.1543-44.3848 33.7891-44.3848ZM33.7891-2.83203L46.8262-2.83203C47.4609-2.83203 47.9004-3.32031 47.9004-3.90625C47.9004-4.49219 47.4609-4.93164 46.8262-4.93164L33.7891-4.93164C33.1543-4.93164 32.7148-4.49219 32.7148-3.90625C32.7148-3.32031 33.1543-2.83203 33.7891-2.83203Z"/>
  </g>
 </g>
</svg>
